  0
SECTION
  2
HEADER
  9
$ACADVER
  1
AC1027
  9
$ACADMAINTVER
 70
     8
  9
$DWGCODEPAGE
  3
ANSI_1252
  9
$REQUIREDVERSIONS
160
                 0
  9
$INSBASE
 10
0.0
 20
0.0
 30
0.0
  9
$EXTMIN
 10
1.000000000000000E+20
 20
1.000000000000000E+20
 30
1.000000000000000E+20
  9
$EXTMAX
 10
-1.000000000000000E+20
 20
-1.000000000000000E+20
 30
-1.000000000000000E+20
  9
$LIMMIN
 10
0.0
 20
0.0
  9
$LIMMAX
 10
12.0
 20
9.0
  9
$ORTHOMODE
 70
     0
  9
$REGENMODE
 70
     1
  9
$FILLMODE
 70
     1
  9
$QTEXTMODE
 70
     0
  9
$MIRRTEXT
 70
     1
  9
$LTSCALE
 40
1.0
  9
$ATTMODE
 70
     1
  9
$TEXTSIZE
 40
0.2
  9
$TRACEWID
 40
0.05
  9
$TEXTSTYLE
  7
Standard
  9
$CLAYER
  8
0
  9
$CELTYPE
  6
ByLayer
  9
$CECOLOR
 62
    18
  9
$CELTSCALE
 40
1.0
  9
$DISPSILH
 70
     0
  9
$DIMSCALE
 40
1.0
  9
$DIMASZ
 40
2.5
  9
$DIMEXO
 40
0.625
  9
$DIMDLI
 40
0.38
  9
$DIMRND
 40
0.0
  9
$DIMDLE
 40
0.0
  9
$DIMEXE
 40
1.25
  9
$DIMTP
 40
0.0
  9
$DIMTM
 40
0.0
  9
$DIMTXT
 40
2.5
  9
$DIMCEN
 40
0.09
  9
$DIMTSZ
 40
0.0
  9
$DIMTOL
 70
     0
  9
$DIMLIM
 70
     0
  9
$DIMTIH
 70
     1
  9
$DIMTOH
 70
     1
  9
$DIMSE1
 70
     0
  9
$DIMSE2
 70
     0
  9
$DIMTAD
 70
     0
  9
$DIMZIN
 70
     8
  9
$DIMBLK
  1

  9
$DIMASO
 70
     1
  9
$DIMSHO
 70
     1
  9
$DIMPOST
  1

  9
$DIMAPOST
  1

  9
$DIMALT
 70
     0
  9
$DIMALTD
 70
     2
  9
$DIMALTF
 40
25.4
  9
$DIMLFAC
 40
1.0
  9
$DIMTOFL
 70
     0
  9
$DIMTVP
 40
0.0
  9
$DIMTIX
 70
     0
  9
$DIMSOXD
 70
     0
  9
$DIMSAH
 70
     0
  9
$DIMBLK1
  1

  9
$DIMBLK2
  1

  9
$DIMSTYLE
  2
Standard
  9
$DIMCLRD
 70
    18
  9
$DIMCLRE
 70
    18
  9
$DIMCLRT
 70
    18
  9
$DIMTFAC
 40
1.0
  9
$DIMGAP
 40
0.625
  9
$DIMJUST
 70
     0
  9
$DIMSD1
 70
     0
  9
$DIMSD2
 70
     0
  9
$DIMTOLJ
 70
     1
  9
$DIMTZIN
 70
     0
  9
$DIMALTZ
 70
     0
  9
$DIMALTTZ
 70
     0
  9
$DIMUPT
 70
     0
  9
$DIMDEC
 70
     4
  9
$DIMTDEC
 70
     4
  9
$DIMALTU
 70
     2
  9
$DIMALTTD
 70
     2
  9
$DIMTXSTY
  7
Standard
  9
$DIMAUNIT
 70
     0
  9
$DIMADEC
 70
     3
  9
$DIMALTRND
 40
0.0
  9
$DIMAZIN
 70
     2
  9
$DIMDSEP
 70
    46
  9
$DIMATFIT
 70
     3
  9
$DIMFRAC
 70
     0
  9
$DIMLDRBLK
  1

  9
$DIMLUNIT
 70
     2
  9
$DIMLWD
 70
    -2
  9
$DIMLWE
 70
    -2
  9
$DIMTMOVE
 70
     0
  9
$DIMFXL
 40
1.0
  9
$DIMFXLON
 70
     0
  9
$DIMJOGANG
 40
0.7853981633974483
  9
$DIMTFILL
 70
     0
  9
$DIMTFILLCLR
 70
     0
  9
$DIMARCSYM
 70
     0
  9
$DIMLTYPE
  6

  9
$DIMLTEX1
  6

  9
$DIMLTEX2
  6

  9
$DIMTXTDIRECTION
 70
     0
  9
$LUNITS
 70
     2
  9
$LUPREC
 70
     4
  9
$SKETCHINC
 40
0.1
  9
$FILLETRAD
 40
0.5
  9
$AUNITS
 70
     0
  9
$AUPREC
 70
     0
  9
$MENU
  1
.
  9
$ELEVATION
 40
0.0
  9
$PELEVATION
 40
0.0
  9
$THICKNESS
 40
0.0
  9
$LIMCHECK
 70
     0
  9
$CHAMFERA
 40
0.0
  9
$CHAMFERB
 40
0.0
  9
$CHAMFERC
 40
0.0
  9
$CHAMFERD
 40
0.0
  9
$SKPOLY
 70
     0
  9
$TDCREATE
 40
2458006.607835868
  9
$TDUCREATE
 40
2458006.816169201
  9
$TDUPDATE
 40
2458006.607836042
  9
$TDUUPDATE
 40
2458006.816169375
  9
$TDINDWG
 40
0.0000000116
  9
$TDUSRTIMER
 40
0.0000000116
  9
$USRTIMER
 70
     1
  9
$ANGBASE
 50
0.0
  9
$ANGDIR
 70
     0
  9
$PDMODE
 70
     0
  9
$PDSIZE
 40
0.0
  9
$PLINEWID
 40
0.0
  9
$SPLFRAME
 70
     0
  9
$SPLINETYPE
 70
     6
  9
$SPLINESEGS
 70
     8
  9
$HANDSEED
  5
587
  9
$SURFTAB1
 70
     6
  9
$SURFTAB2
 70
     6
  9
$SURFTYPE
 70
     6
  9
$SURFU
 70
     6
  9
$SURFV
 70
     6
  9
$UCSBASE
  2

  9
$UCSNAME
  2

  9
$UCSORG
 10
0.0
 20
0.0
 30
0.0
  9
$UCSXDIR
 10
1.0
 20
0.0
 30
0.0
  9
$UCSYDIR
 10
0.0
 20
1.0
 30
0.0
  9
$UCSORTHOREF
  2

  9
$UCSORTHOVIEW
 70
     0
  9
$UCSORGTOP
 10
0.0
 20
0.0
 30
0.0
  9
$UCSORGBOTTOM
 10
0.0
 20
0.0
 30
0.0
  9
$UCSORGLEFT
 10
0.0
 20
0.0
 30
0.0
  9
$UCSORGRIGHT
 10
0.0
 20
0.0
 30
0.0
  9
$UCSORGFRONT
 10
0.0
 20
0.0
 30
0.0
  9
$UCSORGBACK
 10
0.0
 20
0.0
 30
0.0
  9
$PUCSBASE
  2

  9
$PUCSNAME
  2

  9
$PUCSORG
 10
0.0
 20
0.0
 30
0.0
  9
$PUCSXDIR
 10
1.0
 20
0.0
 30
0.0
  9
$PUCSYDIR
 10
0.0
 20
1.0
 30
0.0
  9
$PUCSORTHOREF
  2

  9
$PUCSORTHOVIEW
 70
     0
  9
$PUCSORGTOP
 10
0.0
 20
0.0
 30
0.0
  9
$PUCSORGBOTTOM
 10
0.0
 20
0.0
 30
0.0
  9
$PUCSORGLEFT
 10
0.0
 20
0.0
 30
0.0
  9
$PUCSORGRIGHT
 10
0.0
 20
0.0
 30
0.0
  9
$PUCSORGFRONT
 10
0.0
 20
0.0
 30
0.0
  9
$PUCSORGBACK
 10
0.0
 20
0.0
 30
0.0
  9
$USERI1
 70
     0
  9
$USERI2
 70
     0
  9
$USERI3
 70
     0
  9
$USERI4
 70
     0
  9
$USERI5
 70
     0
  9
$USERR1
 40
0.0
  9
$USERR2
 40
0.0
  9
$USERR3
 40
0.0
  9
$USERR4
 40
0.0
  9
$USERR5
 40
0.0
  9
$WORLDVIEW
 70
     1
  9
$SHADEDGE
 70
     3
  9
$SHADEDIF
 70
    70
  9
$TILEMODE
 70
     1
  9
$MAXACTVP
 70
     2
  9
$PINSBASE
 10
0.0
 20
0.0
 30
0.0
  9
$PLIMCHECK
 70
     0
  9
$PEXTMIN
 10
0.0
 20
0.0
 30
0.0
  9
$PEXTMAX
 10
0.0
 20
0.0
 30
0.0
  9
$PLIMMIN
 10
-0.25
 20
-0.25
  9
$PLIMMAX
 10
10.75
 20
8.25
  9
$UNITMODE
 70
     0
  9
$VISRETAIN
 70
     1
  9
$PLINEGEN
 70
     0
  9
$PSLTSCALE
 70
     1
  9
$TREEDEPTH
 70
  3020
  9
$CMLSTYLE
  2
Standard
  9
$CMLJUST
 70
     0
  9
$CMLSCALE
 40
1.0
  9
$PROXYGRAPHICS
 70
     1
  9
$MEASUREMENT
 70
     0
  9
$CELWEIGHT
370
    -1
  9
$ENDCAPS
280
     0
  9
$JOINSTYLE
280
     0
  9
$LWDISPLAY
290
     0
  9
$INSUNITS
 70
     4
  9
$HYPERLINKBASE
  1

  9
$STYLESHEET
  1

  9
$XEDIT
290
     1
  9
$CEPSNTYPE
380
     0
  9
$PSTYLEMODE
290
     1
  9
$FINGERPRINTGUID
  2
{394FDF18-AF7C-41CA-B0D6-219C233AF121}
  9
$VERSIONGUID
  2
{FAEB1C32-E019-11D5-929B-00C0DF256EC4}
  9
$EXTNAMES
290
     1
  9
$PSVPSCALE
 40
0.0
  9
$OLESTARTUP
290
     0
  9
$SORTENTS
280
   127
  9
$INDEXCTL
280
     0
  9
$HIDETEXT
280
     1
  9
$XCLIPFRAME
280
     2
  9
$HALOGAP
280
     0
  9
$OBSCOLOR
 70
   257
  9
$OBSLTYPE
280
     0
  9
$INTERSECTIONDISPLAY
280
     0
  9
$INTERSECTIONCOLOR
 70
   257
  9
$DIMASSOC
280
     2
  9
$PROJECTNAME
  1

  9
$CAMERADISPLAY
290
     0
  9
$LENSLENGTH
 40
50.0
  9
$CAMERAHEIGHT
 40
0.0
  9
$STEPSPERSEC
 40
2.0
  9
$STEPSIZE
 40
6.0
  9
$3DDWFPREC
 40
2.0
  9
$PSOLWIDTH
 40
0.25
  9
$PSOLHEIGHT
 40
4.0
  9
$LOFTANG1
 40
1.570796326794897
  9
$LOFTANG2
 40
1.570796326794897
  9
$LOFTMAG1
 40
0.0
  9
$LOFTMAG2
 40
0.0
  9
$LOFTPARAM
 70
     7
  9
$LOFTNORMALS
280
     1
  9
$LATITUDE
 40
37.795
  9
$LONGITUDE
 40
-122.394
  9
$NORTHDIRECTION
 40
0.0
  9
$TIMEZONE
 70
 -8000
  9
$LIGHTGLYPHDISPLAY
280
     1
  9
$TILEMODELIGHTSYNCH
280
     1
  9
$CMATERIAL
347
4D6
  9
$SOLIDHIST
280
     0
  9
$SHOWHIST
280
     1
  9
$DWFFRAME
280
     2
  9
$DGNFRAME
280
     2
  9
$REALWORLDSCALE
290
     1
  9
$INTERFERECOLOR
 62
   256
  9
$CSHADOW
280
     0
  9
$SHADOWPLANELOCATION
 40
0.0
  0
ENDSEC
  0
SECTION
  2
CLASSES
  0
CLASS
  1
ACDBDICTIONARYWDFLT
  2
AcDbDictionaryWithDefault
  3
ObjectDBX Classes
 90
        0
 91
        4
280
     0
281
     0
  0
CLASS
  1
VISUALSTYLE
  2
AcDbVisualStyle
  3
ObjectDBX Classes
 90
     4095
 91
        4
280
     0
281
     0
  0
CLASS
  1
MATERIAL
  2
AcDbMaterial
  3
ObjectDBX Classes
 90
     1153
 91
        4
280
     0
281
     0
  0
CLASS
  1
SCALE
  2
AcDbScale
  3
ObjectDBX Classes
 90
     1153
 91
        4
280
     0
281
     0
  0
CLASS
  1
TABLESTYLE
  2
AcDbTableStyle
  3
ObjectDBX Classes
 90
     4095
 91
        4
280
     0
281
     0
  0
CLASS
  1
MLEADERSTYLE
  2
AcDbMLeaderStyle
  3
ACDB_MLEADERSTYLE_CLASS
 90
     4095
 91
        4
280
     0
281
     0
  0
CLASS
  1
SUN
  2
AcDbSun
  3
SCENEOE
 90
     1153
 91
        4
280
     0
281
     0
  0
CLASS
  1
DICTIONARYVAR
  2
AcDbDictionaryVar
  3
ObjectDBX Classes
 90
        0
 91
        4
280
     0
281
     0
  0
CLASS
  1
CELLSTYLEMAP
  2
AcDbCellStyleMap
  3
ObjectDBX Classes
 90
     1152
 91
        4
280
     0
281
     0
  0
ENDSEC
  0
SECTION
  2
TABLES
  0
TABLE
  2
VPORT
  5
49B
330
0
100
AcDbSymbolTable
 70
     1
  0
VPORT
  5
4BB
330
49B
100
AcDbSymbolTableRecord
100
AcDbViewportTableRecord
  2
*Active
 70
     0
 10
0.0
 20
0.0
 11
1.0
 21
1.0
 12
-13.56015104823111
 22
0.1877647167795971
 13
0.0
 23
0.0
 14
0.5
 24
0.5
 15
0.5
 25
0.5
 16
0.0
 26
0.0
 36
1.0
 17
0.0
 27
0.0
 37
0.0
 40
110.1054740625966
 41
1.942008486562942
 42
50.0
 43
0.0
 44
0.0
 50
0.0
 51
0.0
 71
     0
 72
   100
 73
     1
 74
     3
 75
     0
 76
     0
 77
     0
 78
     0
281
     0
 65
     1
110
0.0
120
0.0
130
0.0
111
1.0
121
0.0
131
0.0
112
0.0
122
1.0
132
0.0
 79
     0
146
0.0
 60
     3
 61
     5
292
     1
282
     1
141
0.0
142
0.0
 63
   250
361
4FF
  0
ENDTAB
  0
TABLE
  2
LTYPE
  5
498
330
0
100
AcDbSymbolTable
 70
    48
  0
LTYPE
  5
4A6
330
498
100
AcDbSymbolTableRecord
100
AcDbLinetypeTableRecord
  2
ByBlock
 70
     0
  3

 72
    65
 73
     0
 40
0.0
  0
LTYPE
  5
4A7
330
498
100
AcDbSymbolTableRecord
100
AcDbLinetypeTableRecord
  2
ByLayer
 70
     0
  3

 72
    65
 73
     0
 40
0.0
  0
LTYPE
  5
4A8
330
498
100
AcDbSymbolTableRecord
100
AcDbLinetypeTableRecord
  2
Continuous
 70
     0
  3
Solid line
 72
    65
 73
     0
 40
0.0
  0
LTYPE
  5
536
330
498
100
AcDbSymbolTableRecord
100
AcDbLinetypeTableRecord
  2
PHANTOM
 70
     0
  3
Phantom ______  __  __  ______  __  __  ______ 
 72
    65
 73
     6
 40
63.50000000000001
 49
31.75
 74
     0
 49
-6.35
 74
     0
 49
6.35
 74
     0
 49
-6.35
 74
     0
 49
6.35
 74
     0
 49
-6.35
 74
     0
  0
LTYPE
  5
538
330
498
100
AcDbSymbolTableRecord
100
AcDbLinetypeTableRecord
  2
HOT_WATER_SUPPLY
 70
     0
  3
Hot water supply ---- HW ---- HW ---- HW ----
 72
    65
 73
     3
 40
22.86
 49
12.7
 74
     0
 49
-5.08
 74
     2
 75
     0
340
537
 46
2.54
 50
0.0
 44
-2.54
 45
-1.27
  9
HW
 49
-5.08
 74
     0
  0
LTYPE
  5
539
330
498
100
AcDbSymbolTableRecord
100
AcDbLinetypeTableRecord
  2
HIDDENX2
 70
     0
  3
Hidden (2x) ____ ____ ____ ____ ____ ____ ____ 
 72
    65
 73
     2
 40
19.05
 49
12.7
 74
     0
 49
-6.35
 74
     0
  0
LTYPE
  5
53A
330
498
100
AcDbSymbolTableRecord
100
AcDbLinetypeTableRecord
  2
HIDDEN2
 70
     0
  3
Hidden (.5x) _ _ _ _ _ _ _ _ _ _ _ _ _ _ _ _ _ 
 72
    65
 73
     2
 40
4.762499999999999
 49
3.175
 74
     0
 49
-1.5875
 74
     0
  0
LTYPE
  5
53B
330
498
100
AcDbSymbolTableRecord
100
AcDbLinetypeTableRecord
  2
HIDDEN
 70
     0
  3
Hidden __ __ __ __ __ __ __ __ __ __ __ __ __ __
 72
    65
 73
     2
 40
9.524999999999999
 49
6.35
 74
     0
 49
-3.175
 74
     0
  0
LTYPE
  5
53D
330
498
100
AcDbSymbolTableRecord
100
AcDbLinetypeTableRecord
  2
GAS_LINE
 70
     0
  3
Gas line ----GAS----GAS----GAS----GAS----GAS----GAS--
 72
    65
 73
     3
 40
24.13
 49
12.7
 74
     0
 49
-5.08
 74
     2
 75
     0
340
53C
 46
2.54
 50
0.0
 44
-2.54
 45
-1.27
  9
GAS
 49
-6.35
 74
     0
  0
LTYPE
  5
53F
330
498
100
AcDbSymbolTableRecord
100
AcDbLinetypeTableRecord
  2
FENCELINE2
 70
     0
  3
Fenceline square ----[]-----[]----[]-----[]----[]---
 72
    65
 73
     4
 40
36.83
 49
6.35
 74
     0
 49
-2.54
 74
     2
 75
     0
340
53E
 46
2.54
 50
0.0
 44
-2.54
 45
0.0
  9
BOX
 49
-2.54
 74
     0
 49
25.4
 74
     0
  0
LTYPE
  5
541
330
498
100
AcDbSymbolTableRecord
100
AcDbLinetypeTableRecord
  2
FENCELINE1
 70
     0
  3
Fenceline circle ----0-----0----0-----0----0-----0--
 72
    65
 73
     4
 40
36.83
 49
6.35
 74
     0
 49
-2.54
 74
     2
 75
     0
340
540
 46
2.54
 50
0.0
 44
-2.54
 45
0.0
  9
CIRC1
 49
-2.54
 74
     0
 49
25.4
 74
     0
  0
LTYPE
  5
543
330
498
100
AcDbSymbolTableRecord
100
AcDbLinetypeTableRecord
  2
DRAINAGE2
 70
     0
  3
Drainage reversed----<----<----<----
 72
    65
 73
     2
 40
10.16
 49
5.08
 74
     2
 75
     0
340
542
 46
2.54
 50
0.0
 44
0.0
 45
0.0
  9
RIGHT_ARROW
 49
5.08
 74
     0
  0
LTYPE
  5
545
330
498
100
AcDbSymbolTableRecord
100
AcDbLinetypeTableRecord
  2
DRAINAGE
 70
     0
  3
Drainage ---->---->---->----
 72
    65
 73
     2
 40
10.16
 49
5.08
 74
     2
 75
     0
340
544
 46
2.54
 50
180.0
 44
0.0
 45
0.0
  9
RIGHT_ARROW
 49
5.08
 74
     0
  0
LTYPE
  5
546
330
498
100
AcDbSymbolTableRecord
100
AcDbLinetypeTableRecord
  2
DOTX2
 70
     0
  3
Dot (2x) .  .  .  .  .  .  .  .  .  .  .  .  .  .
 72
    65
 73
     2
 40
12.7
 49
0.0
 74
     0
 49
-12.7
 74
     0
  0
LTYPE
  5
547
330
498
100
AcDbSymbolTableRecord
100
AcDbLinetypeTableRecord
  2
DOT2
 70
     0
  3
Dot (.5x) ........................................
 72
    65
 73
     2
 40
3.175
 49
0.0
 74
     0
 49
-3.175
 74
     0
  0
LTYPE
  5
548
330
498
100
AcDbSymbolTableRecord
100
AcDbLinetypeTableRecord
  2
DOT
 70
     0
  3
Dot . . . . . . . . . . . . . . . . . . . . . . . .
 72
    65
 73
     2
 40
6.35
 49
0.0
 74
     0
 49
-6.35
 74
     0
  0
LTYPE
  5
549
330
498
100
AcDbSymbolTableRecord
100
AcDbLinetypeTableRecord
  2
DIVIDEX2
 70
     0
  3
Divide (2x) ________  .  .  ________  .  .  _
 72
    65
 73
     6
 40
63.5
 49
25.4
 74
     0
 49
-12.7
 74
     0
 49
0.0
 74
     0
 49
-12.7
 74
     0
 49
0.0
 74
     0
 49
-12.7
 74
     0
  0
LTYPE
  5
54A
330
498
100
AcDbSymbolTableRecord
100
AcDbLinetypeTableRecord
  2
DIVIDE2
 70
     0
  3
Divide (.5x) __..__..__..__..__..__..__..__.._
 72
    65
 73
     6
 40
15.875
 49
6.35
 74
     0
 49
-3.175
 74
     0
 49
0.0
 74
     0
 49
-3.175
 74
     0
 49
0.0
 74
     0
 49
-3.175
 74
     0
  0
LTYPE
  5
54B
330
498
100
AcDbSymbolTableRecord
100
AcDbLinetypeTableRecord
  2
DIVIDE
 70
     0
  3
Divide ____ . . ____ . . ____ . . ____ . . ____
 72
    65
 73
     6
 40
31.75
 49
12.7
 74
     0
 49
-6.35
 74
     0
 49
0.0
 74
     0
 49
-6.35
 74
     0
 49
0.0
 74
     0
 49
-6.35
 74
     0
  0
LTYPE
  5
54C
330
498
100
AcDbSymbolTableRecord
100
AcDbLinetypeTableRecord
  2
DASHEDX2
 70
     0
  3
Dashed (2x) ____  ____  ____  ____  ____  ___
 72
    65
 73
     2
 40
38.09999999999999
 49
25.4
 74
     0
 49
-12.7
 74
     0
  0
LTYPE
  5
54D
330
498
100
AcDbSymbolTableRecord
100
AcDbLinetypeTableRecord
  2
DASHED2
 70
     0
  3
Dashed (.5x) _ _ _ _ _ _ _ _ _ _ _ _ _ _ _ _ _ 
 72
    65
 73
     2
 40
9.524999999999999
 49
6.35
 74
     0
 49
-3.175
 74
     0
  0
LTYPE
  5
54E
330
498
100
AcDbSymbolTableRecord
100
AcDbLinetypeTableRecord
  2
DASHED
 70
     0
  3
Dashed __ __ __ __ __ __ __ __ __ __ __ __ __ _
 72
    65
 73
     2
 40
19.05
 49
12.7
 74
     0
 49
-6.35
 74
     0
  0
LTYPE
  5
54F
330
498
100
AcDbSymbolTableRecord
100
AcDbLinetypeTableRecord
  2
DASHDOTX2
 70
     0
  3
Dash dot (2x) ____  .  ____  .  ____  .  ___
 72
    65
 73
     4
 40
50.8
 49
25.4
 74
     0
 49
-12.7
 74
     0
 49
0.0
 74
     0
 49
-12.7
 74
     0
  0
LTYPE
  5
550
330
498
100
AcDbSymbolTableRecord
100
AcDbLinetypeTableRecord
  2
DASHDOT2
 70
     0
  3
Dash dot (.5x) _._._._._._._._._._._._._._._.
 72
    65
 73
     4
 40
12.7
 49
6.35
 74
     0
 49
-3.175
 74
     0
 49
0.0
 74
     0
 49
-3.175
 74
     0
  0
LTYPE
  5
551
330
498
100
AcDbSymbolTableRecord
100
AcDbLinetypeTableRecord
  2
DASHDOT
 70
     0
  3
Dash dot __ . __ . __ . __ . __ . __ . __ . __
 72
    65
 73
     4
 40
25.4
 49
12.7
 74
     0
 49
-6.35
 74
     0
 49
0.0
 74
     0
 49
-6.35
 74
     0
  0
LTYPE
  5
552
330
498
100
AcDbSymbolTableRecord
100
AcDbLinetypeTableRecord
  2
CENTERX2
 70
     0
  3
Center (2x) ________  __  ________  __  _____
 72
    65
 73
     4
 40
101.6
 49
63.5
 74
     0
 49
-12.7
 74
     0
 49
12.7
 74
     0
 49
-12.7
 74
     0
  0
LTYPE
  5
553
330
498
100
AcDbSymbolTableRecord
100
AcDbLinetypeTableRecord
  2
CENTER2
 70
     0
  3
Center (.5x) ___ _ ___ _ ___ _ ___ _ ___ _ ___
 72
    65
 73
     4
 40
28.575
 49
19.05
 74
     0
 49
-3.175
 74
     0
 49
3.175
 74
     0
 49
-3.175
 74
     0
  0
LTYPE
  5
554
330
498
100
AcDbSymbolTableRecord
100
AcDbLinetypeTableRecord
  2
CENTER
 70
     0
  3
Center ____ _ ____ _ ____ _ ____ _ ____ _ ____
 72
    65
 73
     4
 40
50.8
 49
31.75
 74
     0
 49
-6.35
 74
     0
 49
6.35
 74
     0
 49
-6.35
 74
     0
  0
LTYPE
  5
555
330
498
100
AcDbSymbolTableRecord
100
AcDbLinetypeTableRecord
  2
BORDERX2
 70
     0
  3
Border (2x) ____  ____  .  ____  ____  .  ___
 72
    65
 73
     6
 40
88.89999999999999
 49
25.4
 74
     0
 49
-12.7
 74
     0
 49
25.4
 74
     0
 49
-12.7
 74
     0
 49
0.0
 74
     0
 49
-12.7
 74
     0
  0
LTYPE
  5
556
330
498
100
AcDbSymbolTableRecord
100
AcDbLinetypeTableRecord
  2
BORDER2
 70
     0
  3
Border (.5x) __.__.__.__.__.__.__.__.__.__.__.
 72
    65
 73
     6
 40
22.225
 49
6.35
 74
     0
 49
-3.175
 74
     0
 49
6.35
 74
     0
 49
-3.175
 74
     0
 49
0.0
 74
     0
 49
-3.175
 74
     0
  0
LTYPE
  5
557
330
498
100
AcDbSymbolTableRecord
100
AcDbLinetypeTableRecord
  2
BORDER
 70
     0
  3
Border __ __ . __ __ . __ __ . __ __ . __ __ .
 72
    65
 73
     6
 40
44.45
 49
12.7
 74
     0
 49
-6.35
 74
     0
 49
12.7
 74
     0
 49
-6.35
 74
     0
 49
0.0
 74
     0
 49
-6.35
 74
     0
  0
LTYPE
  5
55A
330
498
100
AcDbSymbolTableRecord
100
AcDbLinetypeTableRecord
  2
BATTING
 70
     0
  3
Batting SSSSSSSSSSSSSSSSSSSSSSSSSSSSSSSSSSSSSSSSSSSSSSS
 72
    65
 73
     4
 40
10.16254
 49
0.00254
 74
     0
 49
-2.54
 74
     2
 75
     0
340
558
 46
2.54
 50
0.0
 44
-2.54
 45
0.0
  9
BAT
 49
-5.08
 74
     2
 75
     0
340
559
 46
2.54
 50
180.0
 44
2.54
 45
0.0
  9
BAT
 49
-2.54
 74
     0
  0
LTYPE
  5
55B
330
498
100
AcDbSymbolTableRecord
100
AcDbLinetypeTableRecord
  2
ACAD_ISO15W100
 70
     0
  3
ISO double-dash triple-dot __ __ . . . __ __ . .
 72
    65
 73
    10
 40
39.0
 49
12.0
 74
     0
 49
-3.0
 74
     0
 49
12.0
 74
     0
 49
-3.0
 74
     0
 49
0.0
 74
     0
 49
-3.0
 74
     0
 49
0.0
 74
     0
 49
-3.0
 74
     0
 49
0.0
 74
     0
 49
-3.0
 74
     0
  0
LTYPE
  5
55C
330
498
100
AcDbSymbolTableRecord
100
AcDbLinetypeTableRecord
  2
ACAD_ISO14W100
 70
     0
  3
ISO dash triple-dot __ . . . __ . . . __ . . . _
 72
    65
 73
     8
 40
24.0
 49
12.0
 74
     0
 49
-3.0
 74
     0
 49
0.0
 74
     0
 49
-3.0
 74
     0
 49
0.0
 74
     0
 49
-3.0
 74
     0
 49
0.0
 74
     0
 49
-3.0
 74
     0
  0
LTYPE
  5
55D
330
498
100
AcDbSymbolTableRecord
100
AcDbLinetypeTableRecord
  2
ACAD_ISO13W100
 70
     0
  3
ISO double-dash double-dot __ __ . . __ __ . . _
 72
    65
 73
     8
 40
36.0
 49
12.0
 74
     0
 49
-3.0
 74
     0
 49
12.0
 74
     0
 49
-3.0
 74
     0
 49
0.0
 74
     0
 49
-3.0
 74
     0
 49
0.0
 74
     0
 49
-3.0
 74
     0
  0
LTYPE
  5
55E
330
498
100
AcDbSymbolTableRecord
100
AcDbLinetypeTableRecord
  2
ACAD_ISO12W100
 70
     0
  3
ISO dash double-dot __ . . __ . . __ . . __ . . 
 72
    65
 73
     6
 40
21.0
 49
12.0
 74
     0
 49
-3.0
 74
     0
 49
0.0
 74
     0
 49
-3.0
 74
     0
 49
0.0
 74
     0
 49
-3.0
 74
     0
  0
LTYPE
  5
55F
330
498
100
AcDbSymbolTableRecord
100
AcDbLinetypeTableRecord
  2
ACAD_ISO11W100
 70
     0
  3
ISO double-dash dot __ __ . __ __ . __ __ . __ _
 72
    65
 73
     6
 40
33.0
 49
12.0
 74
     0
 49
-3.0
 74
     0
 49
12.0
 74
     0
 49
-3.0
 74
     0
 49
0.0
 74
     0
 49
-3.0
 74
     0
  0
LTYPE
  5
560
330
498
100
AcDbSymbolTableRecord
100
AcDbLinetypeTableRecord
  2
ACAD_ISO10W100
 70
     0
  3
ISO dash dot __ . __ . __ . __ . __ . __ . __ . 
 72
    65
 73
     4
 40
18.0
 49
12.0
 74
     0
 49
-3.0
 74
     0
 49
0.0
 74
     0
 49
-3.0
 74
     0
  0
LTYPE
  5
561
330
498
100
AcDbSymbolTableRecord
100
AcDbLinetypeTableRecord
  2
ACAD_ISO09W100
 70
     0
  3
ISO long-dash double-short-dash ____ __ __ ____
 72
    65
 73
     6
 40
45.0
 49
24.0
 74
     0
 49
-3.0
 74
     0
 49
6.0
 74
     0
 49
-3.0
 74
     0
 49
6.0
 74
     0
 49
-3.0
 74
     0
  0
LTYPE
  5
562
330
498
100
AcDbSymbolTableRecord
100
AcDbLinetypeTableRecord
  2
ACAD_ISO08W100
 70
     0
  3
ISO long-dash short-dash ____ __ ____ __ ____ _
 72
    65
 73
     4
 40
36.0
 49
24.0
 74
     0
 49
-3.0
 74
     0
 49
6.0
 74
     0
 49
-3.0
 74
     0
  0
LTYPE
  5
563
330
498
100
AcDbSymbolTableRecord
100
AcDbLinetypeTableRecord
  2
ACAD_ISO07W100
 70
     0
  3
ISO dot . . . . . . . . . . . . . . . . . . . . 
 72
    65
 73
     2
 40
3.0
 49
0.0
 74
     0
 49
-3.0
 74
     0
  0
LTYPE
  5
564
330
498
100
AcDbSymbolTableRecord
100
AcDbLinetypeTableRecord
  2
ACAD_ISO06W100
 70
     0
  3
ISO long-dash triple-dot ____ ... ____ ... ____
 72
    65
 73
     8
 40
36.0
 49
24.0
 74
     0
 49
-3.0
 74
     0
 49
0.0
 74
     0
 49
-3.0
 74
     0
 49
0.0
 74
     0
 49
-3.0
 74
     0
 49
0.0
 74
     0
 49
-3.0
 74
     0
  0
LTYPE
  5
565
330
498
100
AcDbSymbolTableRecord
100
AcDbLinetypeTableRecord
  2
ACAD_ISO05W100
 70
     0
  3
ISO long-dash double-dot ____ .. ____ .. ____ . 
 72
    65
 73
     6
 40
33.0
 49
24.0
 74
     0
 49
-3.0
 74
     0
 49
0.0
 74
     0
 49
-3.0
 74
     0
 49
0.0
 74
     0
 49
-3.0
 74
     0
  0
LTYPE
  5
566
330
498
100
AcDbSymbolTableRecord
100
AcDbLinetypeTableRecord
  2
ACAD_ISO04W100
 70
     0
  3
ISO long-dash dot ____ . ____ . ____ . ____ . _
 72
    65
 73
     4
 40
30.0
 49
24.0
 74
     0
 49
-3.0
 74
     0
 49
0.0
 74
     0
 49
-3.0
 74
     0
  0
LTYPE
  5
567
330
498
100
AcDbSymbolTableRecord
100
AcDbLinetypeTableRecord
  2
ACAD_ISO03W100
 70
     0
  3
ISO dash space __    __    __    __    __    __
 72
    65
 73
     2
 40
30.0
 49
12.0
 74
     0
 49
-18.0
 74
     0
  0
LTYPE
  5
568
330
498
100
AcDbSymbolTableRecord
100
AcDbLinetypeTableRecord
  2
ACAD_ISO02W100
 70
     0
  3
ISO dash __ __ __ __ __ __ __ __ __ __ __ __ __
 72
    65
 73
     2
 40
15.0
 49
12.0
 74
     0
 49
-3.0
 74
     0
  0
LTYPE
  5
56B
330
498
100
AcDbSymbolTableRecord
100
AcDbLinetypeTableRecord
  2
ZIGZAG
 70
     0
  3
Zig zag /\/\/\/\/\/\/\/\/\/\/\/\/\/\/\/\/\/\/\/\/\/\/\/
 72
    65
 73
     4
 40
20.32254
 49
0.00254
 74
     0
 49
-5.08
 74
     2
 75
     0
340
569
 46
5.08
 50
0.0
 44
-5.08
 45
0.0
  9
ZIG
 49
-10.16
 74
     2
 75
     0
340
56A
 46
5.08
 50
180.0
 44
5.08
 45
0.0
  9
ZIG
 49
-5.08
 74
     0
  0
LTYPE
  5
56D
330
498
100
AcDbSymbolTableRecord
100
AcDbLinetypeTableRecord
  2
TRACKS
 70
     0
  3
Tracks -|-|-|-|-|-|-|-|-|-|-|-|-|-|-|-|-|-|-|-|-|-|-|-|-
 72
    65
 73
     2
 40
7.62
 49
3.81
 74
     2
 75
     0
340
56C
 46
6.35
 50
0.0
 44
0.0
 45
0.0
  9
TRACK1
 49
3.81
 74
     0
  0
LTYPE
  5
56E
330
498
100
AcDbSymbolTableRecord
100
AcDbLinetypeTableRecord
  2
PHANTOMX2
 70
     0
  3
Phantom (2x) ____________    ____    ____   _
 72
    65
 73
     6
 40
127.0
 49
63.5
 74
     0
 49
-12.7
 74
     0
 49
12.7
 74
     0
 49
-12.7
 74
     0
 49
12.7
 74
     0
 49
-12.7
 74
     0
  0
LTYPE
  5
56F
330
498
100
AcDbSymbolTableRecord
100
AcDbLinetypeTableRecord
  2
PHANTOM2
 70
     0
  3
Phantom (.5x) ___ _ _ ___ _ _ ___ _ _ ___ _ _
 72
    65
 73
     6
 40
31.75
 49
15.875
 74
     0
 49
-3.175
 74
     0
 49
3.175
 74
     0
 49
-3.175
 74
     0
 49
3.175
 74
     0
 49
-3.175
 74
     0
  0
ENDTAB
  0
TABLE
  2
LAYER
  5
495
330
0
100
AcDbSymbolTable
 70
    11
  0
LAYER
  5
4A3
330
495
100
AcDbSymbolTableRecord
100
AcDbLayerTableRecord
  2
0
 70
     0
 62
    18
420
        0
  6
Continuous
370
    25
390
4A2
347
4D8
348
0
  0
LAYER
  5
570
330
495
100
AcDbSymbolTableRecord
100
AcDbLayerTableRecord
  2
ToolPath2
 70
     0
 62
     3
420
    65280
  6
Continuous
370
     0
390
4A2
347
4D8
348
0
  0
LAYER
  5
571
330
495
100
AcDbSymbolTableRecord
100
AcDbLayerTableRecord
  2
PunchPorts
 70
     0
 62
    96
420
    32768
  6
Continuous
370
    -3
390
4A2
347
4D8
348
0
  0
LAYER
  5
572
330
495
100
AcDbSymbolTableRecord
100
AcDbLayerTableRecord
  2
MotorPlate
 70
     1
 62
    18
420
        0
  6
Continuous
370
    -3
390
4A2
347
4D8
348
0
  0
LAYER
  5
573
330
495
100
AcDbSymbolTableRecord
100
AcDbLayerTableRecord
  2
BallGuide
 70
     1
 62
   216
420
  8388736
  6
Continuous
370
    -3
390
4A2
347
4D8
348
0
  0
LAYER
  5
574
330
495
100
AcDbSymbolTableRecord
100
AcDbLayerTableRecord
  2
ToolPath1
 70
     0
 62
     1
420
 16711680
  6
Continuous
370
     0
390
4A2
347
4D8
348
0
  0
LAYER
  5
575
330
495
100
AcDbSymbolTableRecord
100
AcDbLayerTableRecord
  2
Ball
 70
     1
 62
     5
420
      255
  6
Continuous
370
     0
390
4A2
347
4D8
348
0
  0
LAYER
  5
576
330
495
100
AcDbSymbolTableRecord
100
AcDbLayerTableRecord
  2
Plate
 70
     0
 62
    18
420
        0
  6
Continuous
370
     0
390
4A2
347
4D8
348
0
  0
LAYER
  5
577
330
495
100
AcDbSymbolTableRecord
100
AcDbLayerTableRecord
  2
Fluidic
 70
     0
 62
     4
420
    65535
  6
Continuous
370
    -3
390
4A2
347
4D8
348
0
  0
LAYER
  5
578
330
495
100
AcDbSymbolTableRecord
100
AcDbLayerTableRecord
  2
Extrusion
 70
     1
 62
     4
420
    65535
  6
Continuous
370
    -3
390
4A2
347
4D8
348
0
  0
LAYER
  5
579
330
495
100
AcDbSymbolTableRecord
100
AcDbLayerTableRecord
  2
Hardware
 70
     1
 62
    30
420
 16744192
  6
Continuous
370
    -3
390
4A2
347
4D8
348
0
  0
ENDTAB
  0
TABLE
  2
STYLE
  5
496
330
0
100
AcDbSymbolTable
 70
    15
  0
STYLE
  5
4A4
330
496
100
AcDbSymbolTableRecord
100
AcDbTextStyleTableRecord
  2
Standard
 70
     0
 40
0.0
 41
1.0
 50
0.0
 71
     0
 42
0.2
  3
txt
  4

  0
STYLE
  5
534
330
496
100
AcDbSymbolTableRecord
100
AcDbTextStyleTableRecord
  2
QCADDimTextStyle
 70
     0
 40
0.0
 41
1.0
 50
0.0
 71
     0
 42
0.2
  3

  4

  0
STYLE
  5
537
330
496
100
AcDbSymbolTableRecord
100
AcDbTextStyleTableRecord
  2
textstyle0
 70
     0
 40
0.0
 41
1.0
 50
0.0
 71
     0
 42
0.2
  3
STANDARD
  4

  0
STYLE
  5
53C
330
496
100
AcDbSymbolTableRecord
100
AcDbTextStyleTableRecord
  2
textstyle1
 70
     0
 40
0.0
 41
1.0
 50
0.0
 71
     0
 42
0.2
  3
STANDARD
  4

  0
STYLE
  5
53E
330
496
100
AcDbSymbolTableRecord
100
AcDbTextStyleTableRecord
  2
textstyle2
 70
     0
 40
0.0
 41
1.0
 50
0.0
 71
     0
 42
0.2
  3
ltypeshp.shx
  4

  0
STYLE
  5
540
330
496
100
AcDbSymbolTableRecord
100
AcDbTextStyleTableRecord
  2
textstyle3
 70
     0
 40
0.0
 41
1.0
 50
0.0
 71
     0
 42
0.2
  3
ltypeshp.shx
  4

  0
STYLE
  5
542
330
496
100
AcDbSymbolTableRecord
100
AcDbTextStyleTableRecord
  2
textstyle4
 70
     0
 40
0.0
 41
1.0
 50
0.0
 71
     0
 42
0.2
  3
qcadshp.shx
  4

  0
STYLE
  5
544
330
496
100
AcDbSymbolTableRecord
100
AcDbTextStyleTableRecord
  2
textstyle5
 70
     0
 40
0.0
 41
1.0
 50
0.0
 71
     0
 42
0.2
  3
qcadshp.shx
  4

  0
STYLE
  5
558
330
496
100
AcDbSymbolTableRecord
100
AcDbTextStyleTableRecord
  2
textstyle6
 70
     0
 40
0.0
 41
1.0
 50
0.0
 71
     0
 42
0.2
  3
ltypeshp.shx
  4

  0
STYLE
  5
559
330
496
100
AcDbSymbolTableRecord
100
AcDbTextStyleTableRecord
  2
textstyle7
 70
     0
 40
0.0
 41
1.0
 50
0.0
 71
     0
 42
0.2
  3
ltypeshp.shx
  4

  0
STYLE
  5
569
330
496
100
AcDbSymbolTableRecord
100
AcDbTextStyleTableRecord
  2
textstyle8
 70
     0
 40
0.0
 41
1.0
 50
0.0
 71
     0
 42
0.2
  3
ltypeshp.shx
  4

  0
STYLE
  5
56A
330
496
100
AcDbSymbolTableRecord
100
AcDbTextStyleTableRecord
  2
textstyle9
 70
     0
 40
0.0
 41
1.0
 50
0.0
 71
     0
 42
0.2
  3
ltypeshp.shx
  4

  0
STYLE
  5
56C
330
496
100
AcDbSymbolTableRecord
100
AcDbTextStyleTableRecord
  2
textstyle10
 70
     0
 40
0.0
 41
1.0
 50
0.0
 71
     0
 42
0.2
  3
ltypeshp.shx
  4

  0
STYLE
  5
57C
330
496
100
AcDbSymbolTableRecord
100
AcDbTextStyleTableRecord
  2
textstyle11
 70
     0
 40
0.0
 41
1.0
 50
0.0
 71
     0
 42
0.2
  3
RomanS
  4

1001
ACAD
1000
RomanS
1071
        0
  0
STYLE
  5
57D
330
496
100
AcDbSymbolTableRecord
100
AcDbTextStyleTableRecord
  2
textstyle12
 70
     0
 40
0.0
 41
1.0
 50
0.0
 71
     0
 42
0.2
  3
RomanS
  4

1001
ACAD
1000
RomanS
1071
        0
  0
ENDTAB
  0
TABLE
  2
VIEW
  5
499
330
0
100
AcDbSymbolTable
 70
     0
  0
ENDTAB
  0
TABLE
  2
UCS
  5
49A
330
0
100
AcDbSymbolTable
 70
     0
  0
ENDTAB
  0
TABLE
  2
APPID
  5
49C
330
0
100
AcDbSymbolTable
 70
     2
  0
APPID
  5
4A5
330
49C
100
AcDbSymbolTableRecord
100
AcDbRegAppTableRecord
  2
ACAD
 70
     0
  0
APPID
  5
500
330
49C
100
AcDbSymbolTableRecord
100
AcDbRegAppTableRecord
  2
QCAD
 70
     0
  0
ENDTAB
  0
TABLE
  2
DIMSTYLE
  5
49D
330
0
100
AcDbSymbolTable
 70
     2
100
AcDbDimStyleTable
  0
DIMSTYLE
105
4B9
330
49D
100
AcDbSymbolTableRecord
100
AcDbDimStyleTableRecord
  2
Standard
 70
     0
178
     0
340
4A4
  0
DIMSTYLE
105
535
102
{ACAD_REACTORS
330
46A
102
}
330
49D
100
AcDbSymbolTableRecord
100
AcDbDimStyleTableRecord
  2
QCADDimStyle
 70
     0
 41
2.5
 42
0.625
 44
1.25
 73
     0
 77
     1
140
2.5
147
0.625
178
     0
340
534
  0
ENDTAB
  0
TABLE
  2
BLOCK_RECORD
  5
494
330
0
100
AcDbSymbolTable
 70
     1
  0
BLOCK_RECORD
  5
4B1
330
494
100
AcDbSymbolTableRecord
100
AcDbBlockTableRecord
  2
*Model_Space
340
4B4
 70
     0
280
     1
281
     0
  0
BLOCK_RECORD
  5
4AD
330
494
100
AcDbSymbolTableRecord
100
AcDbBlockTableRecord
  2
*Paper_Space
340
4B0
 70
     0
280
     1
281
     0
  0
ENDTAB
  0
ENDSEC
  0
SECTION
  2
BLOCKS
  0
BLOCK
  5
4B2
330
4B1
100
AcDbEntity
  8
0
100
AcDbBlockBegin
  2
*Model_Space
 70
     0
 10
0.0
 20
0.0
 30
0.0
  3
*Model_Space
  1
*Model_Space
  0
ENDBLK
  5
4B3
330
4B1
100
AcDbEntity
  8
0
100
AcDbBlockEnd
  0
BLOCK
  5
4AE
330
4AD
100
AcDbEntity
 67
     1
  8
0
100
AcDbBlockBegin
  2
*Paper_Space
 70
     0
 10
0.0
 20
0.0
 30
0.0
  3
*Paper_Space
  1
*Paper_Space
  0
ENDBLK
  5
4AF
330
4AD
100
AcDbEntity
 67
     1
  8
0
100
AcDbBlockEnd
  0
ENDSEC
  0
SECTION
  2
ENTITIES
  0
CIRCLE
  5
35E
330
4B1
100
AcDbEntity
  8
Ball
100
AcDbCircle
 10
17.23246546059161
 20
-28.08547468569954
 30
0.0
 40
1.0
  0
CIRCLE
  5
35F
330
4B1
100
AcDbEntity
  8
Ball
100
AcDbCircle
 10
19.0119140146312
 20
-24.69501873407364
 30
0.0
 40
1.0
  0
CIRCLE
  5
360
330
4B1
100
AcDbEntity
  8
Ball
100
AcDbCircle
 10
22.1631609036597
 20
-22.51987005851669
 30
0.0
 40
1.0
  0
CIRCLE
  5
361
330
4B1
100
AcDbEntity
  8
Ball
100
AcDbCircle
 10
25.96429344204259
 20
-22.05832900721558
 30
0.0
 40
1.0
  0
CIRCLE
  5
362
330
4B1
100
AcDbEntity
  8
Ball
100
AcDbCircle
 10
29.54451797384931
 20
-23.41612907285077
 30
0.0
 40
1.0
  0
CIRCLE
  5
363
330
4B1
100
AcDbEntity
  8
Ball
100
AcDbCircle
 10
32.0836482052257
 20
-26.28221462364985
 30
0.0
 40
1.0
  0
CIRCLE
  5
364
330
4B1
100
AcDbEntity
  8
Ball
100
AcDbCircle
 10
33.0
 20
-30.0
 30
0.0
 40
1.0
  0
CIRCLE
  5
365
330
4B1
100
AcDbEntity
  8
Ball
100
AcDbCircle
 10
32.0836482052257
 20
-33.71778537635015
 30
0.0
 40
1.0
  0
CIRCLE
  5
366
330
4B1
100
AcDbEntity
  8
Ball
100
AcDbCircle
 10
29.5445179738492
 20
-36.58387092714926
 30
0.0
 40
1.0
  0
CIRCLE
  5
367
330
4B1
100
AcDbEntity
  8
Ball
100
AcDbCircle
 10
25.96429344204259
 20
-37.94167099278442
 30
0.0
 40
1.0
  0
CIRCLE
  5
368
330
4B1
100
AcDbEntity
  8
Ball
100
AcDbCircle
 10
22.1631609036597
 20
-37.48012994148332
 30
0.0
 40
1.0
  0
CIRCLE
  5
369
330
4B1
100
AcDbEntity
  8
Ball
100
AcDbCircle
 10
19.0119140146312
 20
-35.30498126592637
 30
0.0
 40
1.0
  0
CIRCLE
  5
36A
330
4B1
100
AcDbEntity
  8
Ball
100
AcDbCircle
 10
17.23246546059161
 20
-31.91452531430048
 30
0.0
 40
1.0
  0
CIRCLE
  5
36B
330
4B1
100
AcDbEntity
  8
Ball
100
AcDbCircle
 10
19.6872638460807
 20
-27.21166096773739
 30
0.0
 40
1.0
  0
CIRCLE
  5
36C
330
4B1
100
AcDbEntity
  8
Ball
100
AcDbCircle
 10
21.59161151961311
 20
-25.06209680463807
 30
0.0
 40
1.0
  0
CIRCLE
  5
36D
330
4B1
100
AcDbEntity
  8
Ball
100
AcDbCircle
 10
24.27677991846809
 20
-24.04374675541169
 30
0.0
 40
1.0
  0
CIRCLE
  5
36E
330
4B1
100
AcDbEntity
  8
Ball
100
AcDbCircle
 10
27.12762932225519
 20
-24.38990254388753
 30
0.0
 40
1.0
  0
CIRCLE
  5
36F
330
4B1
100
AcDbEntity
  8
Ball
100
AcDbCircle
 10
29.4910644890266
 20
-26.02126405055523
 30
0.0
 40
1.0
  0
CIRCLE
  5
370
330
4B1
100
AcDbEntity
  8
Ball
100
AcDbCircle
 10
30.82565090455631
 20
-28.56410601427466
 30
0.0
 40
1.0
  0
CIRCLE
  5
371
330
4B1
100
AcDbEntity
  8
Ball
100
AcDbCircle
 10
30.82565090455631
 20
-31.43589398572536
 30
0.0
 40
1.0
  0
CIRCLE
  5
372
330
4B1
100
AcDbEntity
  8
Ball
100
AcDbCircle
 10
29.4910644890266
 20
-33.97873594944478
 30
0.0
 40
1.0
  0
CIRCLE
  5
373
330
4B1
100
AcDbEntity
  8
Ball
100
AcDbCircle
 10
27.12762932225519
 20
-35.6100974561125
 30
0.0
 40
1.0
  0
CIRCLE
  5
374
330
4B1
100
AcDbEntity
  8
Ball
100
AcDbCircle
 10
24.27677991846809
 20
-35.95625324458831
 30
0.0
 40
1.0
  0
CIRCLE
  5
375
330
4B1
100
AcDbEntity
  8
Ball
100
AcDbCircle
 10
21.59161151961311
 20
-34.93790319536194
 30
0.0
 40
1.0
  0
CIRCLE
  5
376
330
4B1
100
AcDbEntity
  8
Ball
100
AcDbCircle
 10
19.6872638460807
 20
-32.78833903226263
 30
0.0
 40
1.0
  0
CIRCLE
  5
37A
330
4B1
100
AcDbEntity
  8
Ball
100
AcDbCircle
 10
-30.0
 20
-30.0
 30
0.0
 40
1.0
  0
CIRCLE
  5
37B
330
4B1
100
AcDbEntity
  8
Ball
100
AcDbCircle
 10
-27.5
 20
-25.66987298107781
 30
0.0
 40
1.0
  0
CIRCLE
  5
378
330
4B1
100
AcDbEntity
  8
Ball
100
AcDbCircle
 10
-22.5
 20
-25.66987298107781
 30
0.0
 40
1.0
  0
CIRCLE
  5
379
330
4B1
100
AcDbEntity
  8
Ball
100
AcDbCircle
 10
-20.0
 20
-30.0
 30
0.0
 40
1.0
  0
CIRCLE
  5
37C
330
4B1
100
AcDbEntity
  8
Ball
100
AcDbCircle
 10
-22.5
 20
-34.3301270189222
 30
0.0
 40
1.0
  0
CIRCLE
  5
377
330
4B1
100
AcDbEntity
  8
Ball
100
AcDbCircle
 10
-27.5
 20
-34.33012701892219
 30
0.0
 40
1.0
  0
LWPOLYLINE
  5
39
330
4B1
100
AcDbEntity
  8
Extrusion
100
AcDbPolyline
 90
        9
 70
   128
 43
0.0
 10
41.49999999999999
 20
-13.37500000000002
 10
41.5
 20
13.375
 42
0.414213562373095
 10
40.5
 20
14.375
 10
-40.49999999999999
 20
14.37500000000003
 42
0.414213562373095
 10
-41.49999999999999
 20
13.37500000000003
 10
-41.5
 20
-13.37499999999999
 42
0.414213562373095
 10
-40.5
 20
-14.37500000000001
 10
40.49999999999999
 20
-14.37500000000002
 42
0.414213562373095
 10
41.49999999999999
 20
-13.37500000000002
  0
LWPOLYLINE
  5
3B
330
4B1
100
AcDbEntity
  8
MotorPlate
100
AcDbPolyline
 90
        9
 70
   128
 43
0.0
 10
41.5
 20
-12.37500000000001
 10
41.50000000000001
 20
12.37499999999999
 42
0.414213562373095
 10
39.50000000000001
 20
14.37499999999996
 10
-39.49999999999999
 20
14.37500000000006
 42
0.414213562373095
 10
-41.5
 20
12.37500000000001
 10
-41.5
 20
-12.37500000000001
 42
0.414213562373095
 10
-39.5
 20
-14.375
 10
39.50000000000001
 20
-14.37499999999998
 42
0.414213562373095
 10
41.5
 20
-12.37500000000001
  0
CIRCLE
  5
3C
330
4B1
100
AcDbEntity
  8
MotorPlate
100
AcDbCircle
 10
-25.0
 20
0.0
 30
0.0
 40
8.0
  0
CIRCLE
  5
3D
330
4B1
100
AcDbEntity
  8
MotorPlate
100
AcDbCircle
 10
0.0
 20
0.0
 30
0.0
 40
8.0
  0
CIRCLE
  5
3E
330
4B1
100
AcDbEntity
  8
MotorPlate
100
AcDbCircle
 10
25.0
 20
0.0
 30
0.0
 40
8.0
  0
LWPOLYLINE
  5
3F
330
4B1
100
AcDbEntity
  8
Extrusion
100
AcDbPolyline
 90
       60
 70
   129
 43
0.0
 10
18.39644660940672
 20
12.625
 42
-0.1989123673796578
 10
18.57322330470336
 20
12.55177669529664
 10
18.80177669529665
 20
12.32322330470335
 42
0.1989123673796591
 10
18.97855339059328
 20
12.24999999999999
 10
35.37500000000001
 20
12.24999999999999
 10
36.26181994838621
 20
11.3631800516138
 42
0.5170560325475941
 10
36.98572714280012
 20
11.48669864510551
 42
-1.730417120512938
 10
38.08747678444544
 20
9.878406128679757
 42
0.6100453699224879
 10
37.84657622895904
 20
9.30449014976761
 10
38.8
 20
8.168243945364829
 10
38.8
 20
-2.775000000000033
 10
36.8
 20
-2.774999999999983
 10
36.8
 20
-3.975000000000013
 10
38.8
 20
-3.974999999999984
 10
38.8
 20
-5.774999999999984
 10
36.8
 20
-5.774999999999995
 10
36.8
 20
-6.974999999999991
 10
38.8
 20
-6.975000000000009
 10
38.8
 20
-8.974999999999973
 10
37.7
 20
-8.975000000000003
 42
0.4142135623731129
 10
37.34999999999999
 20
-9.324999999999987
 10
37.34999999999999
 20
-9.555830688596386
 42
0.4755583509273886
 10
37.77118644067797
 20
-9.89851493198033
 42
-3.05824021310674
 10
36.88083241256388
 20
-10.885593220339
 42
0.444375597229674
 10
36.53264694091708
 20
-10.49999999999998
 10
36.25
 20
-10.49999999999995
 42
0.4142135623730772
 10
35.9
 20
-10.84999999999997
 10
35.9
 20
-11.49999999999996
 10
35.5
 20
-11.49999999999998
 10
35.5
 20
-12.25
 10
-35.5
 20
-12.25
 10
-35.5
 20
-11.5
 10
-35.9
 20
-11.5
 10
-35.90000000000001
 20
-10.85
 42
0.4142135623730891
 10
-36.25
 20
-10.5
 10
-36.53264694091708
 20
-10.5
 42
0.4443755972296843
 10
-36.88083241256388
 20
-10.88559322033898
 42
-3.058240213106743
 10
-37.77118644067797
 20
-9.898514931980289
 42
0.4755583509274194
 10
-37.34999999999999
 20
-9.555830688596382
 10
-37.34999999999999
 20
-9.325000000000003
 42
0.414213562373101
 10
-37.7
 20
-8.975000000000001
 10
-38.8
 20
-8.975000000000001
 10
-38.8
 20
-6.975000000000001
 10
-36.8
 20
-6.975000000000001
 10
-36.8
 20
-5.775000000000001
 10
-38.8
 20
-5.775000000000002
 10
-38.8
 20
-3.975
 10
-36.8
 20
-3.975
 10
-36.8
 20
-2.775
 10
-38.8
 20
-2.775
 10
-38.8
 20
8.16824394536484
 10
-37.84657622895904
 20
9.30449014976761
 42
0.6100453699224798
 10
-38.08747678444544
 20
9.878406128679753
 42
-1.730417120512945
 10
-36.98572714280012
 20
11.48669864510552
 42
0.5170560325475918
 10
-36.26181994838621
 20
11.36318005161379
 10
-35.375
 20
12.25
 10
-18.97855339059328
 20
12.25
 42
0.1989123673796587
 10
-18.80177669529664
 20
12.32322330470336
 10
-18.57322330470336
 20
12.55177669529664
 42
-0.198912367379658
 10
-18.39644660940672
 20
12.625
  0
CIRCLE
  5
40
330
4B1
100
AcDbEntity
  8
MotorPlate
100
AcDbCircle
 10
38.0
 20
-10.99999999999999
 30
0.0
 40
1.25
  0
CIRCLE
  5
41
330
4B1
100
AcDbEntity
  8
MotorPlate
100
AcDbCircle
 10
38.00000000000001
 20
10.99999999999998
 30
0.0
 40
1.25
  0
CIRCLE
  5
42
330
4B1
100
AcDbEntity
  8
MotorPlate
100
AcDbCircle
 10
-38.0
 20
-10.99999999999998
 30
0.0
 40
1.25
  0
CIRCLE
  5
43
330
4B1
100
AcDbEntity
  8
MotorPlate
100
AcDbCircle
 10
-37.99999999999999
 20
11.00000000000003
 30
0.0
 40
1.25
  0
CIRCLE
  5
4D
330
4B1
100
AcDbEntity
  8
MotorPlate
100
AcDbCircle
 10
-32.7
 20
7.7
 30
0.0
 40
1.049999999999999
  0
CIRCLE
  5
4E
330
4B1
100
AcDbEntity
  8
MotorPlate
100
AcDbCircle
 10
-17.3
 20
7.7
 30
0.0
 40
1.050000000000001
  0
CIRCLE
  5
4F
330
4B1
100
AcDbEntity
  8
MotorPlate
100
AcDbCircle
 10
-32.7
 20
-7.7
 30
0.0
 40
1.049999999999999
  0
CIRCLE
  5
50
330
4B1
100
AcDbEntity
  8
MotorPlate
100
AcDbCircle
 10
-17.3
 20
-7.7
 30
0.0
 40
1.050000000000001
  0
CIRCLE
  5
51
330
4B1
100
AcDbEntity
  8
MotorPlate
100
AcDbCircle
 10
-7.7
 20
7.7
 30
0.0
 40
1.05
  0
CIRCLE
  5
52
330
4B1
100
AcDbEntity
  8
MotorPlate
100
AcDbCircle
 10
-7.7
 20
-7.7
 30
0.0
 40
1.05
  0
CIRCLE
  5
53
330
4B1
100
AcDbEntity
  8
MotorPlate
100
AcDbCircle
 10
7.7
 20
-7.7
 30
0.0
 40
1.05
  0
CIRCLE
  5
54
330
4B1
100
AcDbEntity
  8
MotorPlate
100
AcDbCircle
 10
7.7
 20
7.7
 30
0.0
 40
1.05
  0
CIRCLE
  5
55
330
4B1
100
AcDbEntity
  8
MotorPlate
100
AcDbCircle
 10
17.3
 20
7.7
 30
0.0
 40
1.050000000000001
  0
CIRCLE
  5
56
330
4B1
100
AcDbEntity
  8
MotorPlate
100
AcDbCircle
 10
32.7
 20
7.7
 30
0.0
 40
1.049999999999999
  0
CIRCLE
  5
57
330
4B1
100
AcDbEntity
  8
MotorPlate
100
AcDbCircle
 10
32.7
 20
-7.7
 30
0.0
 40
1.049999999999999
  0
CIRCLE
  5
58
330
4B1
100
AcDbEntity
  8
MotorPlate
100
AcDbCircle
 10
17.3
 20
-7.7
 30
0.0
 40
1.050000000000001
  0
LWPOLYLINE
  5
197
330
4B1
100
AcDbEntity
  8
BallGuide
100
AcDbPolyline
 90
        2
 70
   128
 43
0.0
 10
-34.5
 20
-13.875
 10
34.5
 20
-13.87499999999998
  0
LWPOLYLINE
  5
198
330
4B1
100
AcDbEntity
  8
BallGuide
100
AcDbPolyline
 90
        2
 70
   128
 43
0.0
 10
40.99999999999999
 20
-7.499999999999996
 10
41.00000000000001
 20
7.499999999999976
  0
LWPOLYLINE
  5
199
330
4B1
100
AcDbEntity
  8
BallGuide
100
AcDbPolyline
 90
        2
 70
   128
 43
0.0
 10
-41.0
 20
7.58289865503165
 10
-41.0
 20
-7.5013275982031
  0
LWPOLYLINE
  5
19A
330
4B1
100
AcDbEntity
  8
BallGuide
100
AcDbPolyline
 90
        2
 70
   128
 43
0.0
 10
34.50000000000001
 20
13.87499999999997
 10
-34.49999999999999
 20
13.87500000000005
  0
LINE
  5
19B
330
4B1
100
AcDbEntity
  8
BallGuide
100
AcDbLine
 10
35.50000000000001
 20
10.99999999999998
 30
0.0
 11
35.50000000000001
 21
12.87499999999997
 31
0.0
  0
LINE
  5
19C
330
4B1
100
AcDbEntity
  8
BallGuide
100
AcDbLine
 10
-35.49999999999999
 20
11.08289865503165
 30
0.0
 11
-35.49999999999999
 21
12.87500000000005
 31
0.0
  0
LINE
  5
19D
330
4B1
100
AcDbEntity
  8
BallGuide
100
AcDbLine
 10
-35.5
 20
-12.875
 30
0.0
 11
-35.5
 21
-11.0013275982031
 31
0.0
  0
LINE
  5
19E
330
4B1
100
AcDbEntity
  8
BallGuide
100
AcDbLine
 10
35.5
 20
-12.87499999999998
 30
0.0
 11
35.5
 21
-10.99999999999999
 31
0.0
  0
LINE
  5
19F
330
4B1
100
AcDbEntity
  8
BallGuide
100
AcDbLine
 10
-40.0
 20
8.582898655031649
 30
0.0
 11
-37.99999999999999
 21
8.582898655031649
 31
0.0
  0
LINE
  5
1A0
330
4B1
100
AcDbEntity
  8
BallGuide
100
AcDbLine
 10
-40.0
 20
-8.501327598203101
 30
0.0
 11
-38.0
 21
-8.501327598203101
 31
0.0
  0
LINE
  5
1A1
330
4B1
100
AcDbEntity
  8
BallGuide
100
AcDbLine
 10
38.00000000000001
 20
8.499999999999977
 30
0.0
 11
40.00000000000001
 21
8.499999999999977
 31
0.0
  0
LINE
  5
1A2
330
4B1
100
AcDbEntity
  8
BallGuide
100
AcDbLine
 10
38.0
 20
-8.499999999999995
 30
0.0
 11
39.99999999999999
 21
-8.499999999999995
 31
0.0
  0
ARC
  5
1A3
330
4B1
100
AcDbEntity
  8
BallGuide
100
AcDbCircle
 10
-34.49999999999999
 20
12.87500000000005
 30
0.0
 40
1.0
100
AcDbArc
 50
90.0
 51
180.0
  0
ARC
  5
1A4
330
4B1
100
AcDbEntity
  8
BallGuide
100
AcDbCircle
 10
-40.0
 20
7.58289865503165
 30
0.0
 40
1.0
100
AcDbArc
 50
90.0
 51
180.0
  0
CIRCLE
  5
1A5
330
4B1
100
AcDbEntity
  8
BallGuide
100
AcDbCircle
 10
-25.0
 20
0.0
 30
0.0
 40
2.0
  0
ARC
  5
1A6
330
4B1
100
AcDbEntity
  8
BallGuide
100
AcDbCircle
 10
-40.0
 20
-7.501327598203101
 30
0.0
 40
1.0
100
AcDbArc
 50
180.0
 51
270.0
  0
ARC
  5
1A7
330
4B1
100
AcDbEntity
  8
BallGuide
100
AcDbCircle
 10
-34.5
 20
-12.875
 30
0.0
 40
1.0
100
AcDbArc
 50
180.0
 51
270.0
  0
ARC
  5
1A8
330
4B1
100
AcDbEntity
  8
BallGuide
100
AcDbCircle
 10
34.5
 20
-12.87499999999998
 30
0.0
 40
1.0
100
AcDbArc
 50
270.0
 51
0.0
  0
ARC
  5
1A9
330
4B1
100
AcDbEntity
  8
BallGuide
100
AcDbCircle
 10
39.99999999999999
 20
-7.499999999999995
 30
0.0
 40
1.0
100
AcDbArc
 50
270.0
 51
0.0
  0
ARC
  5
1AA
330
4B1
100
AcDbEntity
  8
BallGuide
100
AcDbCircle
 10
40.00000000000001
 20
7.499999999999977
 30
0.0
 40
1.0
100
AcDbArc
 50
0.0
 51
90.0
  0
ARC
  5
1AB
330
4B1
100
AcDbEntity
  8
BallGuide
100
AcDbCircle
 10
34.50000000000001
 20
12.87499999999997
 30
0.0
 40
1.0
100
AcDbArc
 50
0.0
 51
90.0
  0
ARC
  5
1AC
330
4B1
100
AcDbEntity
  8
BallGuide
100
AcDbCircle
 10
-37.99999999999999
 20
11.08289865503165
 30
0.0
 40
2.5
100
AcDbArc
 50
270.0
 51
0.0
  0
ARC
  5
1AD
330
4B1
100
AcDbEntity
  8
BallGuide
100
AcDbCircle
 10
-38.0
 20
-11.0013275982031
 30
0.0
 40
2.5
100
AcDbArc
 50
0.0
 51
90.0
  0
ARC
  5
1AE
330
4B1
100
AcDbEntity
  8
BallGuide
100
AcDbCircle
 10
38.0
 20
-10.99999999999999
 30
0.0
 40
2.5
100
AcDbArc
 50
90.0
 51
180.0
  0
ARC
  5
1AF
330
4B1
100
AcDbEntity
  8
BallGuide
100
AcDbCircle
 10
38.00000000000001
 20
10.99999999999998
 30
0.0
 40
2.5
100
AcDbArc
 50
180.0
 51
270.0
  0
CIRCLE
  5
1B0
330
4B1
100
AcDbEntity
  8
BallGuide
100
AcDbCircle
 10
25.0
 20
0.0
 30
0.0
 40
2.0
  0
CIRCLE
  5
1B1
330
4B1
100
AcDbEntity
  8
BallGuide
100
AcDbCircle
 10
17.23246546059158
 20
1.914525314300469
 30
0.0
 40
1.0
  0
CIRCLE
  5
1B2
330
4B1
100
AcDbEntity
  8
BallGuide
100
AcDbCircle
 10
19.01191401463119
 20
5.304981265926365
 30
0.0
 40
1.0
  0
CIRCLE
  5
1B3
330
4B1
100
AcDbEntity
  8
BallGuide
100
AcDbCircle
 10
22.1631609036597
 20
7.48012994148332
 30
0.0
 40
1.0
  0
CIRCLE
  5
1B4
330
4B1
100
AcDbEntity
  8
BallGuide
100
AcDbCircle
 10
25.96429344204259
 20
7.941670992784431
 30
0.0
 40
1.0
  0
CIRCLE
  5
1B5
330
4B1
100
AcDbEntity
  8
BallGuide
100
AcDbCircle
 10
29.54451797384925
 20
6.583870927149242
 30
0.0
 40
1.0
  0
CIRCLE
  5
1B6
330
4B1
100
AcDbEntity
  8
BallGuide
100
AcDbCircle
 10
32.0836482052257
 20
3.71778537635015
 30
0.0
 40
1.0
  0
CIRCLE
  5
1B7
330
4B1
100
AcDbEntity
  8
BallGuide
100
AcDbCircle
 10
33.0
 20
0.0
 30
0.0
 40
1.0
  0
CIRCLE
  5
1B8
330
4B1
100
AcDbEntity
  8
BallGuide
100
AcDbCircle
 10
32.0836482052257
 20
-3.71778537635015
 30
0.0
 40
1.0
  0
CIRCLE
  5
1B9
330
4B1
100
AcDbEntity
  8
BallGuide
100
AcDbCircle
 10
29.54451797384924
 20
-6.583870927149256
 30
0.0
 40
1.0
  0
CIRCLE
  5
1BA
330
4B1
100
AcDbEntity
  8
BallGuide
100
AcDbCircle
 10
25.96429344204259
 20
-7.94167099278441
 30
0.0
 40
1.0
  0
CIRCLE
  5
1BB
330
4B1
100
AcDbEntity
  8
BallGuide
100
AcDbCircle
 10
22.1631609036597
 20
-7.480129941483312
 30
0.0
 40
1.0
  0
CIRCLE
  5
1BC
330
4B1
100
AcDbEntity
  8
BallGuide
100
AcDbCircle
 10
19.01191401463119
 20
-5.304981265926365
 30
0.0
 40
1.0
  0
CIRCLE
  5
1BD
330
4B1
100
AcDbEntity
  8
BallGuide
100
AcDbCircle
 10
17.23246546059158
 20
-1.914525314300462
 30
0.0
 40
1.0
  0
CIRCLE
  5
1BE
330
4B1
100
AcDbEntity
  8
BallGuide
100
AcDbCircle
 10
19.68726384608074
 20
2.78833903226262
 30
0.0
 40
1.0
  0
CIRCLE
  5
1BF
330
4B1
100
AcDbEntity
  8
BallGuide
100
AcDbCircle
 10
21.59161151961307
 20
4.937903195361933
 30
0.0
 40
1.0
  0
CIRCLE
  5
1C0
330
4B1
100
AcDbEntity
  8
BallGuide
100
AcDbCircle
 10
24.27677991846807
 20
5.956253244588318
 30
0.0
 40
1.0
  0
CIRCLE
  5
1C1
330
4B1
100
AcDbEntity
  8
BallGuide
100
AcDbCircle
 10
27.12762932225522
 20
5.610097456112477
 30
0.0
 40
1.0
  0
CIRCLE
  5
1C2
330
4B1
100
AcDbEntity
  8
BallGuide
100
AcDbCircle
 10
29.4910644890266
 20
3.978735949444768
 30
0.0
 40
1.0
  0
CIRCLE
  5
1C3
330
4B1
100
AcDbEntity
  8
BallGuide
100
AcDbCircle
 10
30.82565090455631
 20
1.43589398572535
 30
0.0
 40
1.0
  0
CIRCLE
  5
1C4
330
4B1
100
AcDbEntity
  8
BallGuide
100
AcDbCircle
 10
30.82565090455631
 20
-1.435893985725343
 30
0.0
 40
1.0
  0
CIRCLE
  5
1C5
330
4B1
100
AcDbEntity
  8
BallGuide
100
AcDbCircle
 10
29.49106448902661
 20
-3.978735949444776
 30
0.0
 40
1.0
  0
CIRCLE
  5
1C6
330
4B1
100
AcDbEntity
  8
BallGuide
100
AcDbCircle
 10
27.12762932225522
 20
-5.610097456112491
 30
0.0
 40
1.0
  0
CIRCLE
  5
1C7
330
4B1
100
AcDbEntity
  8
BallGuide
100
AcDbCircle
 10
24.27677991846807
 20
-5.956253244588311
 30
0.0
 40
1.0
  0
CIRCLE
  5
1C8
330
4B1
100
AcDbEntity
  8
BallGuide
100
AcDbCircle
 10
21.59161151961307
 20
-4.93790319536194
 30
0.0
 40
1.0
  0
CIRCLE
  5
1C9
330
4B1
100
AcDbEntity
  8
BallGuide
100
AcDbCircle
 10
19.68726384608074
 20
-2.788339032262613
 30
0.0
 40
1.0
  0
CIRCLE
  5
1CA
330
4B1
100
AcDbEntity
  8
BallGuide
100
AcDbCircle
 10
-30.0
 20
0.0
 30
0.0
 40
1.0
  0
CIRCLE
  5
1CB
330
4B1
100
AcDbEntity
  8
BallGuide
100
AcDbCircle
 10
-22.5
 20
4.330127018922192
 30
0.0
 40
1.0
  0
CIRCLE
  5
1CE
330
4B1
100
AcDbEntity
  8
BallGuide
100
AcDbCircle
 10
-27.5
 20
4.330127018922195
 30
0.0
 40
1.0
  0
CIRCLE
  5
1CF
330
4B1
100
AcDbEntity
  8
BallGuide
100
AcDbCircle
 10
-22.5
 20
-4.330127018922195
 30
0.0
 40
1.0
  0
CIRCLE
  5
1CC
330
4B1
100
AcDbEntity
  8
BallGuide
100
AcDbCircle
 10
-20.0
 20
-0.0000000000000012
 30
0.0
 40
1.0
  0
CIRCLE
  5
1CD
330
4B1
100
AcDbEntity
  8
BallGuide
100
AcDbCircle
 10
-27.5
 20
-4.330127018922192
 30
0.0
 40
1.0
  0
LWPOLYLINE
  5
492
330
4B1
100
AcDbEntity
  8
Fluidic
100
AcDbPolyline
 90
       16
 70
   129
 43
0.0
 10
-34.5
 20
11.31818181818183
 10
-34.5
 20
13.0
 42
-0.414213562373095
 10
-33.5
 20
14.0
 10
63.0
 20
14.0
 42
-0.414213562373095
 10
64.0
 20
13.0
 10
64.0
 20
-13.0
 42
-0.414213562373095
 10
63.0
 20
-14.0
 10
-33.5
 20
-14.0
 42
-0.414213562373095
 10
-34.5
 20
-13.0
 10
-34.5
 20
-11.31818181818182
 42
0.441135471597383
 10
-37.98550718412378
 20
-7.5
 10
-52.98550718412378
 20
-7.5
 42
-0.414213562373095
 10
-54.98550718412378
 20
-5.5
 10
-54.98550718412378
 20
5.5
 42
-0.414213562373095
 10
-52.98550718412378
 20
7.5
 10
-37.98550718412378
 20
7.5
 42
0.441135471597383
  0
LINE
  5
87
330
4B1
100
AcDbEntity
  8
ToolPath2
100
AcDbLine
 10
-51.0
 20
6.0
 30
0.0
 11
-38.0
 21
6.0
 31
0.0
  0
LINE
  5
88
330
4B1
100
AcDbEntity
  8
ToolPath2
100
AcDbLine
 10
-51.0
 20
2.0
 30
0.0
 11
-38.0
 21
2.0
 31
0.0
  0
LINE
  5
89
330
4B1
100
AcDbEntity
  8
ToolPath2
100
AcDbLine
 10
-51.0
 20
-2.0
 30
0.0
 11
-38.0
 21
-2.0
 31
0.0
  0
LINE
  5
8A
330
4B1
100
AcDbEntity
  8
ToolPath2
100
AcDbLine
 10
-53.0
 20
4.0
 30
0.0
 11
-38.0
 21
4.000000000000002
 31
0.0
  0
LINE
  5
8B
330
4B1
100
AcDbEntity
  8
ToolPath2
100
AcDbLine
 10
-53.0
 20
-4.0
 30
0.0
 11
-38.0
 21
-4.0
 31
0.0
  0
LINE
  5
8C
330
4B1
100
AcDbEntity
  8
ToolPath2
100
AcDbLine
 10
-51.0
 20
-6.0
 30
0.0
 11
-38.0
 21
-6.0
 31
0.0
  0
CIRCLE
  5
93
330
4B1
100
AcDbEntity
  8
PunchPorts
100
AcDbCircle
 10
-53.0
 20
0.0
 30
0.0
 40
0.7000000000000028
  0
CIRCLE
  5
94
330
4B1
100
AcDbEntity
  8
PunchPorts
100
AcDbCircle
 10
-51.0
 20
2.0
 30
0.0
 40
0.7000000000000028
  0
CIRCLE
  5
95
330
4B1
100
AcDbEntity
  8
PunchPorts
100
AcDbCircle
 10
-53.0
 20
4.0
 30
0.0
 40
0.7000000000000028
  0
CIRCLE
  5
96
330
4B1
100
AcDbEntity
  8
PunchPorts
100
AcDbCircle
 10
-51.0
 20
-2.0
 30
0.0
 40
0.7000000000000028
  0
CIRCLE
  5
97
330
4B1
100
AcDbEntity
  8
PunchPorts
100
AcDbCircle
 10
-53.0
 20
-4.0
 30
0.0
 40
0.7000000000000028
  0
CIRCLE
  5
98
330
4B1
100
AcDbEntity
  8
PunchPorts
100
AcDbCircle
 10
-51.0
 20
6.0
 30
0.0
 40
0.7000000000000028
  0
CIRCLE
  5
99
330
4B1
100
AcDbEntity
  8
PunchPorts
100
AcDbCircle
 10
-51.0
 20
-6.0
 30
0.0
 40
0.7000000000000028
  0
ARC
  5
9C
330
4B1
100
AcDbEntity
  8
ToolPath2
100
AcDbCircle
 10
-38.0
 20
11.00000000000001
 30
0.0
 40
5.0
100
AcDbArc
 50
270.0
 51
0.0
  0
ARC
  5
9D
330
4B1
100
AcDbEntity
  8
ToolPath2
100
AcDbCircle
 10
-38.0
 20
-11.0
 30
0.0
 40
5.0
100
AcDbArc
 50
0.0
 51
90.0
  0
ARC
  5
9E
330
4B1
100
AcDbEntity
  8
ToolPath2
100
AcDbCircle
 10
-38.0
 20
11.0
 30
0.0
 40
7.0
100
AcDbArc
 50
270.0
 51
345.5224878140701
  0
ARC
  5
9F
330
4B1
100
AcDbEntity
  8
ToolPath2
100
AcDbCircle
 10
-38.0
 20
-11.0
 30
0.0
 40
7.0
100
AcDbArc
 50
14.47751218592994
 51
90.0
  0
ARC
  5
A0
330
4B1
100
AcDbEntity
  8
ToolPath2
100
AcDbCircle
 10
-38.0
 20
11.0
 30
0.0
 40
9.0
100
AcDbArc
 50
270.0
 51
328.4136020625526
  0
ARC
  5
A1
330
4B1
100
AcDbEntity
  8
ToolPath2
100
AcDbCircle
 10
-38.0
 20
-11.0
 30
0.0
 40
9.0
100
AcDbArc
 50
31.58639793744733
 51
90.0
  0
LINE
  5
A2
330
4B1
100
AcDbEntity
  8
ToolPath2
100
AcDbLine
 10
-21.38397459621557
 20
-6.263139720814414
 30
0.0
 11
-22.0
 21
-5.196152422706634
 31
0.0
  0
LINE
  5
A3
330
4B1
100
AcDbEntity
  8
ToolPath2
100
AcDbLine
 10
-28.61546154819963
 20
6.26216309429338
 30
0.0
 11
-28.00000000000001
 21
5.196152422706628
 31
0.0
  0
LINE
  5
A4
330
4B1
100
AcDbEntity
  8
ToolPath2
100
AcDbLine
 10
-21.38397459621557
 20
6.263139720814414
 30
0.0
 11
-22.0
 21
5.196152422706634
 31
0.0
  0
LINE
  5
A5
330
4B1
100
AcDbEntity
  8
ToolPath2
100
AcDbLine
 10
-28.61546154819963
 20
-6.262163094293383
 30
0.0
 11
-28.0
 21
-5.19615242270663
 31
0.0
  0
LINE
  5
A6
330
4B1
100
AcDbEntity
  8
ToolPath2
100
AcDbLine
 10
-18.0
 20
11.0
 30
0.0
 11
-18.0
 21
0.999999999999999
 31
0.0
  0
ARC
  5
A7
330
4B1
100
AcDbEntity
  8
ToolPath2
100
AcDbCircle
 10
-19.0
 20
0.9999999999999989
 30
0.0
 40
1.0
100
AcDbArc
 50
270.0
 51
0.0
  0
LINE
  5
A8
330
4B1
100
AcDbEntity
  8
ToolPath2
100
AcDbLine
 10
-31.99999999999999
 20
12.0
 30
0.0
 11
-19.0
 21
12.0
 31
0.0
  0
LINE
  5
A9
330
4B1
100
AcDbEntity
  8
ToolPath2
100
AcDbLine
 10
-32.0
 20
-12.0
 30
0.0
 11
11.2634032664601
 21
-12.0
 31
0.0
  0
LINE
  5
AA
330
4B1
100
AcDbEntity
  8
ToolPath2
100
AcDbLine
 10
-30.25403330758516
 20
10.0
 30
0.0
 11
-22.25
 21
10.0
 31
0.0
  0
LINE
  5
AB
330
4B1
100
AcDbEntity
  8
ToolPath2
100
AcDbLine
 10
-30.25403330758516
 20
-10.0
 30
0.0
 11
-22.25000000000001
 21
-10.0
 31
0.0
  0
LINE
  5
AC
330
4B1
100
AcDbEntity
  8
ToolPath2
100
AcDbLine
 10
-21.25000000000001
 20
9.0
 30
0.0
 11
-21.25000000000001
 21
6.763139720814411
 31
0.0
  0
LINE
  5
AD
330
4B1
100
AcDbEntity
  8
ToolPath2
100
AcDbLine
 10
-21.25000000000001
 20
-9.0
 30
0.0
 11
-21.25000000000001
 21
-6.763139720814412
 31
0.0
  0
ARC
  5
AE
330
4B1
100
AcDbEntity
  8
ToolPath2
100
AcDbCircle
 10
-22.25
 20
6.763139720814412
 30
0.0
 40
1.0
100
AcDbArc
 50
330.0
 51
0.0
  0
ARC
  5
AF
330
4B1
100
AcDbEntity
  8
ToolPath2
100
AcDbCircle
 10
-22.25
 20
-6.763139720814412
 30
0.0
 40
1.0
100
AcDbArc
 50
0.0
 51
29.99999999999994
  0
ARC
  5
B0
330
4B1
100
AcDbEntity
  8
ToolPath2
100
AcDbCircle
 10
-22.25
 20
8.999999999999998
 30
0.0
 40
1.0
100
AcDbArc
 50
0.0
 51
90.0
  0
ARC
  5
B1
330
4B1
100
AcDbEntity
  8
ToolPath2
100
AcDbCircle
 10
-22.25000000000001
 20
-9.0
 30
0.0
 40
1.0
100
AcDbArc
 50
270.0
 51
0.0
  0
ARC
  5
B2
330
4B1
100
AcDbEntity
  8
ToolPath2
100
AcDbCircle
 10
-19.0
 20
11.0
 30
0.0
 40
1.0
100
AcDbArc
 50
0.0
 51
89.99999999999999
  0
ARC
  5
B3
330
4B1
100
AcDbEntity
  8
ToolPath2
100
AcDbCircle
 10
-32.00000000000001
 20
11.0
 30
0.0
 40
1.0
100
AcDbArc
 50
89.99999999999999
 51
180.0
  0
ARC
  5
B4
330
4B1
100
AcDbEntity
  8
ToolPath2
100
AcDbCircle
 10
-32.0
 20
-11.0
 30
0.0
 40
1.0
100
AcDbArc
 50
180.0
 51
270.0
  0
ARC
  5
B6
330
4B1
100
AcDbEntity
  8
ToolPath2
100
AcDbCircle
 10
-30.25403330758517
 20
8.999999999999998
 30
0.0
 40
1.0
100
AcDbArc
 50
90.0
 51
165.5224878140701
  0
ARC
  5
B5
330
4B1
100
AcDbEntity
  8
ToolPath2
100
AcDbCircle
 10
-30.25403330758516
 20
-9.0
 30
0.0
 40
1.0
100
AcDbArc
 50
194.4775121859299
 51
270.0
  0
ARC
  5
B8
330
4B1
100
AcDbEntity
  8
ToolPath2
100
AcDbCircle
 10
-29.48148695198407
 20
5.762163094293383
 30
0.0
 40
1.0
100
AcDbArc
 50
30.0
 51
148.4136020625527
  0
ARC
  5
B7
330
4B1
100
AcDbEntity
  8
ToolPath2
100
AcDbCircle
 10
-29.48148695198407
 20
-5.762163094293383
 30
0.0
 40
1.0
100
AcDbArc
 50
211.5863979374473
 51
330.0
  0
LINE
  5
BA
330
4B1
100
AcDbEntity
  8
ToolPath1
100
AcDbLine
 10
-27.99999999999999
 20
-5.196152422706615
 30
0.0
 11
-26.9375
 21
-3.355848439664699
 31
0.0
  0
LINE
  5
BB
330
4B1
100
AcDbEntity
  8
ToolPath2
100
AcDbLine
 10
-53.0
 20
0.0
 30
0.0
 11
-30.99999999999998
 21
0.0
 31
0.0
  0
LINE
  5
BE
330
4B1
100
AcDbEntity
  8
ToolPath1
100
AcDbLine
 10
-22.00000000000001
 20
-5.196152422706619
 30
0.0
 11
-23.0625
 21
-3.355848439664701
 31
0.0
  0
LINE
  5
BF
330
4B1
100
AcDbEntity
  8
ToolPath1
100
AcDbLine
 10
-27.99999999999999
 20
5.19615242270662
 30
0.0
 11
-26.9375
 21
3.355848439664702
 31
0.0
  0
LINE
  5
BC
330
4B1
100
AcDbEntity
  8
ToolPath1
100
AcDbLine
 10
-19.00000000000002
 20
-0.0000000000000015
 30
0.0
 11
-21.125
 21
-0.0000000000000009
 31
0.0
  0
LINE
  5
BD
330
4B1
100
AcDbEntity
  8
ToolPath1
100
AcDbLine
 10
-22.00000000000001
 20
5.196152422706615
 30
0.0
 11
-23.0625
 21
3.355848439664699
 31
0.0
  0
LINE
  5
C0
330
4B1
100
AcDbEntity
  8
ToolPath1
100
AcDbLine
 10
-30.99999999999998
 20
0.0
 30
0.0
 11
-28.875
 21
0.0
 31
0.0
  0
ARC
  5
C2
330
4B1
100
AcDbEntity
  8
ToolPath1
100
AcDbCircle
 10
0.0
 20
0.0
 30
0.0
 40
10.5
100
AcDbArc
 50
0.0
 51
180.0
  0
ARC
  5
382
330
4B1
100
AcDbEntity
  8
ToolPath1
100
AcDbCircle
 10
50.0
 20
-30.0
 30
0.0
 40
10.5
100
AcDbArc
 50
0.0
 51
180.0
  0
LINE
  5
186
330
4B1
100
AcDbEntity
  8
ToolPath2
100
AcDbLine
 10
10.5
 20
-3.000000000000004
 30
0.0
 11
10.5
 21
-0.0000000000000026
 31
0.0
  0
LINE
  5
C3
330
4B1
100
AcDbEntity
  8
ToolPath2
100
AcDbLine
 10
-10.5
 20
-3.000000000000002
 30
0.0
 11
-10.5
 21
0.0000000000000059
 31
0.0
  0
LINE
  5
C6
330
4B1
100
AcDbEntity
  8
ToolPath2
100
AcDbLine
 10
26.08483012229792
 20
-8.934379866882479
 30
0.0
 11
26.16814464337912
 21
-9.620536680255327
 31
0.0
  0
LINE
  5
C5
330
4B1
100
AcDbEntity
  8
ToolPath1
100
AcDbLine
 10
25.84375676178728
 20
-6.948962118686381
 30
0.0
 11
26.08483012229792
 21
-8.934379866882479
 31
0.0
  0
LINE
  5
C8
330
4B1
100
AcDbEntity
  8
ToolPath1
100
AcDbLine
 10
19.7604247628023
 20
-4.641858607685577
 30
0.0
 11
18.26340326646011
 21
-5.968103924167165
 31
0.0
  0
LINE
  5
C7
330
4B1
100
AcDbEntity
  8
ToolPath2
100
AcDbLine
 10
18.26340326646011
 20
-5.968103924167165
 30
0.0
 11
17.93715794997851
 21
-6.2571320537331
 31
0.0
  0
LINE
  5
CA
330
4B1
100
AcDbEntity
  8
ToolPath1
100
AcDbLine
 10
18.20340727801765
 20
-1.675209650012903
 30
0.0
 11
16.26152364316555
 21
-2.153840978588044
 31
0.0
  0
LINE
  5
C9
330
4B1
100
AcDbEntity
  8
ToolPath2
100
AcDbLine
 10
16.26152364316555
 20
-2.153840978588044
 30
0.0
 11
14.78477193788496
 21
-2.517827583134452
 31
0.0
  0
LINE
  5
CB
330
4B1
100
AcDbEntity
  8
ToolPath2
100
AcDbLine
 10
30.11258272058042
 20
-7.406854793042896
 30
0.0
 11
30.86973245271646
 21
-8.50377555286715
 31
0.0
  0
LINE
  5
CC
330
4B1
100
AcDbEntity
  8
ToolPath1
100
AcDbLine
 10
31.19819217957252
 20
-3.253062204306389
 30
0.0
 11
32.98844675861417
 21
-4.192660290077347
 31
0.0
  0
LINE
  5
23D
330
4B1
100
AcDbEntity
  8
ToolPath2
100
AcDbLine
 10
32.96910423087894
 20
-4.182508548393925
 30
0.0
 11
33.35578834185204
 21
-4.3854560256532
 31
0.0
  0
LINE
  5
CD
330
4B1
100
AcDbEntity
  8
ToolPath1
100
AcDbLine
 10
28.97645322711811
 20
-5.760887061255573
 30
0.0
 11
30.11258272058042
 21
-7.406854793042896
 31
0.0
  0
LINE
  5
CE
330
4B1
100
AcDbEntity
  8
ToolPath2
100
AcDbLine
 10
21.80855601661719
 20
-8.41514618416873
 30
0.0
 11
21.15235915292801
 21
-10.14539511295746
 31
0.0
  0
LINE
  5
CF
330
4B1
100
AcDbEntity
  8
ToolPath1
100
AcDbLine
 10
22.51776579070226
 20
-6.545113698797934
 30
0.0
 11
21.80855601661719
 21
-8.41514618416873
 31
0.0
  0
LINE
  5
D0
330
4B1
100
AcDbEntity
  8
ToolPath1
100
AcDbLine
 10
18.20340727801765
 20
1.675209650012903
 30
0.0
 11
16.26152364316554
 21
2.153840978588011
 31
0.0
  0
LINE
  5
D1
330
4B1
100
AcDbEntity
  8
ToolPath2
100
AcDbLine
 10
16.26152364316554
 20
2.153840978588011
 30
0.0
 11
15.76068433571245
 21
2.277286780811463
 31
0.0
  0
LINE
  5
D2
330
4B1
100
AcDbEntity
  8
ToolPath2
100
AcDbLine
 10
18.2634032664601
 20
5.968103924167148
 30
0.0
 11
17.3368773417592
 21
6.788934267108633
 31
0.0
  0
LINE
  5
D3
330
4B1
100
AcDbEntity
  8
ToolPath1
100
AcDbLine
 10
19.7604247628023
 20
4.641858607685549
 30
0.0
 11
18.2634032664601
 21
5.968103924167148
 31
0.0
  0
LINE
  5
1D2
330
4B1
100
AcDbEntity
  8
ToolPath2
100
AcDbLine
 10
21.80855601661719
 20
8.415146184168725
 30
0.0
 11
21.34198414063094
 21
9.645395112957452
 31
0.0
  0
LINE
  5
D5
330
4B1
100
AcDbEntity
  8
ToolPath1
100
AcDbLine
 10
22.51776579070228
 20
6.545113698797905
 30
0.0
 11
21.80855601661719
 21
8.41514618416873
 31
0.0
  0
LINE
  5
1D3
330
4B1
100
AcDbEntity
  8
ToolPath2
100
AcDbLine
 10
26.08483012229792
 20
8.93437986688249
 30
0.0
 11
26.10743365176799
 21
9.120536680255325
 31
0.0
  0
LINE
  5
D7
330
4B1
100
AcDbEntity
  8
ToolPath1
100
AcDbLine
 10
25.84375676178728
 20
6.948962118686381
 30
0.0
 11
26.08483012229792
 21
8.934379866882479
 31
0.0
  0
LINE
  5
D8
330
4B1
100
AcDbEntity
  8
ToolPath1
100
AcDbLine
 10
28.9764532271181
 20
5.760887061255573
 30
0.0
 11
30.1125827205804
 21
7.406854793042903
 31
0.0
  0
LINE
  5
26F
330
4B1
100
AcDbEntity
  8
ToolPath2
100
AcDbLine
 10
30.1125827205804
 20
7.406854793042897
 30
0.0
 11
30.22385791722476
 21
7.568064746731151
 31
0.0
  0
LINE
  5
D9
330
4B1
100
AcDbEntity
  8
ToolPath1
100
AcDbLine
 10
31.19819217957252
 20
3.25306220430636
 30
0.0
 11
32.96910423087892
 21
4.182508548393933
 31
0.0
  0
LINE
  5
265
330
4B1
100
AcDbEntity
  8
ToolPath2
100
AcDbLine
 10
32.96910423087891
 20
4.182508548393932
 30
0.0
 11
33.14559487141909
 21
4.275137982190334
 31
0.0
  0
LINE
  5
DA
330
4B1
100
AcDbEntity
  8
ToolPath1
100
AcDbLine
 10
32.00000000000001
 20
0.0
 30
0.0
 11
34.00000000000001
 21
0.0
 31
0.0
  0
LINE
  5
DB
330
4B1
100
AcDbEntity
  8
ToolPath2
100
AcDbLine
 10
17.81678400498807
 20
0.0
 30
0.0
 11
15.4142135623731
 21
0.0
 31
0.0
  0
LINE
  5
DC
330
4B1
100
AcDbEntity
  8
ToolPath2
100
AcDbLine
 10
30.23957523719773
 20
4.641858607685549
 30
0.0
 11
32.1580885567602
 21
6.341513095543178
 31
0.0
  0
LINE
  5
DD
330
4B1
100
AcDbEntity
  8
ToolPath2
100
AcDbLine
 10
31.79659272198242
 20
1.675209650012903
 30
0.0
 11
34.07951350474566
 21
2.237899086019716
 31
0.0
  0
LINE
  5
DE
330
4B1
100
AcDbEntity
  8
ToolPath2
100
AcDbLine
 10
31.79659272198242
 20
-1.675209650012903
 30
0.0
 11
35.18513352064465
 21
-2.510409944863802
 31
0.0
  0
LINE
  5
DF
330
4B1
100
AcDbEntity
  8
ToolPath2
100
AcDbLine
 10
30.23957523719771
 20
-4.641858607685577
 30
0.0
 11
32.05203967115416
 21
-6.247561981149211
 31
0.0
  0
LINE
  5
E0
330
4B1
100
AcDbEntity
  8
ToolPath2
100
AcDbLine
 10
18.80180782042754
 20
-3.253062204306389
 30
0.0
 11
16.33395692237255
 21
-4.548290272384801
 31
0.0
  0
LINE
  5
E1
330
4B1
100
AcDbEntity
  8
ToolPath2
100
AcDbLine
 10
21.02354677288191
 20
-5.760887061255573
 30
0.0
 11
19.61743553467279
 21
-7.797990876193639
 31
0.0
  0
LINE
  5
E2
330
4B1
100
AcDbEntity
  8
ToolPath2
100
AcDbLine
 10
24.15624323821275
 20
-6.948962118686381
 30
0.0
 11
23.80041597054505
 21
-9.87946331974468
 31
0.0
  0
LINE
  5
E3
330
4B1
100
AcDbEntity
  8
ToolPath2
100
AcDbLine
 10
27.48223420929777
 20
-6.545113698797934
 30
0.0
 11
28.5477336733426
 21
-9.354604887042552
 31
0.0
  0
LINE
  5
E4
330
4B1
100
AcDbEntity
  8
ToolPath2
100
AcDbLine
 10
18.80180782042754
 20
3.25306220430636
 30
0.0
 11
16.53527682795622
 21
4.442629435022039
 31
0.0
  0
LINE
  5
E6
330
4B1
100
AcDbEntity
  8
ToolPath2
100
AcDbLine
 10
27.48223420929777
 20
6.545113698797905
 30
0.0
 11
28.16848369793673
 21
8.354604887042548
 31
0.0
  0
LINE
  5
E7
330
4B1
100
AcDbEntity
  8
ToolPath1
100
AcDbLine
 10
20.57271987173397
 20
2.323615860218837
 30
0.0
 11
18.80180782042754
 21
3.25306220430636
 31
0.0
  0
LINE
  5
E8
330
4B1
100
AcDbEntity
  8
ToolPath2
100
AcDbLine
 10
21.02354677288192
 20
5.760887061255564
 30
0.0
 11
20.17701613410635
 21
6.987298419654199
 31
0.0
  0
LINE
  5
E9
330
4B1
100
AcDbEntity
  8
ToolPath1
100
AcDbLine
 10
22.15967626634423
 20
4.114919329468279
 30
0.0
 11
21.02354677288192
 21
5.760887061255564
 31
0.0
  0
LINE
  5
1D1
330
4B1
100
AcDbEntity
  8
ToolPath2
100
AcDbLine
 10
24.15624323821275
 20
6.948962118686378
 30
0.0
 11
23.86112696215617
 21
9.37946331974468
 31
0.0
  0
LINE
  5
EA
330
4B1
100
AcDbEntity
  8
ToolPath1
100
AcDbLine
 10
24.39731659872339
 20
4.963544370490268
 30
0.0
 11
24.15624323821275
 21
6.948962118686381
 31
0.0
  0
LINE
  5
EB
330
4B1
100
AcDbEntity
  8
ToolPath1
100
AcDbLine
 10
26.77302443521269
 20
4.675081213427063
 30
0.0
 11
27.48223420929777
 21
6.545113698797905
 31
0.0
  0
LINE
  5
EC
330
4B1
100
AcDbEntity
  8
ToolPath1
100
AcDbLine
 10
28.74255374085551
 20
3.31561329120396
 30
0.0
 11
30.23957523719773
 21
4.641858607685549
 31
0.0
  0
LINE
  5
ED
330
4B1
100
AcDbEntity
  8
ToolPath1
100
AcDbLine
 10
29.85470908713027
 20
1.196578321437784
 30
0.0
 11
31.79659272198242
 21
1.675209650012903
 31
0.0
  0
LINE
  5
EE
330
4B1
100
AcDbEntity
  8
ToolPath1
100
AcDbLine
 10
29.85470908713027
 20
-1.196578321437812
 30
0.0
 11
31.79659272198242
 21
-1.675209650012903
 31
0.0
  0
LINE
  5
EF
330
4B1
100
AcDbEntity
  8
ToolPath1
100
AcDbLine
 10
28.74255374085551
 20
-3.315613291203988
 30
0.0
 11
30.23957523719771
 21
-4.641858607685577
 31
0.0
  0
LINE
  5
F0
330
4B1
100
AcDbEntity
  8
ToolPath1
100
AcDbLine
 10
26.77302443521269
 20
-4.675081213427063
 30
0.0
 11
27.48223420929776
 21
-6.545113698797934
 31
0.0
  0
LINE
  5
F1
330
4B1
100
AcDbEntity
  8
ToolPath1
100
AcDbLine
 10
24.39731659872341
 20
-4.963544370490297
 30
0.0
 11
24.15624323821275
 21
-6.948962118686381
 31
0.0
  0
LINE
  5
F2
330
4B1
100
AcDbEntity
  8
ToolPath1
100
AcDbLine
 10
22.15967626634423
 20
-4.114919329468307
 30
0.0
 11
21.02354677288193
 21
-5.760887061255573
 31
0.0
  0
LINE
  5
F3
330
4B1
100
AcDbEntity
  8
ToolPath1
100
AcDbLine
 10
20.57271987173397
 20
-2.323615860218837
 30
0.0
 11
18.80180782042754
 21
-3.253062204306389
 31
0.0
  0
LINE
  5
F4
330
4B1
100
AcDbEntity
  8
ToolPath2
100
AcDbLine
 10
17.2634032664601
 20
-7.754153550075296
 30
0.0
 11
17.2634032664601
 21
-11.5
 31
0.0
  0
LINE
  5
F6
330
4B1
100
AcDbEntity
  8
ToolPath2
100
AcDbLine
 10
34.00000000000001
 20
0.0
 30
0.0
 11
34.5857864376269
 21
0.0
 31
0.0
  0
LINE
  5
F7
330
4B1
100
AcDbEntity
  8
ToolPath2
100
AcDbLine
 10
18.20340727801766
 20
1.675209650012903
 30
0.0
 11
18.20340727801765
 21
1.675209650012903
 31
0.0
  0
ARC
  5
F9
330
4B1
100
AcDbEntity
  8
ToolPath2
100
AcDbCircle
 10
-25.0
 20
0.0
 30
0.0
 40
3.75
100
AcDbArc
 50
0.0
 51
314.2893324988626
  0
LWPOLYLINE
  5
FC
330
4B1
100
AcDbEntity
  8
ToolPath2
100
AcDbPolyline
 90
       51
 70
   128
 43
0.0
 10
18.31678400498807
 20
0.5
 10
18.31678400498807
 20
1.579483384297556
 42
-0.4732037771316687
 10
18.64564452166732
 20
1.849157344373828
 10
19.4669253687653
 20
1.685127377404745
 42
0.7481289273188867
 10
20.47002271737605
 20
3.596369693443541
 10
19.86848800464111
 20
4.179090938324604
 42
-0.9564325742309779
 10
20.23284391925563
 20
4.59036374713925
 10
20.88382346750256
 20
4.063454184104171
 42
0.7481289273221313
 10
22.66022065080754
 20
5.289612627603712
 10
22.39839218011607
 20
6.085133784953884
 42
-0.9564325742309535
 10
22.91214132447991
 20
6.279973135317921
 10
23.24368800453981
 20
5.510892607153876
 42
0.7481289273214117
 10
25.38643383574125
 20
5.771069055521528
 10
25.52429335435236
 20
6.597145815267507
 42
-0.9564325742500046
 10
26.06974199084188
 20
6.530916360059572
 10
26.00590245388251
 20
5.695851947369602
 42
0.748128927325958
 10
28.02411968594162
 20
4.930443111745132
 10
28.5300852395211
 20
5.59783124351677
 42
-0.9564325742425358
 10
28.98227765889264
 20
5.2857053528122
 10
28.53767677347934
 20
4.575960248886386
 42
0.7481289273221156
 10
29.96901616068112
 20
2.960312069342447
 10
30.72717713846216
 20
3.316120995069361
 42
-0.9564325742328477
 10
30.98252150693745
 20
2.829602948874891
 10
30.25901197789933
 20
2.407771203689103
 42
0.7481289273260879
 10
30.77557091615905
 20
0.3120092074841925
 10
31.61224177494507
 20
0.2747273902365804
 42
-0.956432574229937
 10
31.61224177494403
 20
-0.2747273902366181
 10
30.77557091614105
 20
-0.31200920748503
 42
0.7481289273202907
 10
30.25901197790045
 20
-2.407771203689785
 10
30.98252150694628
 20
-2.829602948880067
 42
-0.9564325742143994
 10
30.72717713846249
 20
-3.316120995069537
 10
29.96901616068145
 20
-2.960312069342624
 42
0.7481289273221996
 10
28.53767677347927
 20
-4.57596024888631
 10
28.98227765889995
 20
-5.28570535282389
 42
-0.9564325742174168
 10
28.53008523952153
 20
-5.597831243517332
 10
28.02411968594205
 20
-4.930443111745698
 42
0.7481289273261227
 10
26.00590245388251
 20
-5.695851947369409
 10
26.0697419908431
 20
-6.53091636007544
 42
-0.956432574227978
 10
25.52429335435184
 20
-6.597145815264314
 10
25.38643383574089
 20
-5.771069055519472
 42
0.7481289273217274
 10
23.24368800453861
 20
-5.510892607156677
 10
22.91214132447924
 20
-6.279973135319517
 42
-0.9564325742265574
 10
22.39839218011581
 20
-6.085133784954686
 10
22.66022065080834
 20
-5.289612627601205
 42
0.7481289273260738
 10
20.88382346749171
 20
-4.063454184113008
 10
20.23284391925302
 20
-4.590363747141397
 42
-0.9564325742290395
 10
19.86848800464271
 20
-4.179090938323078
 10
20.47002271737867
 20
-3.596369693441034
 42
0.7481289273212752
 10
19.46692536875494
 20
-1.685127377406797
 10
18.645644521671
 20
-1.849157344373107
 42
-0.401230283904291
 10
18.32477500519747
 20
-1.645295191983342
  0
ARC
  5
FD
330
4B1
100
AcDbEntity
  8
ToolPath2
100
AcDbCircle
 10
17.81678400498807
 20
0.5
 30
0.0
 40
0.5
100
AcDbArc
 50
270.0
 51
0.0
  0
ARC
  5
108
330
4B1
100
AcDbEntity
  8
ToolPath2
100
AcDbCircle
 10
19.2634032664601
 20
-7.754153550075296
 30
0.0
 40
2.0
100
AcDbArc
 50
131.5384615384617
 51
180.0
  0
LINE
  5
10A
330
4B1
100
AcDbEntity
  8
ToolPath2
100
AcDbLine
 10
19.2634032664601
 20
-8.934120369655952
 30
0.0
 11
19.2634032664601
 21
-11.0
 31
0.0
  0
LINE
  5
10B
330
4B1
100
AcDbEntity
  8
ToolPath2
100
AcDbLine
 10
15.2634032664601
 20
-6.319202323691216
 30
0.0
 11
15.2634032664601
 21
-12.0
 31
0.0
  0
LINE
  5
10C
330
4B1
100
AcDbEntity
  8
ToolPath2
100
AcDbLine
 10
13.2634032664601
 20
-4.45971121798655
 30
0.0
 11
13.2634032664601
 21
-10.0
 31
0.0
  0
ARC
  5
10D
330
4B1
100
AcDbEntity
  8
ToolPath2
100
AcDbCircle
 10
11.2634032664601
 20
-10.0
 30
0.0
 40
2.0
100
AcDbArc
 50
270.0000000000001
 51
0.0
  0
ARC
  5
10E
330
4B1
100
AcDbEntity
  8
ToolPath2
100
AcDbCircle
 10
15.2634032664601
 20
-4.45971121798655
 30
0.0
 40
2.0
100
AcDbArc
 50
103.8461538461546
 51
180.0
  0
ARC
  5
10F
330
4B1
100
AcDbEntity
  8
ToolPath2
100
AcDbCircle
 10
17.2634032664601
 20
-6.319202323691216
 30
0.0
 40
2.0
100
AcDbArc
 50
117.692307692308
 51
180.0
  0
ARC
  5
112
330
4B1
100
AcDbEntity
  8
ToolPath2
100
AcDbCircle
 10
21.2634032664601
 20
-8.934120369655952
 30
0.0
 40
2.0
100
AcDbArc
 50
145.3846153846154
 51
180.0
  0
ARC
  5
154
330
4B1
100
AcDbEntity
  8
ToolPath2
100
AcDbCircle
 10
-21.68316038840437
 20
-3.400158083229385
 30
0.0
 40
1.0
100
AcDbArc
 50
44.99999999999999
 51
134.2893324988626
  0
CIRCLE
  5
1D0
330
4B1
100
AcDbEntity
  8
BallGuide
100
AcDbCircle
 10
0.0
 20
0.0
 30
0.0
 40
12.0
  0
LINE
  5
181
330
4B1
100
AcDbEntity
  8
ToolPath2
100
AcDbLine
 10
-19.25489134688756
 20
-4.0
 30
0.0
 11
-11.50000000000001
 21
-4.0
 31
0.0
  0
LINE
  5
182
330
4B1
100
AcDbEntity
  8
ToolPath2
100
AcDbLine
 10
-20.97605360721782
 20
-2.693051302042837
 30
0.0
 11
-19.96199812807411
 21
-3.707106781186547
 31
0.0
  0
ARC
  5
183
330
4B1
100
AcDbEntity
  8
ToolPath2
100
AcDbCircle
 10
-11.50000000000001
 20
-3.0
 30
0.0
 40
1.0
100
AcDbArc
 50
270.0
 51
0.0
  0
ARC
  5
185
330
4B1
100
AcDbEntity
  8
ToolPath2
100
AcDbCircle
 10
11.50000000000001
 20
-2.999999999999999
 30
0.0
 40
1.0
100
AcDbArc
 50
180.0
 51
2.407726767016196
  0
ARC
  5
184
330
4B1
100
AcDbEntity
  8
ToolPath2
100
AcDbCircle
 10
-19.25489134688756
 20
-3.0
 30
0.0
 40
1.0
100
AcDbArc
 50
225.0
 51
270.0
  0
LINE
  5
187
330
4B1
100
AcDbEntity
  8
ToolPath2
100
AcDbLine
 10
12.79112756634657
 20
-2.208872433653427
 30
0.0
 11
14.70710678118655
 21
-0.292893218813453
 31
0.0
  0
ARC
  5
188
330
4B1
100
AcDbEntity
  8
ToolPath2
100
AcDbCircle
 10
15.4142135623731
 20
-1.0
 30
0.0
 40
1.0
100
AcDbArc
 50
90.0
 51
135.0
  0
ARC
  5
189
330
4B1
100
AcDbEntity
  8
ToolPath2
100
AcDbCircle
 10
13.49823434753312
 20
-2.915979214839976
 30
0.0
 40
1.0
100
AcDbArc
 50
135.0
 51
182.4077267670164
  0
LINE
  5
1D4
330
4B1
100
AcDbEntity
  8
ToolPath2
100
AcDbLine
 10
16.0
 20
13.0
 30
0.0
 11
39.14213562373093
 21
13.0
 31
0.0
  0
LINE
  5
204
330
4B1
100
AcDbEntity
  8
ToolPath2
100
AcDbLine
 10
16.2634032664601
 20
-13.0
 30
0.0
 11
58.58578643762691
 21
-13.0
 31
0.0
  0
LINE
  5
1D5
330
4B1
100
AcDbEntity
  8
ToolPath2
100
AcDbLine
 10
18.0
 20
12.0
 30
0.0
 11
37.31370849898475
 21
12.0
 31
0.0
  0
LINE
  5
203
330
4B1
100
AcDbEntity
  8
ToolPath2
100
AcDbLine
 10
20.2634032664601
 20
-12.0
 30
0.0
 11
51.58578643762692
 21
-12.0
 31
0.0
  0
LINE
  5
1D6
330
4B1
100
AcDbEntity
  8
ToolPath2
100
AcDbLine
 10
22.27700038331635
 20
11.0
 30
0.0
 11
35.48528137423855
 21
11.0
 31
0.0
  0
LINE
  5
206
330
4B1
100
AcDbEntity
  8
ToolPath2
100
AcDbLine
 10
24.79312484464309
 20
-11.0
 30
0.0
 11
33.87106781186545
 21
-11.0
 31
0.0
  0
LINE
  5
1D7
330
4B1
100
AcDbEntity
  8
ToolPath2
100
AcDbLine
 10
27.10014252586604
 20
10.0
 30
0.0
 11
33.65685424949238
 21
10.0
 31
0.0
  0
LINE
  5
205
330
4B1
100
AcDbEntity
  8
ToolPath2
100
AcDbLine
 10
29.48274991602802
 20
-10.0
 30
0.0
 11
32.04264068711925
 21
-10.0
 31
0.0
  0
LINE
  5
1D8
330
4B1
100
AcDbEntity
  8
ToolPath2
100
AcDbLine
 10
17.0
 20
12.5
 30
0.0
 11
38.22792206135783
 21
12.5
 31
0.0
  0
LINE
  5
201
330
4B1
100
AcDbEntity
  8
ToolPath2
100
AcDbLine
 10
18.2634032664601
 20
-12.5
 30
0.0
 11
55.08578643762692
 21
-12.49999999999999
 31
0.0
  0
LINE
  5
1D9
330
4B1
100
AcDbEntity
  8
ToolPath2
100
AcDbLine
 10
21.0
 20
11.5
 30
0.0
 11
36.39949493661165
 21
11.5
 31
0.0
  0
LINE
  5
200
330
4B1
100
AcDbEntity
  8
ToolPath2
100
AcDbLine
 10
22.08737539561342
 20
-11.5
 30
0.0
 11
48.08578643762692
 21
-11.49999999999999
 31
0.0
  0
LINE
  5
1DA
330
4B1
100
AcDbEntity
  8
ToolPath2
100
AcDbLine
 10
24.85383583625423
 20
10.5
 30
0.0
 11
34.57106781186546
 21
10.5
 31
0.0
  0
LINE
  5
202
330
4B1
100
AcDbEntity
  8
ToolPath2
100
AcDbLine
 10
27.16085351747717
 20
-10.5
 30
0.0
 11
32.95685424949234
 21
-10.5
 31
0.0
  0
ARC
  5
1DB
330
4B1
100
AcDbEntity
  8
ToolPath2
100
AcDbCircle
 10
27.10014252586604
 20
9.000000000000002
 30
0.0
 40
1.0
100
AcDbArc
 50
90.0
 51
173.0769230769231
  0
ARC
  5
1DC
330
4B1
100
AcDbEntity
  8
ToolPath2
100
AcDbCircle
 10
24.85383583625423
 20
9.5
 30
0.0
 40
1.0
100
AcDbArc
 50
90.0
 51
186.9230769230767
  0
ARC
  5
1DD
330
4B1
100
AcDbEntity
  8
ToolPath2
100
AcDbCircle
 10
22.27700038331635
 20
10.0
 30
0.0
 40
1.0
100
AcDbArc
 50
90.0
 51
200.7692307692315
  0
LINE
  5
1E0
330
4B1
100
AcDbEntity
  8
ToolPath2
100
AcDbLine
 10
20.0
 20
7.555363166385363
 30
0.0
 11
20.0
 21
10.5
 31
0.0
  0
LINE
  5
1E1
330
4B1
100
AcDbEntity
  8
ToolPath2
100
AcDbLine
 10
17.0
 20
7.537445015279731
 30
0.0
 11
17.0
 21
11.0
 31
0.0
  0
ARC
  5
1E3
330
4B1
100
AcDbEntity
  8
ToolPath2
100
AcDbCircle
 10
21.0
 20
10.5
 30
0.0
 40
1.0
100
AcDbArc
 50
90.0
 51
180.0
  0
ARC
  5
1E4
330
4B1
100
AcDbEntity
  8
ToolPath2
100
AcDbCircle
 10
21.0
 20
7.555363166385363
 30
0.0
 40
1.0
100
AcDbArc
 50
180.0
 51
214.6153846153852
  0
ARC
  5
1E5
330
4B1
100
AcDbEntity
  8
ToolPath2
100
AcDbCircle
 10
18.0
 20
11.0
 30
0.0
 40
1.0
100
AcDbArc
 50
90.0
 51
180.0
  0
ARC
  5
1E6
330
4B1
100
AcDbEntity
  8
ToolPath2
100
AcDbCircle
 10
18.0
 20
7.537445015279731
 30
0.0
 40
1.0
100
AcDbArc
 50
180.0
 51
228.4615384615383
  0
LINE
  5
1E7
330
4B1
100
AcDbEntity
  8
ToolPath2
100
AcDbLine
 10
16.0
 20
5.328085460675243
 30
0.0
 11
16.0
 21
11.5
 31
0.0
  0
LINE
  5
1E8
330
4B1
100
AcDbEntity
  8
ToolPath2
100
AcDbLine
 10
15.0
 20
3.248228598237516
 30
0.0
 11
15.0
 21
12.0
 31
0.0
  0
ARC
  5
1EA
330
4B1
100
AcDbEntity
  8
ToolPath2
100
AcDbCircle
 10
17.0
 20
5.328085460675243
 30
0.0
 40
1.0
100
AcDbArc
 50
180.0
 51
242.3076923076918
  0
ARC
  5
1EB
330
4B1
100
AcDbEntity
  8
ToolPath2
100
AcDbCircle
 10
17.0
 20
11.5
 30
0.0
 40
1.0
100
AcDbArc
 50
90.0
 51
180.0
  0
ARC
  5
1EC
330
4B1
100
AcDbEntity
  8
ToolPath2
100
AcDbCircle
 10
16.0
 20
12.0
 30
0.0
 40
1.0
100
AcDbArc
 50
90.0
 51
180.0
  0
ARC
  5
1EE
330
4B1
100
AcDbEntity
  8
ToolPath2
100
AcDbCircle
 10
16.0
 20
3.248228598237516
 30
0.0
 40
1.0
100
AcDbArc
 50
180.0
 51
256.1538461538464
  0
ARC
  5
207
330
4B1
100
AcDbEntity
  8
ToolPath2
100
AcDbCircle
 10
16.2634032664601
 20
-12.0
 30
0.0
 40
1.0
100
AcDbArc
 50
180.0
 51
270.0
  0
ARC
  5
208
330
4B1
100
AcDbEntity
  8
ToolPath2
100
AcDbCircle
 10
18.2634032664601
 20
-11.5
 30
0.0
 40
1.0
100
AcDbArc
 50
180.0
 51
270.0
  0
ARC
  5
209
330
4B1
100
AcDbEntity
  8
ToolPath2
100
AcDbCircle
 10
20.2634032664601
 20
-11.0
 30
0.0
 40
1.0
100
AcDbArc
 50
180.0
 51
270.0
  0
ARC
  5
20A
330
4B1
100
AcDbEntity
  8
ToolPath2
100
AcDbCircle
 10
22.08737539561342
 20
-10.5
 30
0.0
 40
1.0
100
AcDbArc
 50
159.2307692307689
 51
270.0
  0
ARC
  5
20B
330
4B1
100
AcDbEntity
  8
ToolPath2
100
AcDbCircle
 10
24.79312484464309
 20
-10.0
 30
0.0
 40
1.0
100
AcDbArc
 50
173.0769230769232
 51
270.0
  0
ARC
  5
20C
330
4B1
100
AcDbEntity
  8
ToolPath2
100
AcDbCircle
 10
27.16085351747717
 20
-9.500000000000002
 30
0.0
 40
1.0
100
AcDbArc
 50
186.923076923077
 51
270.0
  0
ARC
  5
20D
330
4B1
100
AcDbEntity
  8
ToolPath2
100
AcDbCircle
 10
29.48274991602802
 20
-9.000000000000002
 30
0.0
 40
1.0
100
AcDbArc
 50
200.7692307692315
 51
270.0
  0
LINE
  5
232
330
4B1
100
AcDbEntity
  8
ToolPath2
100
AcDbLine
 10
33.42226911058151
 20
-6.206158014164657
 30
0.0
 11
34.33553390593273
 21
-5.292893218813447
 31
0.0
  0
LINE
  5
233
330
4B1
100
AcDbEntity
  8
ToolPath2
100
AcDbLine
 10
32.39982309979668
 20
-8.642817587322575
 30
0.0
 11
33.24974746830582
 21
-7.792893218813439
 31
0.0
  0
LINE
  5
234
330
4B1
100
AcDbEntity
  8
ToolPath2
100
AcDbLine
 10
32.7497474683058
 20
-9.707106781186546
 30
0.0
 11
34.16396103067891
 21
-8.292893218813449
 31
0.0
  0
LINE
  5
235
330
4B1
100
AcDbEntity
  8
ToolPath2
100
AcDbLine
 10
33.66396103067889
 20
-10.20710678118655
 30
0.0
 11
35.07817459305201
 21
-8.792893218813443
 31
0.0
  0
LINE
  5
236
330
4B1
100
AcDbEntity
  8
ToolPath2
100
AcDbLine
 10
34.578174593052
 20
-10.70710678118655
 30
0.0
 11
35.9923881554251
 21
-9.292893218813449
 31
0.0
  0
LINE
  5
23B
330
4B1
100
AcDbEntity
  8
ToolPath2
100
AcDbLine
 10
42.64365843583247
 20
-9.712690750271582
 30
0.0
 11
42.78528137423855
 21
-9.571067811865504
 31
0.0
  0
LINE
  5
23C
330
4B1
100
AcDbEntity
  8
ToolPath2
100
AcDbLine
 10
43.35076521701902
 20
-10.41979753145813
 30
0.0
 11
43.4923881554251
 21
-10.27817459305206
 31
0.0
  0
ARC
  5
241
330
4B1
100
AcDbEntity
  8
ToolPath2
100
AcDbCircle
 10
32.71516232939497
 20
-5.499051232978111
 30
0.0
 40
1.0
100
AcDbArc
 50
228.4615384615378
 51
314.9999999999998
  0
ARC
  5
243
330
4B1
100
AcDbEntity
  8
ToolPath2
100
AcDbCircle
 10
31.69271631861013
 20
-7.935710806136027
 30
0.0
 40
1.0
100
AcDbArc
 50
214.6153846153823
 51
314.9999999999998
  0
ARC
  5
245
330
4B1
100
AcDbEntity
  8
ToolPath2
100
AcDbCircle
 10
32.04264068711925
 20
-8.999999999999998
 30
0.0
 40
1.0
100
AcDbArc
 50
270.0
 51
314.9999999999998
  0
ARC
  5
246
330
4B1
100
AcDbEntity
  8
ToolPath2
100
AcDbCircle
 10
32.95685424949234
 20
-9.5
 30
0.0
 40
1.0
100
AcDbArc
 50
270.0
 51
314.9999999999998
  0
ARC
  5
247
330
4B1
100
AcDbEntity
  8
ToolPath2
100
AcDbCircle
 10
33.87106781186545
 20
-10.0
 30
0.0
 40
1.0
100
AcDbArc
 50
270.0
 51
315.0
  0
LINE
  5
253
330
4B1
100
AcDbEntity
  8
ToolPath2
100
AcDbLine
 10
38.20710678118652
 20
-3.207106781186536
 30
0.0
 11
35.20710678118655
 21
-0.2071067811865446
 31
0.0
  0
ARC
  5
254
330
4B1
100
AcDbEntity
  8
ToolPath2
100
AcDbCircle
 10
34.5857864376269
 20
-1.0
 30
0.0
 40
1.0
100
AcDbArc
 50
44.99999999999981
 51
90.0
  0
LINE
  5
256
330
4B1
100
AcDbEntity
  8
ToolPath2
100
AcDbLine
 10
35.02593595021978
 20
1.974064049780216
 30
0.0
 11
37.70710678118655
 21
-0.7071067811865481
 31
0.0
  0
ARC
  5
257
330
4B1
100
AcDbEntity
  8
ToolPath2
100
AcDbCircle
 10
34.31882916903324
 20
1.266957268593669
 30
0.0
 40
1.0
100
AcDbArc
 50
45.00000000000002
 51
103.8461538461548
  0
LINE
  5
259
330
4B1
100
AcDbEntity
  8
ToolPath2
100
AcDbLine
 10
34.31742482464941
 20
4.096788737723679
 30
0.0
 11
38.62132034355962
 21
-0.2071067811865328
 31
0.0
  0
LINE
  5
25A
330
4B1
100
AcDbEntity
  8
ToolPath2
100
AcDbLine
 10
33.52831799618755
 20
6.300109128558633
 30
0.0
 11
39.53553390593273
 21
0.2928932188134539
 31
0.0
  0
LINE
  5
25B
330
4B1
100
AcDbEntity
  8
ToolPath2
100
AcDbLine
 10
33.53553390593274
 20
7.707106781186545
 30
0.0
 11
40.44974746830582
 21
0.792893218813461
 31
0.0
  0
LINE
  5
25C
330
4B1
100
AcDbEntity
  8
ToolPath2
100
AcDbLine
 10
33.94974746830583
 20
8.707106781186544
 30
0.0
 11
39.36396103067892
 21
3.292893218813452
 31
0.0
  0
LINE
  5
25D
330
4B1
100
AcDbEntity
  8
ToolPath2
100
AcDbLine
 10
34.36396103067892
 20
9.707106781186543
 30
0.0
 11
40.278174593052
 21
3.792893218813466
 31
0.0
  0
LINE
  5
25E
330
4B1
100
AcDbEntity
  8
ToolPath2
100
AcDbLine
 10
35.27817459305201
 20
10.20710678118655
 30
0.0
 11
41.1923881554251
 21
4.292893218813459
 31
0.0
  0
LINE
  5
25F
330
4B1
100
AcDbEntity
  8
ToolPath2
100
AcDbLine
 10
36.1923881554251
 20
10.70710678118655
 30
0.0
 11
42.10660171779819
 21
4.792893218813462
 31
0.0
  0
LINE
  5
260
330
4B1
100
AcDbEntity
  8
ToolPath2
100
AcDbLine
 10
37.10660171779819
 20
11.20710678118655
 30
0.0
 11
41.0208152801713
 21
7.292893218813451
 31
0.0
  0
LINE
  5
261
330
4B1
100
AcDbEntity
  8
ToolPath2
100
AcDbLine
 10
38.02081528017129
 20
11.70710678118655
 30
0.0
 11
41.93502884254437
 21
7.792893218813466
 31
0.0
  0
LINE
  5
262
330
4B1
100
AcDbEntity
  8
ToolPath2
100
AcDbLine
 10
38.93502884254438
 20
12.20710678118655
 30
0.0
 11
42.84924240491747
 21
8.292893218813461
 31
0.0
  0
LINE
  5
263
330
4B1
100
AcDbEntity
  8
ToolPath2
100
AcDbLine
 10
39.84924240491748
 20
12.70710678118655
 30
0.0
 11
43.76345596729055
 21
8.792893218813465
 31
0.0
  0
ARC
  5
268
330
4B1
100
AcDbEntity
  8
ToolPath2
100
AcDbCircle
 10
33.61031804346287
 20
3.389681956537133
 30
0.0
 40
1.0
100
AcDbArc
 50
44.99999999999998
 51
117.6923076923087
  0
ARC
  5
269
330
4B1
100
AcDbEntity
  8
ToolPath2
100
AcDbCircle
 10
32.82121121500101
 20
5.593002347372087
 30
0.0
 40
1.0
100
AcDbArc
 50
45.0
 51
131.5384615384625
  0
ARC
  5
273
330
4B1
100
AcDbEntity
  8
ToolPath2
100
AcDbCircle
 10
33.65685424949238
 20
9.0
 30
0.0
 40
1.0
100
AcDbArc
 50
45.00000000000015
 51
90.0
  0
LINE
  5
274
330
4B1
100
AcDbEntity
  8
ToolPath2
100
AcDbLine
 10
31.04684178311843
 20
8.0
 30
0.0
 11
32.82842712474619
 21
8.0
 31
0.0
  0
ARC
  5
275
330
4B1
100
AcDbEntity
  8
ToolPath2
100
AcDbCircle
 10
32.82842712474619
 20
6.999999999999999
 30
0.0
 40
1.0
100
AcDbArc
 50
45.0
 51
90.0
  0
ARC
  5
276
330
4B1
100
AcDbEntity
  8
ToolPath2
100
AcDbCircle
 10
31.04684178311843
 20
7.0
 30
0.0
 40
1.0
100
AcDbArc
 50
90.0
 51
145.3846153846159
  0
LINE
  5
277
330
4B1
100
AcDbEntity
  8
ToolPath2
100
AcDbLine
 10
29.10349994062214
 20
9.0
 30
0.0
 11
33.24264068711928
 21
9.0
 31
0.0
  0
ARC
  5
278
330
4B1
100
AcDbEntity
  8
ToolPath2
100
AcDbCircle
 10
33.24264068711928
 20
8.0
 30
0.0
 40
1.0
100
AcDbArc
 50
44.99999999999991
 51
90.0
  0
ARC
  5
279
330
4B1
100
AcDbEntity
  8
ToolPath2
100
AcDbCircle
 10
29.10349994062214
 20
8.0
 30
0.0
 40
1.0
100
AcDbArc
 50
90.0
 51
159.2307692307685
  0
ARC
  5
27D
330
4B1
100
AcDbEntity
  8
ToolPath2
100
AcDbCircle
 10
34.57106781186546
 20
9.5
 30
0.0
 40
1.0
100
AcDbArc
 50
45.00000000000015
 51
90.0
  0
ARC
  5
27E
330
4B1
100
AcDbEntity
  8
ToolPath2
100
AcDbCircle
 10
35.48528137423855
 20
10.0
 30
0.0
 40
1.0
100
AcDbArc
 50
45.00000000000015
 51
90.0
  0
ARC
  5
27F
330
4B1
100
AcDbEntity
  8
ToolPath2
100
AcDbCircle
 10
36.39949493661165
 20
10.5
 30
0.0
 40
1.0
100
AcDbArc
 50
45.00000000000015
 51
90.0
  0
ARC
  5
280
330
4B1
100
AcDbEntity
  8
ToolPath2
100
AcDbCircle
 10
37.31370849898475
 20
11.0
 30
0.0
 40
1.0
100
AcDbArc
 50
45.00000000000008
 51
90.0
  0
ARC
  5
281
330
4B1
100
AcDbEntity
  8
ToolPath2
100
AcDbCircle
 10
38.22792206135783
 20
11.5
 30
0.0
 40
1.0
100
AcDbArc
 50
44.99999999999986
 51
90.0
  0
ARC
  5
282
330
4B1
100
AcDbEntity
  8
ToolPath2
100
AcDbCircle
 10
39.14213562373093
 20
12.0
 30
0.0
 40
1.0
100
AcDbArc
 50
45.00000000000008
 51
90.0
  0
CIRCLE
  5
2C3
330
4B1
100
AcDbEntity
  8
PunchPorts
100
AcDbCircle
 10
50.0
 20
2.0
 30
0.0
 40
0.7000000000000028
  0
CIRCLE
  5
2C4
330
4B1
100
AcDbEntity
  8
PunchPorts
100
AcDbCircle
 10
50.0
 20
-2.0
 30
0.0
 40
0.7000000000000028
  0
CIRCLE
  5
2C5
330
4B1
100
AcDbEntity
  8
PunchPorts
100
AcDbCircle
 10
54.0
 20
2.0
 30
0.0
 40
0.7000000000000028
  0
CIRCLE
  5
2C6
330
4B1
100
AcDbEntity
  8
PunchPorts
100
AcDbCircle
 10
54.0
 20
-2.0
 30
0.0
 40
0.7000000000000028
  0
CIRCLE
  5
2C7
330
4B1
100
AcDbEntity
  8
PunchPorts
100
AcDbCircle
 10
58.0
 20
2.0
 30
0.0
 40
0.7000000000000028
  0
CIRCLE
  5
2C8
330
4B1
100
AcDbEntity
  8
PunchPorts
100
AcDbCircle
 10
62.0
 20
2.0
 30
0.0
 40
0.7000000000000028
  0
CIRCLE
  5
2C9
330
4B1
100
AcDbEntity
  8
PunchPorts
100
AcDbCircle
 10
58.0
 20
-2.0
 30
0.0
 40
0.7000000000000028
  0
CIRCLE
  5
2CA
330
4B1
100
AcDbEntity
  8
PunchPorts
100
AcDbCircle
 10
62.0
 20
-2.0
 30
0.0
 40
0.7000000000000028
  0
CIRCLE
  5
2CB
330
4B1
100
AcDbEntity
  8
PunchPorts
100
AcDbCircle
 10
50.0
 20
6.0
 30
0.0
 40
0.7000000000000028
  0
CIRCLE
  5
2CC
330
4B1
100
AcDbEntity
  8
PunchPorts
100
AcDbCircle
 10
50.0
 20
10.0
 30
0.0
 40
0.7000000000000028
  0
CIRCLE
  5
2CD
330
4B1
100
AcDbEntity
  8
PunchPorts
100
AcDbCircle
 10
54.0
 20
10.0
 30
0.0
 40
0.7000000000000028
  0
CIRCLE
  5
2CE
330
4B1
100
AcDbEntity
  8
PunchPorts
100
AcDbCircle
 10
58.0
 20
10.0
 30
0.0
 40
0.7000000000000028
  0
CIRCLE
  5
2CF
330
4B1
100
AcDbEntity
  8
PunchPorts
100
AcDbCircle
 10
62.0
 20
10.0
 30
0.0
 40
0.7000000000000028
  0
CIRCLE
  5
2D0
330
4B1
100
AcDbEntity
  8
PunchPorts
100
AcDbCircle
 10
54.0
 20
6.0
 30
0.0
 40
0.7000000000000028
  0
CIRCLE
  5
2D1
330
4B1
100
AcDbEntity
  8
PunchPorts
100
AcDbCircle
 10
58.0
 20
6.0
 30
0.0
 40
0.7000000000000028
  0
CIRCLE
  5
2D2
330
4B1
100
AcDbEntity
  8
PunchPorts
100
AcDbCircle
 10
62.0
 20
6.0
 30
0.0
 40
0.7000000000000028
  0
CIRCLE
  5
2D3
330
4B1
100
AcDbEntity
  8
PunchPorts
100
AcDbCircle
 10
50.0
 20
-6.0
 30
0.0
 40
0.7000000000000028
  0
CIRCLE
  5
2D4
330
4B1
100
AcDbEntity
  8
PunchPorts
100
AcDbCircle
 10
50.0
 20
-10.0
 30
0.0
 40
0.7000000000000028
  0
CIRCLE
  5
2D5
330
4B1
100
AcDbEntity
  8
PunchPorts
100
AcDbCircle
 10
54.0
 20
-10.0
 30
0.0
 40
0.7000000000000028
  0
CIRCLE
  5
2D6
330
4B1
100
AcDbEntity
  8
PunchPorts
100
AcDbCircle
 10
54.0
 20
-6.0
 30
0.0
 40
0.7000000000000028
  0
CIRCLE
  5
2D7
330
4B1
100
AcDbEntity
  8
PunchPorts
100
AcDbCircle
 10
58.0
 20
-6.0
 30
0.0
 40
0.7000000000000028
  0
CIRCLE
  5
2D8
330
4B1
100
AcDbEntity
  8
PunchPorts
100
AcDbCircle
 10
58.0
 20
-10.0
 30
0.0
 40
0.7000000000000028
  0
CIRCLE
  5
2D9
330
4B1
100
AcDbEntity
  8
PunchPorts
100
AcDbCircle
 10
62.0
 20
-10.0
 30
0.0
 40
0.7000000000000028
  0
CIRCLE
  5
2DA
330
4B1
100
AcDbEntity
  8
PunchPorts
100
AcDbCircle
 10
62.0
 20
-6.0
 30
0.0
 40
0.7000000000000028
  0
LINE
  5
334
330
4B1
100
AcDbEntity
  8
ToolPath2
100
AcDbLine
 10
59.29289321881346
 20
3.292893218813454
 30
0.0
 11
62.0
 21
6.0
 31
0.0
  0
LINE
  5
313
330
4B1
100
AcDbEntity
  8
ToolPath2
100
AcDbLine
 10
59.29289321881346
 20
-0.7071067811865461
 30
0.0
 11
62.0
 21
2.0
 31
0.0
  0
LINE
  5
30B
330
4B1
100
AcDbEntity
  8
ToolPath2
100
AcDbLine
 10
59.29289321881346
 20
-4.707106781186546
 30
0.0
 11
62.0
 21
-2.0
 31
0.0
  0
LINE
  5
303
330
4B1
100
AcDbEntity
  8
ToolPath2
100
AcDbLine
 10
59.29289321881346
 20
-8.707106781186546
 30
0.0
 11
62.0
 21
-6.0
 31
0.0
  0
LINE
  5
345
330
4B1
100
AcDbEntity
  8
ToolPath2
100
AcDbLine
 10
59.29289321881346
 20
7.292893218813454
 30
0.0
 11
62.0
 21
10.0
 31
0.0
  0
LINE
  5
2FB
330
4B1
100
AcDbEntity
  8
ToolPath2
100
AcDbLine
 10
59.29289321881346
 20
-12.70710678118655
 30
0.0
 11
62.0
 21
-10.0
 31
0.0
  0
LINE
  5
335
330
4B1
100
AcDbEntity
  8
ToolPath2
100
AcDbLine
 10
55.79289321881347
 20
3.792893218813463
 30
0.0
 11
58.0
 21
6.0
 31
0.0
  0
LINE
  5
314
330
4B1
100
AcDbEntity
  8
ToolPath2
100
AcDbLine
 10
55.79289321881347
 20
-0.2071067811865372
 30
0.0
 11
58.0
 21
2.0
 31
0.0
  0
LINE
  5
30C
330
4B1
100
AcDbEntity
  8
ToolPath2
100
AcDbLine
 10
55.79289321881347
 20
-4.207106781186537
 30
0.0
 11
58.0
 21
-2.0
 31
0.0
  0
LINE
  5
304
330
4B1
100
AcDbEntity
  8
ToolPath2
100
AcDbLine
 10
55.79289321881347
 20
-8.207106781186537
 30
0.0
 11
58.0
 21
-6.0
 31
0.0
  0
LINE
  5
346
330
4B1
100
AcDbEntity
  8
ToolPath2
100
AcDbLine
 10
55.79289321881347
 20
7.792893218813463
 30
0.0
 11
58.0
 21
10.0
 31
0.0
  0
LINE
  5
2FC
330
4B1
100
AcDbEntity
  8
ToolPath2
100
AcDbLine
 10
55.79289321881347
 20
-12.20710678118654
 30
0.0
 11
58.0
 21
-10.0
 31
0.0
  0
LINE
  5
336
330
4B1
100
AcDbEntity
  8
ToolPath2
100
AcDbLine
 10
52.29289321881346
 20
4.292893218813457
 30
0.0
 11
54.0
 21
6.0
 31
0.0
  0
LINE
  5
315
330
4B1
100
AcDbEntity
  8
ToolPath2
100
AcDbLine
 10
52.29289321881346
 20
0.2928932188134574
 30
0.0
 11
54.0
 21
2.0
 31
0.0
  0
LINE
  5
30D
330
4B1
100
AcDbEntity
  8
ToolPath2
100
AcDbLine
 10
52.29289321881346
 20
-3.707106781186543
 30
0.0
 11
54.0
 21
-2.0
 31
0.0
  0
LINE
  5
305
330
4B1
100
AcDbEntity
  8
ToolPath2
100
AcDbLine
 10
52.29289321881346
 20
-7.707106781186543
 30
0.0
 11
54.0
 21
-6.0
 31
0.0
  0
LINE
  5
347
330
4B1
100
AcDbEntity
  8
ToolPath2
100
AcDbLine
 10
52.29289321881346
 20
8.292893218813457
 30
0.0
 11
54.0
 21
10.0
 31
0.0
  0
LINE
  5
2FD
330
4B1
100
AcDbEntity
  8
ToolPath2
100
AcDbLine
 10
52.29289321881346
 20
-11.70710678118654
 30
0.0
 11
54.0
 21
-10.0
 31
0.0
  0
LINE
  5
337
330
4B1
100
AcDbEntity
  8
ToolPath2
100
AcDbLine
 10
48.79289321881347
 20
4.792893218813465
 30
0.0
 11
50.0
 21
6.0
 31
0.0
  0
LINE
  5
316
330
4B1
100
AcDbEntity
  8
ToolPath2
100
AcDbLine
 10
48.79289321881347
 20
0.7928932188134645
 30
0.0
 11
50.0
 21
2.0
 31
0.0
  0
LINE
  5
30E
330
4B1
100
AcDbEntity
  8
ToolPath2
100
AcDbLine
 10
48.79289321881347
 20
-3.207106781186535
 30
0.0
 11
50.0
 21
-2.0
 31
0.0
  0
LINE
  5
306
330
4B1
100
AcDbEntity
  8
ToolPath2
100
AcDbLine
 10
48.79289321881347
 20
-7.207106781186535
 30
0.0
 11
50.0
 21
-6.0
 31
0.0
  0
LINE
  5
348
330
4B1
100
AcDbEntity
  8
ToolPath2
100
AcDbLine
 10
48.79289321881347
 20
8.792893218813465
 30
0.0
 11
50.0
 21
10.0
 31
0.0
  0
LINE
  5
2FE
330
4B1
100
AcDbEntity
  8
ToolPath2
100
AcDbLine
 10
48.79289321881347
 20
-11.20710678118654
 30
0.0
 11
50.0
 21
-10.0
 31
0.0
  0
ARC
  5
338
330
4B1
100
AcDbEntity
  8
ToolPath2
100
AcDbCircle
 10
58.58578643762691
 20
3.999999999999998
 30
0.0
 40
1.0
100
AcDbArc
 50
270.0
 51
315.0000000000001
  0
ARC
  5
317
330
4B1
100
AcDbEntity
  8
ToolPath2
100
AcDbCircle
 10
58.58578643762691
 20
-0.0000000000000018
 30
0.0
 40
1.0
100
AcDbArc
 50
270.0
 51
315.0000000000001
  0
ARC
  5
30F
330
4B1
100
AcDbEntity
  8
ToolPath2
100
AcDbCircle
 10
58.58578643762691
 20
-4.000000000000002
 30
0.0
 40
1.0
100
AcDbArc
 50
270.0
 51
315.0000000000001
  0
ARC
  5
307
330
4B1
100
AcDbEntity
  8
ToolPath2
100
AcDbCircle
 10
58.58578643762691
 20
-8.000000000000002
 30
0.0
 40
1.0
100
AcDbArc
 50
270.0
 51
315.0000000000001
  0
ARC
  5
349
330
4B1
100
AcDbEntity
  8
ToolPath2
100
AcDbCircle
 10
58.58578643762691
 20
7.999999999999998
 30
0.0
 40
1.0
100
AcDbArc
 50
270.0
 51
315.0000000000001
  0
ARC
  5
2FF
330
4B1
100
AcDbEntity
  8
ToolPath2
100
AcDbCircle
 10
58.58578643762691
 20
-12.0
 30
0.0
 40
1.0
100
AcDbArc
 50
270.0
 51
315.0000000000001
  0
ARC
  5
339
330
4B1
100
AcDbEntity
  8
ToolPath2
100
AcDbCircle
 10
55.08578643762692
 20
4.500000000000011
 30
0.0
 40
1.0
100
AcDbArc
 50
270.0
 51
315.0
  0
ARC
  5
318
330
4B1
100
AcDbEntity
  8
ToolPath2
100
AcDbCircle
 10
55.08578643762692
 20
0.5000000000000107
 30
0.0
 40
1.0
100
AcDbArc
 50
270.0
 51
315.0
  0
ARC
  5
310
330
4B1
100
AcDbEntity
  8
ToolPath2
100
AcDbCircle
 10
55.08578643762692
 20
-3.499999999999989
 30
0.0
 40
1.0
100
AcDbArc
 50
270.0
 51
315.0
  0
ARC
  5
308
330
4B1
100
AcDbEntity
  8
ToolPath2
100
AcDbCircle
 10
55.08578643762692
 20
-7.499999999999989
 30
0.0
 40
1.0
100
AcDbArc
 50
270.0
 51
315.0
  0
ARC
  5
300
330
4B1
100
AcDbEntity
  8
ToolPath2
100
AcDbCircle
 10
55.08578643762692
 20
-11.49999999999999
 30
0.0
 40
1.0
100
AcDbArc
 50
270.0
 51
315.0
  0
ARC
  5
34A
330
4B1
100
AcDbEntity
  8
ToolPath2
100
AcDbCircle
 10
55.08578643762692
 20
8.50000000000001
 30
0.0
 40
1.0
100
AcDbArc
 50
270.0
 51
315.0
  0
ARC
  5
33A
330
4B1
100
AcDbEntity
  8
ToolPath2
100
AcDbCircle
 10
51.58578643762691
 20
5.000000000000005
 30
0.0
 40
1.0
100
AcDbArc
 50
270.0000000000004
 51
315.0
  0
ARC
  5
319
330
4B1
100
AcDbEntity
  8
ToolPath2
100
AcDbCircle
 10
51.58578643762691
 20
1.000000000000005
 30
0.0
 40
1.0
100
AcDbArc
 50
270.0000000000004
 51
315.0
  0
ARC
  5
311
330
4B1
100
AcDbEntity
  8
ToolPath2
100
AcDbCircle
 10
51.58578643762691
 20
-2.999999999999995
 30
0.0
 40
1.0
100
AcDbArc
 50
270.0000000000004
 51
315.0
  0
ARC
  5
309
330
4B1
100
AcDbEntity
  8
ToolPath2
100
AcDbCircle
 10
51.58578643762691
 20
-6.999999999999995
 30
0.0
 40
1.0
100
AcDbArc
 50
270.0000000000004
 51
315.0
  0
ARC
  5
301
330
4B1
100
AcDbEntity
  8
ToolPath2
100
AcDbCircle
 10
51.58578643762691
 20
-10.99999999999999
 30
0.0
 40
1.0
100
AcDbArc
 50
270.0000000000004
 51
315.0
  0
ARC
  5
34B
330
4B1
100
AcDbEntity
  8
ToolPath2
100
AcDbCircle
 10
51.58578643762691
 20
9.000000000000005
 30
0.0
 40
1.0
100
AcDbArc
 50
270.0000000000004
 51
315.0
  0
ARC
  5
33B
330
4B1
100
AcDbEntity
  8
ToolPath2
100
AcDbCircle
 10
48.08578643762692
 20
5.500000000000009
 30
0.0
 40
1.0
100
AcDbArc
 50
270.0
 51
315.0000000000001
  0
ARC
  5
31A
330
4B1
100
AcDbEntity
  8
ToolPath2
100
AcDbCircle
 10
48.08578643762692
 20
1.500000000000009
 30
0.0
 40
1.0
100
AcDbArc
 50
270.0
 51
315.0000000000001
  0
ARC
  5
312
330
4B1
100
AcDbEntity
  8
ToolPath2
100
AcDbCircle
 10
48.08578643762692
 20
-2.499999999999991
 30
0.0
 40
1.0
100
AcDbArc
 50
270.0
 51
315.0000000000001
  0
ARC
  5
30A
330
4B1
100
AcDbEntity
  8
ToolPath2
100
AcDbCircle
 10
48.08578643762692
 20
-6.499999999999991
 30
0.0
 40
1.0
100
AcDbArc
 50
270.0
 51
315.0000000000001
  0
ARC
  5
302
330
4B1
100
AcDbEntity
  8
ToolPath2
100
AcDbCircle
 10
48.08578643762692
 20
-10.49999999999999
 30
0.0
 40
1.0
100
AcDbArc
 50
270.0
 51
315.0000000000001
  0
ARC
  5
34C
330
4B1
100
AcDbEntity
  8
ToolPath2
100
AcDbCircle
 10
48.08578643762692
 20
9.500000000000009
 30
0.0
 40
1.0
100
AcDbArc
 50
270.0
 51
315.0000000000001
  0
LINE
  5
31B
330
4B1
100
AcDbEntity
  8
ToolPath2
100
AcDbLine
 10
40.24264068711928
 20
0.0000000000000053
 30
0.0
 11
51.58578643762692
 21
0.0000000000000053
 31
0.0
  0
LINE
  5
31C
330
4B1
100
AcDbEntity
  8
ToolPath2
100
AcDbLine
 10
39.32842712474617
 20
-0.4999999999999893
 30
0.0
 11
55.08578643762692
 21
-0.4999999999999893
 31
0.0
  0
LINE
  5
31D
330
4B1
100
AcDbEntity
  8
ToolPath2
100
AcDbLine
 10
38.41421356237309
 20
-1.000000000000002
 30
0.0
 11
58.58578643762691
 21
-1.000000000000002
 31
0.0
  0
LINE
  5
31E
330
4B1
100
AcDbEntity
  8
ToolPath2
100
AcDbLine
 10
35.04264068711927
 20
-5.000000000000002
 30
0.0
 11
58.58578643762691
 21
-5.000000000000002
 31
0.0
  0
LINE
  5
31F
330
4B1
100
AcDbEntity
  8
ToolPath2
100
AcDbLine
 10
33.82051151389581
 20
-4.499999999999989
 30
0.0
 11
55.08578643762692
 21
-4.499999999999989
 31
0.0
  0
LINE
  5
320
330
4B1
100
AcDbEntity
  8
ToolPath2
100
AcDbLine
 10
37.29289321881343
 20
-3.999999999999995
 30
0.0
 11
51.58578643762692
 21
-3.999999999999995
 31
0.0
  0
LINE
  5
321
330
4B1
100
AcDbEntity
  8
ToolPath2
100
AcDbLine
 10
38.91421356237306
 20
-3.499999999999991
 30
0.0
 11
48.08578643762692
 21
-3.499999999999991
 31
0.0
  0
LINE
  5
322
330
4B1
100
AcDbEntity
  8
ToolPath2
100
AcDbLine
 10
41.15685424949237
 20
0.5000000000000089
 30
0.0
 11
48.08578643762692
 21
0.5000000000000089
 31
0.0
  0
LINE
  5
323
330
4B1
100
AcDbEntity
  8
ToolPath2
100
AcDbLine
 10
33.95685424949237
 20
-7.499999999999991
 30
0.0
 11
48.08578643762692
 21
-7.499999999999991
 31
0.0
  0
LINE
  5
324
330
4B1
100
AcDbEntity
  8
ToolPath2
100
AcDbLine
 10
34.87106781186545
 20
-7.999999999999995
 30
0.0
 11
51.58578643762692
 21
-7.999999999999995
 31
0.0
  0
LINE
  5
325
330
4B1
100
AcDbEntity
  8
ToolPath2
100
AcDbLine
 10
35.78528137423855
 20
-8.49999999999999
 30
0.0
 11
55.08578643762692
 21
-8.49999999999999
 31
0.0
  0
LINE
  5
326
330
4B1
100
AcDbEntity
  8
ToolPath2
100
AcDbLine
 10
36.69949493661165
 20
-9.000000000000002
 30
0.0
 11
58.58578643762691
 21
-9.000000000000002
 31
0.0
  0
ARC
  5
327
330
4B1
100
AcDbEntity
  8
ToolPath2
100
AcDbCircle
 10
36.69949493661165
 20
-10.0
 30
0.0
 40
1.0
100
AcDbArc
 50
90.0
 51
134.9999999999998
  0
ARC
  5
328
330
4B1
100
AcDbEntity
  8
ToolPath2
100
AcDbCircle
 10
35.78528137423855
 20
-9.499999999999991
 30
0.0
 40
1.0
100
AcDbArc
 50
90.0
 51
134.9999999999997
  0
ARC
  5
32A
330
4B1
100
AcDbEntity
  8
ToolPath2
100
AcDbCircle
 10
34.87106781186545
 20
-8.999999999999995
 30
0.0
 40
1.0
100
AcDbArc
 50
90.0
 51
134.9999999999999
  0
ARC
  5
32B
330
4B1
100
AcDbEntity
  8
ToolPath2
100
AcDbCircle
 10
33.95685424949237
 20
-8.499999999999991
 30
0.0
 40
1.0
100
AcDbArc
 50
90.0
 51
134.9999999999998
  0
ARC
  5
32C
330
4B1
100
AcDbEntity
  8
ToolPath2
100
AcDbCircle
 10
35.04264068711927
 20
-6.000000000000002
 30
0.0
 40
1.0
100
AcDbArc
 50
90.0
 51
134.9999999999997
  0
ARC
  5
32D
330
4B1
100
AcDbEntity
  8
ToolPath2
100
AcDbCircle
 10
33.82051151389581
 20
-3.499999999999989
 30
0.0
 40
1.0
100
AcDbArc
 50
242.3076923076923
 51
270.0
  0
ARC
  5
32F
330
4B1
100
AcDbEntity
  8
ToolPath2
100
AcDbCircle
 10
38.91421356237306
 20
-2.499999999999991
 30
0.0
 40
1.0
100
AcDbArc
 50
224.9999999999999
 51
270.0
  0
LINE
  5
331
330
4B1
100
AcDbEntity
  8
ToolPath2
100
AcDbLine
 10
36.58578643762688
 20
-3.707106781186542
 30
0.0
 11
35.65292463754366
 21
-2.774244981103311
 31
0.0
  0
ARC
  5
332
330
4B1
100
AcDbEntity
  8
ToolPath2
100
AcDbCircle
 10
37.29289321881343
 20
-2.999999999999995
 30
0.0
 40
1.0
100
AcDbArc
 50
224.9999999999998
 51
270.0
  0
ARC
  5
333
330
4B1
100
AcDbEntity
  8
ToolPath2
100
AcDbCircle
 10
34.9458178563571
 20
-3.481351762289856
 30
0.0
 40
1.0
100
AcDbArc
 50
44.99999999999972
 51
76.15384615384689
  0
ARC
  5
33C
330
4B1
100
AcDbEntity
  8
ToolPath2
100
AcDbCircle
 10
38.41421356237309
 20
-0.0000000000000018
 30
0.0
 40
1.0
100
AcDbArc
 50
225.0
 51
270.0
  0
ARC
  5
33D
330
4B1
100
AcDbEntity
  8
ToolPath2
100
AcDbCircle
 10
39.32842712474617
 20
0.5000000000000107
 30
0.0
 40
1.0
100
AcDbArc
 50
224.9999999999999
 51
270.0
  0
ARC
  5
33E
330
4B1
100
AcDbEntity
  8
ToolPath2
100
AcDbCircle
 10
40.24264068711928
 20
1.000000000000005
 30
0.0
 40
1.0
100
AcDbArc
 50
225.0000000000001
 51
270.0
  0
ARC
  5
340
330
4B1
100
AcDbEntity
  8
ToolPath2
100
AcDbCircle
 10
41.15685424949237
 20
1.500000000000009
 30
0.0
 40
1.0
100
AcDbArc
 50
224.9999999999998
 51
270.0
  0
LINE
  5
341
330
4B1
100
AcDbEntity
  8
ToolPath2
100
AcDbLine
 10
40.07106781186547
 20
2.999999999999998
 30
0.0
 11
58.58578643762691
 21
2.999999999999998
 31
0.0
  0
LINE
  5
342
330
4B1
100
AcDbEntity
  8
ToolPath2
100
AcDbLine
 10
40.98528137423855
 20
3.500000000000011
 30
0.0
 11
55.08578643762692
 21
3.500000000000011
 31
0.0
  0
LINE
  5
343
330
4B1
100
AcDbEntity
  8
ToolPath2
100
AcDbLine
 10
41.89949493661165
 20
4.000000000000005
 30
0.0
 11
51.58578643762692
 21
4.000000000000005
 31
0.0
  0
LINE
  5
344
330
4B1
100
AcDbEntity
  8
ToolPath2
100
AcDbLine
 10
42.81370849898474
 20
4.500000000000009
 30
0.0
 11
48.08578643762692
 21
4.500000000000009
 31
0.0
  0
LINE
  5
34D
330
4B1
100
AcDbEntity
  8
ToolPath2
100
AcDbLine
 10
41.72792206135784
 20
6.999999999999998
 30
0.0
 11
58.58578643762691
 21
6.999999999999998
 31
0.0
  0
LINE
  5
34E
330
4B1
100
AcDbEntity
  8
ToolPath2
100
AcDbLine
 10
42.64213562373092
 20
7.500000000000011
 30
0.0
 11
55.08578643762692
 21
7.500000000000011
 31
0.0
  0
LINE
  5
34F
330
4B1
100
AcDbEntity
  8
ToolPath2
100
AcDbLine
 10
43.55634918610401
 20
8.000000000000005
 30
0.0
 11
51.58578643762692
 21
8.000000000000005
 31
0.0
  0
LINE
  5
350
330
4B1
100
AcDbEntity
  8
ToolPath2
100
AcDbLine
 10
44.4705627484771
 20
8.500000000000009
 30
0.0
 11
48.08578643762692
 21
8.500000000000009
 31
0.0
  0
ARC
  5
351
330
4B1
100
AcDbEntity
  8
ToolPath2
100
AcDbCircle
 10
40.07106781186547
 20
3.999999999999998
 30
0.0
 40
1.0
100
AcDbArc
 50
225.0
 51
270.0
  0
ARC
  5
352
330
4B1
100
AcDbEntity
  8
ToolPath2
100
AcDbCircle
 10
40.98528137423855
 20
4.500000000000011
 30
0.0
 40
1.0
100
AcDbArc
 50
225.0
 51
270.0
  0
ARC
  5
353
330
4B1
100
AcDbEntity
  8
ToolPath2
100
AcDbCircle
 10
41.89949493661165
 20
5.000000000000005
 30
0.0
 40
1.0
100
AcDbArc
 50
225.0
 51
270.0
  0
ARC
  5
354
330
4B1
100
AcDbEntity
  8
ToolPath2
100
AcDbCircle
 10
42.81370849898474
 20
5.500000000000009
 30
0.0
 40
1.0
100
AcDbArc
 50
225.0
 51
270.0
  0
ARC
  5
355
330
4B1
100
AcDbEntity
  8
ToolPath2
100
AcDbCircle
 10
41.72792206135784
 20
7.999999999999998
 30
0.0
 40
1.0
100
AcDbArc
 50
225.0
 51
270.0
  0
ARC
  5
356
330
4B1
100
AcDbEntity
  8
ToolPath2
100
AcDbCircle
 10
42.64213562373092
 20
8.50000000000001
 30
0.0
 40
1.0
100
AcDbArc
 50
224.9999999999999
 51
270.0
  0
ARC
  5
357
330
4B1
100
AcDbEntity
  8
ToolPath2
100
AcDbCircle
 10
43.55634918610401
 20
9.000000000000005
 30
0.0
 40
1.0
100
AcDbArc
 50
224.9999999999999
 51
270.0
  0
ARC
  5
358
330
4B1
100
AcDbEntity
  8
ToolPath2
100
AcDbCircle
 10
44.4705627484771
 20
9.500000000000009
 30
0.0
 40
1.0
100
AcDbArc
 50
224.9999999999999
 51
270.0
  0
LWPOLYLINE
  5
35C
330
4B1
100
AcDbEntity
  8
0
100
AcDbPolyline
 90
        4
 70
   129
 43
0.0
 10
-42.5
 20
-14.375
 10
42.5
 20
-14.375
 10
42.5
 20
14.375
 10
-42.5
 20
14.375
  0
ARC
  5
381
330
4B1
100
AcDbEntity
  8
Ball
100
AcDbCircle
 10
50.0
 20
-30.0
 30
0.0
 40
0.25
100
AcDbArc
 50
180.0
 51
0.0
  0
LINE
  5
380
330
4B1
100
AcDbEntity
  8
Ball
100
AcDbLine
 10
49.75
 20
-30.0
 30
0.0
 11
50.25
 21
-30.0
 31
0.0
  0
ARC
  5
383
330
4B1
100
AcDbEntity
  8
Ball
100
AcDbCircle
 10
50.0
 20
-30.0
 30
0.0
 40
10.75
100
AcDbArc
 50
0.0
 51
180.0
  0
ARC
  5
384
330
4B1
100
AcDbEntity
  8
Ball
100
AcDbCircle
 10
50.0
 20
-30.0
 30
0.0
 40
10.25
100
AcDbArc
 50
0.0
 51
180.0
  0
MTEXT
  5
385
330
4B1
100
AcDbEntity
  8
Ball
100
AcDbMText
 10
50.0
 20
-28.0
 30
0.0
 40
1.0
 41
0.0
 46
0.0
 71
     2
 72
     1
  1
0.09817477
  7
textstyle11
 73
     1
 44
1.0
  0
MTEXT
  5
386
330
4B1
100
AcDbEntity
  8
Ball
100
AcDbMText
 10
50.0
 20
-26.0
 30
0.0
 40
1.0
 41
0.0
 46
0.0
 71
     2
 72
     1
  1
33mm Pump Path
  7
textstyle12
 73
     1
 44
1.0
  0
DIMENSION
  5
46A
330
4B1
100
AcDbEntity
  8
0
100
AcDbDimension
280
     0
 10
-56.0
 20
14.375
 30
0.0
 11
-57.875
 21
0.0000000000000002
 31
0.0
 70
    32
 71
     5
 42
-1.0
 73
     0
 74
     0
 75
     0
  3
QCADDimStyle
100
AcDbAlignedDimension
 13
-42.5
 23
14.375
 33
0.0
 14
-42.5
 24
-14.375
 34
0.0
 50
90.0
100
AcDbRotatedDimension
1001
ACAD
1000
DSTYLE
1002
{
1070
   279
1070
     2
1070
   179
1070
     3
1070
    41
1040
2.5
1070
    79
1070
     2
1070
   176
1070
     0
1070
   177
1070
     0
1070
   178
1070
     0
1070
    44
1040
1.25
1070
    42
1040
0.625
1070
   147
1040
0.625
1070
   140
1040
2.5
1070
    78
1070
     8
1002
}
  0
LWPOLYLINE
  5
471
330
4B1
100
AcDbEntity
  8
0
100
AcDbPolyline
 90
        4
 70
   129
 43
0.0
 10
86.0
 20
0.0
 10
114.0
 20
0.0
 10
114.0
 20
1.200000000000003
 10
86.0
 20
1.200000000000003
  0
LWPOLYLINE
  5
472
330
4B1
100
AcDbEntity
  8
0
100
AcDbPolyline
 90
        4
 70
   129
 43
0.0
 10
85.625
 20
1.200000000000003
 10
114.375
 20
1.200000000000003
 10
114.375
 20
2.400000000000006
 10
85.625
 20
2.400000000000006
  0
LWPOLYLINE
  5
473
330
4B1
100
AcDbEntity
  8
0
100
AcDbPolyline
 90
        4
 70
   129
 43
0.0
 10
85.625
 20
2.400000000000006
 10
114.375
 20
2.400000000000006
 10
114.375
 20
12.40000000000001
 10
85.625
 20
12.40000000000001
  0
LWPOLYLINE
  5
474
330
4B1
100
AcDbEntity
  8
0
100
AcDbPolyline
 90
        4
 70
   129
 43
0.0
 10
88.0
 20
2.400000000000006
 10
112.0
 20
2.400000000000006
 10
112.0
 20
5.400000000000006
 10
88.0
 20
5.400000000000006
  0
LWPOLYLINE
  5
475
330
4B1
100
AcDbEntity
  8
0
100
AcDbPolyline
 90
        4
 70
   129
 43
0.0
 10
92.0
 20
5.400000000000006
 10
108.0
 20
5.400000000000006
 10
108.0
 20
8.400000000000006
 10
92.0
 20
8.400000000000006
  0
LWPOLYLINE
  5
476
330
4B1
100
AcDbEntity
  8
0
100
AcDbPolyline
 90
        4
 70
   129
 43
0.0
 10
85.625
 20
0.0
 10
114.375
 20
0.0
 10
114.375
 20
22.5
 10
85.625
 20
22.5
  0
LWPOLYLINE
  5
477
330
4B1
100
AcDbEntity
  8
Ball
100
AcDbPolyline
 90
        4
 70
   129
 43
0.0
 10
-42.5
 20
20.0
 10
42.5
 20
20.0
 10
42.5
 20
42.5
 10
-42.5
 20
42.5
  0
LWPOLYLINE
  5
48F
330
4B1
100
AcDbEntity
  8
Fluidic
100
AcDbPolyline
 90
       12
 70
   129
 43
0.0
 10
-42.5
 20
23.7
 42
0.414213562373095
 10
-38.8
 20
20.0
 10
38.8
 20
20.0
 42
0.414213562373095
 10
42.5
 20
23.7
 10
42.5
 20
41.25
 10
41.3
 20
41.25
 10
41.3
 20
23.7
 42
-0.414213562373095
 10
38.8
 20
21.2
 10
-38.8
 20
21.2
 42
-0.414213562373095
 10
-41.3
 20
23.7
 10
-41.3
 20
41.25
 10
-42.5
 20
41.25
  0
LWPOLYLINE
  5
48B
330
4B1
100
AcDbEntity
  8
0
100
AcDbPolyline
 90
        4
 70
   129
 43
0.0
 10
-38.5
 20
21.2
 10
38.5
 20
21.2
 10
38.5
 20
22.40000000000001
 10
-38.5
 20
22.40000000000001
  0
LWPOLYLINE
  5
48C
330
4B1
100
AcDbEntity
  8
0
100
AcDbPolyline
 90
        4
 70
   129
 43
0.0
 10
-41.0
 20
22.40000000000001
 10
41.0
 20
22.40000000000001
 10
41.0
 20
34.40000000000001
 10
-41.0
 20
34.40000000000001
  0
VIEWPORT
  5
57A
330
4AD
100
AcDbEntity
 67
     1
  8
0
 62
    18
420
        0
100
AcDbViewport
 10
5.25
 20
4.0
 30
0.0
 40
11.638
 41
8.993
 68
     1
 69
     1
 12
5.25
 22
4.0
 13
0.0
 23
0.0
 14
0.5
 24
0.5
 15
0.5
 25
0.5
 16
0.0
 26
0.0
 36
1.0
 17
0.0
 27
0.0
 37
0.0
 42
50.0
 43
0.0
 44
0.0
 45
8.993
 50
0.0
 51
0.0
 72
   100
 90
   557152
  1

281
     0
 71
     1
 74
     0
110
0.0
120
0.0
130
0.0
111
1.0
121
0.0
131
0.0
112
0.0
122
1.0
132
0.0
 79
     0
146
0.0
170
     0
 61
     5
292
     1
282
     1
141
0.0
142
0.0
 63
   256
361
57B
  0
ENDSEC
  0
SECTION
  2
OBJECTS
  0
DICTIONARY
  5
49F
330
0
100
AcDbDictionary
281
     1
  3
ACAD_DETAILVIEWSTYLE
350
585
  3
ACAD_GROUP
350
4A0
  3
ACAD_LAYOUT
350
4AC
  3
ACAD_MATERIAL
350
4D5
  3
ACAD_MLEADERSTYLE
350
4FD
  3
ACAD_MLINESTYLE
350
4A9
  3
ACAD_PLOTSETTINGS
350
4AB
  3
ACAD_PLOTSTYLENAME
350
4A1
  3
ACAD_SCALELIST
350
4D9
  3
ACAD_SECTIONVIEWSTYLE
350
586
  3
ACAD_TABLESTYLE
350
4FB
  3
ACAD_VISUALSTYLE
350
4BC
  3
ACDB_RECOMPOSE_DATA
350
582
  3
AcDbVariableDictionary
350
57E
  3
QCAD_OBJECTS
350
501
  0
SUN
  5
4FF
330
4BB
100
AcDbSun
 90
        1
290
     0
 63
     7
421
 16777215
 40
1.0
291
     1
 91
  2455826
 92
 54000000
292
     0
 70
     2
 71
   256
280
     1
  0
SUN
  5
57B
330
57A
100
AcDbSun
 90
        1
290
     0
 63
     7
421
 16777215
 40
1.0
291
     1
 91
  2455826
 92
 54000000
292
     0
 70
     2
 71
   256
280
     1
  0
DICTIONARY
  5
585
102
{ACAD_REACTORS
330
49F
102
}
330
49F
100
AcDbDictionary
281
     1
  0
DICTIONARY
  5
4A0
102
{ACAD_REACTORS
330
49F
102
}
330
49F
100
AcDbDictionary
281
     1
  0
DICTIONARY
  5
4AC
102
{ACAD_REACTORS
330
49F
102
}
330
49F
100
AcDbDictionary
281
     1
  3
Layout1
350
4B0
  3
Model
350
4B4
  0
DICTIONARY
  5
4D5
102
{ACAD_REACTORS
330
49F
102
}
330
49F
100
AcDbDictionary
281
     1
  3
ByBlock
350
4D7
  3
ByLayer
350
4D6
  3
Global
350
4D8
  0
DICTIONARY
  5
4FD
102
{ACAD_REACTORS
330
49F
102
}
330
49F
100
AcDbDictionary
281
     1
  3
Standard
350
4FE
  0
DICTIONARY
  5
4A9
102
{ACAD_REACTORS
330
49F
102
}
330
49F
100
AcDbDictionary
281
     1
  3
Standard
350
4AA
  0
DICTIONARY
  5
4AB
102
{ACAD_REACTORS
330
49F
102
}
330
49F
100
AcDbDictionary
281
     1
  0
ACDBDICTIONARYWDFLT
  5
4A1
102
{ACAD_REACTORS
330
49F
102
}
330
49F
100
AcDbDictionary
281
     1
  3
Normal
350
4A2
100
AcDbDictionaryWithDefault
340
4A2
  0
DICTIONARY
  5
4D9
102
{ACAD_REACTORS
330
49F
102
}
330
49F
100
AcDbDictionary
281
     1
  3
A0
350
4DA
  3
A1
350
4DB
  3
A2
350
4DC
  3
A3
350
4DD
  3
A4
350
4DE
  3
A5
350
4DF
  3
A6
350
4E0
  3
A7
350
4E1
  3
A8
350
4E2
  3
A9
350
4E3
  3
B0
350
4E4
  3
B1
350
4E5
  3
B2
350
4E6
  3
B3
350
4E7
  3
B4
350
4E8
  3
B5
350
4E9
  3
B6
350
4EA
  3
B7
350
4EB
  3
B8
350
4EC
  3
B9
350
4ED
  3
C0
350
4EE
  3
C1
350
4EF
  3
C2
350
4F0
  3
C3
350
4F1
  3
C4
350
4F2
  3
C5
350
4F3
  3
C6
350
4F4
  3
C7
350
4F5
  3
C8
350
4F6
  3
C9
350
4F7
  3
D0
350
4F8
  3
D1
350
4F9
  3
D2
350
4FA
  0
DICTIONARY
  5
586
102
{ACAD_REACTORS
330
49F
102
}
330
49F
100
AcDbDictionary
281
     1
  0
DICTIONARY
  5
4FB
102
{ACAD_REACTORS
330
49F
102
}
330
49F
100
AcDbDictionary
281
     1
  3
Standard
350
4FC
  0
DICTIONARY
  5
4BC
102
{ACAD_REACTORS
330
49F
102
}
330
49F
100
AcDbDictionary
281
     1
  3
2dWireframe
350
4C1
  3
Basic
350
4C4
  3
Brighten
350
4C8
  3
ColorChange
350
4CC
  3
Conceptual
350
4C6
  3
Dim
350
4C7
  3
EdgeColorOff
350
4CF
  3
Facepattern
350
4CB
  3
Flat
350
4BD
  3
FlatWithEdges
350
4BE
  3
Gouraud
350
4BF
  3
GouraudWithEdges
350
4C0
  3
Hidden
350
4C3
  3
JitterOff
350
4CD
  3
Linepattern
350
4CA
  3
OverhangOff
350
4CE
  3
Realistic
350
4C5
  3
Shaded
350
4D4
  3
Shaded with edges
350
4D3
  3
Shades of Gray
350
4D0
  3
Sketchy
350
4D1
  3
Thicken
350
4C9
  3
Wireframe
350
4C2
  3
X-Ray
350
4D2
  0
XRECORD
  5
582
102
{ACAD_REACTORS
330
49F
102
}
330
49F
100
AcDbXrecord
280
     1
 90
        1
330
4FC
  0
DICTIONARY
  5
57E
102
{ACAD_REACTORS
330
49F
102
}
330
49F
100
AcDbDictionary
281
     1
  3
CANNOSCALE
350
57F
  3
CMLEADERSTYLE
350
584
  3
CTABLESTYLE
350
583
  0
DICTIONARY
  5
501
102
{ACAD_REACTORS
330
49F
102
}
330
49F
100
AcDbDictionary
281
     1
  3
ColorSettings/BackgroundColor
350
503
  3
ColorSettings/ColorMode
350
504
  3
Grid/DisplayGrid00
350
505
  3
Grid/DisplayGrid01
350
506
  3
Grid/DisplayGrid02
350
507
  3
Grid/DisplayGrid03
350
508
  3
Grid/GridSpacingX00
350
509
  3
Grid/GridSpacingX01
350
50A
  3
Grid/GridSpacingX02
350
50B
  3
Grid/GridSpacingX03
350
50C
  3
Grid/GridSpacingY00
350
50D
  3
Grid/GridSpacingY01
350
50E
  3
Grid/GridSpacingY02
350
50F
  3
Grid/GridSpacingY03
350
510
  3
Grid/IsometricGrid00
350
511
  3
Grid/IsometricGrid01
350
512
  3
Grid/IsometricGrid02
350
513
  3
Grid/IsometricGrid03
350
514
  3
Grid/IsometricProjection00
350
515
  3
Grid/IsometricProjection01
350
516
  3
Grid/IsometricProjection02
350
517
  3
Grid/IsometricProjection03
350
518
  3
Grid/MetaGridSpacingX00
350
519
  3
Grid/MetaGridSpacingX01
350
51A
  3
Grid/MetaGridSpacingX02
350
51B
  3
Grid/MetaGridSpacingX03
350
51C
  3
Grid/MetaGridSpacingY00
350
51D
  3
Grid/MetaGridSpacingY01
350
51E
  3
Grid/MetaGridSpacingY02
350
51F
  3
Grid/MetaGridSpacingY03
350
520
  3
MultiPageSettings/Columns
350
521
  3
MultiPageSettings/GlueMarginsBottom
350
522
  3
MultiPageSettings/GlueMarginsLeft
350
523
  3
MultiPageSettings/GlueMarginsRight
350
524
  3
MultiPageSettings/GlueMarginsTop
350
525
  3
MultiPageSettings/PrintCropMarks
350
526
  3
MultiPageSettings/Rows
350
527
  3
PageSettings/OffsetX
350
528
  3
PageSettings/OffsetY
350
529
  3
PageSettings/PageOrientation
350
52A
  3
PageSettings/PaperHeight
350
52B
  3
PageSettings/PaperWidth
350
52C
  3
PageSettings/Scale
350
52D
  3
PageSettings/ShowPaperBorders
350
52E
  3
QCADVersion
350
52F
  3
UnitSettings/PaperUnit
350
530
  3
ViewportCenter
350
531
  3
ViewportHeight
350
532
  3
ViewportWidth
350
533
  0
LAYOUT
  5
4B0
102
{ACAD_REACTORS
330
4AC
102
}
330
4AC
100
AcDbPlotSettings
  1

  2
none_device
  4
Letter_(8.50_x_11.00_Inches)
  6

 40
6.35
 41
6.35
 42
6.35001
 43
6.35001
 44
215.9
 45
279.4
 46
0.0
 47
0.0
 48
0.0
 49
0.0
140
0.0
141
0.0
142
1.0
143
1.0
 70
   688
 72
     0
 73
     1
 74
     5
  7

 75
    16
 76
     0
 77
     2
 78
   300
147
1.0
148
0.0
149
0.0
100
AcDbLayout
  1
Layout1
 70
     1
 71
     0
 10
-0.25
 20
-0.25
 11
10.75
 21
8.25
 12
0.0
 22
0.0
 32
0.0
 14
0.0
 24
0.0
 34
0.0
 15
0.0
 25
0.0
 35
0.0
146
0.0
 13
0.0
 23
0.0
 33
0.0
 16
1.0
 26
0.0
 36
0.0
 17
0.0
 27
1.0
 37
0.0
 76
     0
330
4AD
331
57A
  0
LAYOUT
  5
4B4
102
{ACAD_REACTORS
330
4AC
102
}
330
4AC
100
AcDbPlotSettings
  1

  2
none_device
  4
Letter_(8.50_x_11.00_Inches)
  6

 40
6.35
 41
6.35
 42
6.35000508
 43
6.35000508
 44
215.9
 45
279.4
 46
0.0
 47
0.0
 48
0.0
 49
0.0
140
0.0
141
0.0
142
1.0
143
1.0
 70
  1712
 72
     0
 73
     0
 74
     0
  7

 75
     0
 76
     0
 77
     2
 78
   300
147
1.0
148
0.0
149
0.0
100
AcDbLayout
  1
Model
 70
     1
 71
     0
 10
0.0
 20
0.0
 11
12.0
 21
9.0
 12
0.0
 22
0.0
 32
0.0
 14
1.000000000000000E+20
 24
1.000000000000000E+20
 34
1.000000000000000E+20
 15
-1.000000000000000E+20
 25
-1.000000000000000E+20
 35
-1.000000000000000E+20
146
0.0
 13
0.0
 23
0.0
 33
0.0
 16
1.0
 26
0.0
 36
0.0
 17
0.0
 27
1.0
 37
0.0
 76
     0
330
4B1
331
4BB
  0
MATERIAL
  5
4D7
102
{ACAD_REACTORS
330
4D5
102
}
330
4D5
100
AcDbMaterial
  1
ByBlock
 72
     1
 94
      127
  0
MATERIAL
  5
4D6
102
{ACAD_REACTORS
330
4D5
102
}
330
4D5
100
AcDbMaterial
  1
ByLayer
 72
     1
 94
      127
  0
MATERIAL
  5
4D8
102
{ACAD_REACTORS
330
4D5
102
}
330
4D5
100
AcDbMaterial
  1
Global
 72
     1
 94
      127
  0
MLEADERSTYLE
  5
4FE
102
{ACAD_REACTORS
330
4FD
102
}
330
4FD
100
AcDbMLeaderStyle
179
     2
170
     2
171
     1
172
     0
 90
        2
 40
0.0
 41
0.0
173
     1
 91
-1056964608
340
4A6
 92
       -2
290
     1
 42
0.09
291
     1
 43
0.36
  3
Standard
341
0
 44
0.18
300

342
4A4
174
     1
178
     6
175
     1
176
     0
 93
-1056964608
 45
0.18
292
     0
297
     0
 46
0.18
343
0
 94
-1056964608
 47
1.0
 49
1.0
140
1.0
293
     1
141
0.0
294
     1
177
     0
142
1.0
295
     0
296
     0
143
0.125
271
     0
272
     9
273
     9
298
     0
  0
MLINESTYLE
  5
4AA
102
{ACAD_REACTORS
330
4A9
102
}
330
4A9
100
AcDbMlineStyle
  2
Standard
 70
     0
  3

 62
   256
 51
90.0
 52
90.0
 71
     2
 49
0.5
 62
   256
  6
BYLAYER
 49
-0.5
 62
   256
  6
BYLAYER
  0
ACDBPLACEHOLDER
  5
4A2
102
{ACAD_REACTORS
330
4A1
102
}
330
4A1
  0
SCALE
  5
4DA
102
{ACAD_REACTORS
330
4D9
102
}
330
4D9
100
AcDbScale
 70
     0
300
1:1
140
1.0
141
1.0
290
     1
  0
SCALE
  5
4DB
102
{ACAD_REACTORS
330
4D9
102
}
330
4D9
100
AcDbScale
 70
     0
300
1:2
140
1.0
141
2.0
290
     0
  0
SCALE
  5
4DC
102
{ACAD_REACTORS
330
4D9
102
}
330
4D9
100
AcDbScale
 70
     0
300
1:4
140
1.0
141
4.0
290
     0
  0
SCALE
  5
4DD
102
{ACAD_REACTORS
330
4D9
102
}
330
4D9
100
AcDbScale
 70
     0
300
1:5
140
1.0
141
5.0
290
     0
  0
SCALE
  5
4DE
102
{ACAD_REACTORS
330
4D9
102
}
330
4D9
100
AcDbScale
 70
     0
300
1:8
140
1.0
141
8.0
290
     0
  0
SCALE
  5
4DF
102
{ACAD_REACTORS
330
4D9
102
}
330
4D9
100
AcDbScale
 70
     0
300
1:10
140
1.0
141
10.0
290
     0
  0
SCALE
  5
4E0
102
{ACAD_REACTORS
330
4D9
102
}
330
4D9
100
AcDbScale
 70
     0
300
1:16
140
1.0
141
16.0
290
     0
  0
SCALE
  5
4E1
102
{ACAD_REACTORS
330
4D9
102
}
330
4D9
100
AcDbScale
 70
     0
300
1:20
140
1.0
141
20.0
290
     0
  0
SCALE
  5
4E2
102
{ACAD_REACTORS
330
4D9
102
}
330
4D9
100
AcDbScale
 70
     0
300
1:30
140
1.0
141
30.0
290
     0
  0
SCALE
  5
4E3
102
{ACAD_REACTORS
330
4D9
102
}
330
4D9
100
AcDbScale
 70
     0
300
1:40
140
1.0
141
40.0
290
     0
  0
SCALE
  5
4E4
102
{ACAD_REACTORS
330
4D9
102
}
330
4D9
100
AcDbScale
 70
     0
300
1:50
140
1.0
141
50.0
290
     0
  0
SCALE
  5
4E5
102
{ACAD_REACTORS
330
4D9
102
}
330
4D9
100
AcDbScale
 70
     0
300
1:100
140
1.0
141
100.0
290
     0
  0
SCALE
  5
4E6
102
{ACAD_REACTORS
330
4D9
102
}
330
4D9
100
AcDbScale
 70
     0
300
2:1
140
2.0
141
1.0
290
     0
  0
SCALE
  5
4E7
102
{ACAD_REACTORS
330
4D9
102
}
330
4D9
100
AcDbScale
 70
     0
300
4:1
140
4.0
141
1.0
290
     0
  0
SCALE
  5
4E8
102
{ACAD_REACTORS
330
4D9
102
}
330
4D9
100
AcDbScale
 70
     0
300
8:1
140
8.0
141
1.0
290
     0
  0
SCALE
  5
4E9
102
{ACAD_REACTORS
330
4D9
102
}
330
4D9
100
AcDbScale
 70
     0
300
10:1
140
10.0
141
1.0
290
     0
  0
SCALE
  5
4EA
102
{ACAD_REACTORS
330
4D9
102
}
330
4D9
100
AcDbScale
 70
     0
300
100:1
140
100.0
141
1.0
290
     0
  0
SCALE
  5
4EB
102
{ACAD_REACTORS
330
4D9
102
}
330
4D9
100
AcDbScale
 70
     0
300
1/128" = 1'-0"
140
0.0078125
141
12.0
290
     0
  0
SCALE
  5
4EC
102
{ACAD_REACTORS
330
4D9
102
}
330
4D9
100
AcDbScale
 70
     0
300
1/64" = 1'-0"
140
0.015625
141
12.0
290
     0
  0
SCALE
  5
4ED
102
{ACAD_REACTORS
330
4D9
102
}
330
4D9
100
AcDbScale
 70
     0
300
1/32" = 1'-0"
140
0.03125
141
12.0
290
     0
  0
SCALE
  5
4EE
102
{ACAD_REACTORS
330
4D9
102
}
330
4D9
100
AcDbScale
 70
     0
300
1/16" = 1'-0"
140
0.0625
141
12.0
290
     0
  0
SCALE
  5
4EF
102
{ACAD_REACTORS
330
4D9
102
}
330
4D9
100
AcDbScale
 70
     0
300
3/32" = 1'-0"
140
0.09375
141
12.0
290
     0
  0
SCALE
  5
4F0
102
{ACAD_REACTORS
330
4D9
102
}
330
4D9
100
AcDbScale
 70
     0
300
1/8" = 1'-0"
140
0.125
141
12.0
290
     0
  0
SCALE
  5
4F1
102
{ACAD_REACTORS
330
4D9
102
}
330
4D9
100
AcDbScale
 70
     0
300
3/16" = 1'-0"
140
0.1875
141
12.0
290
     0
  0
SCALE
  5
4F2
102
{ACAD_REACTORS
330
4D9
102
}
330
4D9
100
AcDbScale
 70
     0
300
1/4" = 1'-0"
140
0.25
141
12.0
290
     0
  0
SCALE
  5
4F3
102
{ACAD_REACTORS
330
4D9
102
}
330
4D9
100
AcDbScale
 70
     0
300
3/8" = 1'-0"
140
0.375
141
12.0
290
     0
  0
SCALE
  5
4F4
102
{ACAD_REACTORS
330
4D9
102
}
330
4D9
100
AcDbScale
 70
     0
300
1/2" = 1'-0"
140
0.5
141
12.0
290
     0
  0
SCALE
  5
4F5
102
{ACAD_REACTORS
330
4D9
102
}
330
4D9
100
AcDbScale
 70
     0
300
3/4" = 1'-0"
140
0.75
141
12.0
290
     0
  0
SCALE
  5
4F6
102
{ACAD_REACTORS
330
4D9
102
}
330
4D9
100
AcDbScale
 70
     0
300
1" = 1'-0"
140
1.0
141
12.0
290
     0
  0
SCALE
  5
4F7
102
{ACAD_REACTORS
330
4D9
102
}
330
4D9
100
AcDbScale
 70
     0
300
1-1/2" = 1'-0"
140
1.5
141
12.0
290
     0
  0
SCALE
  5
4F8
102
{ACAD_REACTORS
330
4D9
102
}
330
4D9
100
AcDbScale
 70
     0
300
3" = 1'-0"
140
3.0
141
12.0
290
     0
  0
SCALE
  5
4F9
102
{ACAD_REACTORS
330
4D9
102
}
330
4D9
100
AcDbScale
 70
     0
300
6" = 1'-0"
140
6.0
141
12.0
290
     0
  0
SCALE
  5
4FA
102
{ACAD_REACTORS
330
4D9
102
}
330
4D9
100
AcDbScale
 70
     0
300
1'-0" = 1'-0"
140
12.0
141
12.0
290
     0
  0
TABLESTYLE
  5
4FC
102
{ACAD_REACTORS
330
4FB
102
}
102
{ACAD_XDICTIONARY
360
580
102
}
330
4FB
100
AcDbTableStyle
  3
Standard
 70
     0
 71
     0
 40
0.06
 41
0.06
280
     0
281
     0
  7
Standard
140
0.18
170
     2
 62
     0
 63
   257
283
     0
 90
        4
 91
        0
  1

274
    -2
284
     1
 64
     0
275
    -2
285
     1
 65
     0
276
    -2
286
     1
 66
     0
277
    -2
287
     1
 67
     0
278
    -2
288
     1
 68
     0
279
    -2
289
     1
 69
     0
  7
Standard
140
0.25
170
     5
 62
     0
 63
   257
283
     0
 90
        4
 91
        0
  1

274
    -2
284
     1
 64
     0
275
    -2
285
     1
 65
     0
276
    -2
286
     1
 66
     0
277
    -2
287
     1
 67
     0
278
    -2
288
     1
 68
     0
279
    -2
289
     1
 69
     0
  7
Standard
140
0.18
170
     5
 62
     0
 63
   257
283
     0
 90
        4
 91
        0
  1

274
    -2
284
     1
 64
     0
275
    -2
285
     1
 65
     0
276
    -2
286
     1
 66
     0
277
    -2
287
     1
 67
     0
278
    -2
288
     1
 68
     0
279
    -2
289
     1
 69
     0
  0
VISUALSTYLE
  5
4C1
102
{ACAD_REACTORS
330
4BC
102
}
330
4BC
100
AcDbVisualStyle
  2
2dWireframe
 70
     4
177
     3
291
     0
 70
    58
 90
        0
176
     1
 90
        2
176
     1
 90
        0
176
     1
 90
        0
176
     1
 40
0.6
176
     1
 40
30.0
176
     1
 62
     7
420
 16777215
176
     1
 90
        1
176
     1
 90
        4
176
     1
 62
     7
176
     1
 62
   257
176
     1
 90
        1
176
     1
 90
        1
176
     1
 40
1.0
176
     1
 90
        0
176
     1
 62
   257
176
     1
 40
1.0
176
     1
 90
        1
176
     1
 90
        6
176
     1
 90
        2
176
     1
 62
     7
176
     1
 90
        5
176
     1
 90
        0
176
     1
 90
        0
176
     1
290
     0
176
     1
 90
        1
176
     1
 40
0.0
176
     1
 90
        0
176
     1
290
     1
176
     1
290
     1
176
     1
290
     0
176
     1
290
     0
176
     1
290
     0
176
     1
290
     0
176
     1
290
     0
176
     1
290
     0
176
     1
290
     0
176
     1
 90
       50
176
     1
 40
0.0
176
     1
 40
1.0
176
     1
 90
        0
176
     1
 62
    18
420
        0
176
     1
 90
       50
176
     1
 90
        3
176
     1
 62
     5
420
      255
176
     1
290
     0
176
     1
 90
       50
176
     1
 90
       50
176
     1
 90
       50
176
     1
290
     0
176
     1
 90
       50
176
     1
 62
   256
176
     0
 40
1.0
176
     0
 90
        2
176
     1
  1
strokes_ogs.tif
176
     1
290
     0
176
     1
 40
1.0
176
     1
 40
1.0
176
     1
  0
VISUALSTYLE
  5
4C4
102
{ACAD_REACTORS
330
4BC
102
}
330
4BC
100
AcDbVisualStyle
  2
Basic
 70
     7
177
     3
291
     1
 70
    58
 90
        1
176
     1
 90
        0
176
     1
 90
        1
176
     1
 90
        0
176
     1
 40
0.6
176
     1
 40
30.0
176
     1
 62
     7
420
 16777215
176
     1
 90
        0
176
     1
 90
        4
176
     1
 62
     7
176
     1
 62
   257
176
     1
 90
        1
176
     1
 90
        1
176
     1
 40
1.0
176
     1
 90
        8
176
     1
 62
     7
176
     1
 40
1.0
176
     1
 90
        1
176
     1
 90
        6
176
     1
 90
        2
176
     1
 62
     7
176
     1
 90
        5
176
     1
 90
        0
176
     1
 90
        0
176
     1
290
     0
176
     1
 90
        1
176
     1
 40
0.0
176
     1
 90
        0
176
     1
290
     0
176
     1
290
     1
176
     1
290
     1
176
     1
290
     0
176
     1
290
     0
176
     1
290
     0
176
     1
290
     0
176
     1
290
     0
176
     1
290
     0
176
     1
 90
       50
176
     1
 40
0.0
176
     1
 40
1.0
176
     1
 90
        0
176
     1
 62
    18
420
        0
176
     1
 90
       50
176
     1
 90
        3
176
     1
 62
     5
420
      255
176
     1
290
     0
176
     1
 90
       50
176
     1
 90
       50
176
     1
 90
       50
176
     1
290
     0
176
     1
 90
       50
176
     1
 62
   256
176
     0
 40
1.0
176
     0
 90
        2
176
     1
  1
strokes_ogs.tif
176
     1
290
     0
176
     1
 40
1.0
176
     1
 40
1.0
176
     1
  0
VISUALSTYLE
  5
4C8
102
{ACAD_REACTORS
330
4BC
102
}
330
4BC
100
AcDbVisualStyle
  2
Brighten
 70
    12
177
     3
291
     1
 70
    58
 90
        2
176
     1
 90
        2
176
     1
 90
        0
176
     1
 90
        0
176
     1
 40
0.6
176
     1
 40
30.0
176
     1
 62
     7
420
 16777215
176
     1
 90
        1
176
     1
 90
        4
176
     1
 62
     7
176
     1
 62
   257
176
     1
 90
        1
176
     1
 90
        1
176
     1
 40
1.0
176
     1
 90
        8
176
     1
 62
     7
176
     1
 40
1.0
176
     1
 90
        1
176
     1
 90
        6
176
     1
 90
        2
176
     1
 62
     7
176
     1
 90
        5
176
     1
 90
        0
176
     1
 90
        0
176
     1
290
     0
176
     1
 90
        1
176
     1
 40
50.0
176
     1
 90
        0
176
     1
290
     0
176
     1
290
     1
176
     1
290
     1
176
     1
290
     0
176
     1
290
     0
176
     1
290
     0
176
     1
290
     0
176
     1
290
     0
176
     1
290
     0
176
     1
 90
       50
176
     1
 40
0.0
176
     1
 40
1.0
176
     1
 90
        0
176
     1
 62
    18
420
        0
176
     1
 90
       50
176
     1
 90
        3
176
     1
 62
     5
420
      255
176
     1
290
     0
176
     1
 90
       50
176
     1
 90
       50
176
     1
 90
       50
176
     1
290
     0
176
     1
 90
       50
176
     1
 62
   256
176
     0
 40
1.0
176
     0
 90
        2
176
     1
  1
strokes_ogs.tif
176
     1
290
     0
176
     1
 40
1.0
176
     1
 40
1.0
176
     1
  0
VISUALSTYLE
  5
4CC
102
{ACAD_REACTORS
330
4BC
102
}
330
4BC
100
AcDbVisualStyle
  2
ColorChange
 70
    16
177
     3
291
     1
 70
    58
 90
        2
176
     1
 90
        2
176
     1
 90
        3
176
     1
 90
        0
176
     1
 40
0.6
176
     1
 40
30.0
176
     1
 62
     8
420
  8421504
176
     1
 90
        1
176
     1
 90
        4
176
     1
 62
     7
176
     1
 62
   257
176
     1
 90
        1
176
     1
 90
        1
176
     1
 40
1.0
176
     1
 90
        8
176
     1
 62
     8
420
  8421504
176
     1
 40
1.0
176
     1
 90
        1
176
     1
 90
        6
176
     1
 90
        2
176
     1
 62
     7
176
     1
 90
        5
176
     1
 90
        0
176
     1
 90
        0
176
     1
290
     0
176
     1
 90
        1
176
     1
 40
0.0
176
     1
 90
        0
176
     1
290
     0
176
     1
290
     1
176
     1
290
     1
176
     1
290
     0
176
     1
290
     0
176
     1
290
     0
176
     1
290
     0
176
     1
290
     0
176
     1
290
     0
176
     1
 90
       50
176
     1
 40
0.0
176
     1
 40
1.0
176
     1
 90
        0
176
     1
 62
    18
420
        0
176
     1
 90
       50
176
     1
 90
        3
176
     1
 62
     5
420
      255
176
     1
290
     0
176
     1
 90
       50
176
     1
 90
       50
176
     1
 90
       50
176
     1
290
     0
176
     1
 90
       50
176
     1
 62
   256
176
     0
 40
1.0
176
     0
 90
        2
176
     1
  1
strokes_ogs.tif
176
     1
290
     0
176
     1
 40
1.0
176
     1
 40
1.0
176
     1
  0
VISUALSTYLE
  5
4C6
102
{ACAD_REACTORS
330
4BC
102
}
330
4BC
100
AcDbVisualStyle
  2
Conceptual
 70
     9
177
     3
291
     0
 70
    58
 90
        3
176
     1
 90
        2
176
     1
 90
        0
176
     1
 90
        0
176
     1
 40
0.6
176
     1
 40
30.0
176
     1
 62
     7
420
 16777215
176
     1
 90
        2
176
     1
 90
        2
176
     1
 62
     7
176
     1
 62
   257
176
     1
 90
        1
176
     1
 90
        1
176
     1
 40
179.0
176
     1
 90
        8
176
     1
 62
     7
176
     1
 40
1.0
176
     1
 90
        1
176
     1
 90
        6
176
     1
 90
        2
176
     1
 62
     7
176
     1
 90
        3
176
     1
 90
        0
176
     1
 90
        0
176
     1
290
     0
176
     1
 90
        1
176
     1
 40
0.0
176
     1
 90
        0
176
     1
290
     0
176
     1
290
     1
176
     1
290
     1
176
     1
290
     0
176
     1
290
     0
176
     1
290
     0
176
     1
290
     0
176
     1
290
     0
176
     1
290
     0
176
     1
 90
       50
176
     1
 40
0.0
176
     1
 40
1.0
176
     1
 90
        0
176
     1
 62
    18
420
        0
176
     1
 90
       50
176
     1
 90
        3
176
     1
 62
     5
420
      255
176
     1
290
     0
176
     1
 90
       50
176
     1
 90
       50
176
     1
 90
       50
176
     1
290
     0
176
     1
 90
       50
176
     1
 62
   256
176
     0
 40
1.0
176
     0
 90
        2
176
     1
  1
strokes_ogs.tif
176
     1
290
     0
176
     1
 40
1.0
176
     1
 40
1.0
176
     1
  0
VISUALSTYLE
  5
4C7
102
{ACAD_REACTORS
330
4BC
102
}
330
4BC
100
AcDbVisualStyle
  2
Dim
 70
    11
177
     3
291
     1
 70
    58
 90
        2
176
     1
 90
        2
176
     1
 90
        0
176
     1
 90
        0
176
     1
 40
0.6
176
     1
 40
30.0
176
     1
 62
     7
420
 16777215
176
     1
 90
        1
176
     1
 90
        4
176
     1
 62
     7
176
     1
 62
   257
176
     1
 90
        1
176
     1
 90
        1
176
     1
 40
1.0
176
     1
 90
        8
176
     1
 62
     7
176
     1
 40
1.0
176
     1
 90
        1
176
     1
 90
        6
176
     1
 90
        2
176
     1
 62
     7
176
     1
 90
        5
176
     1
 90
        0
176
     1
 90
        0
176
     1
290
     0
176
     1
 90
        1
176
     1
 40
-50.0
176
     1
 90
        0
176
     1
290
     0
176
     1
290
     1
176
     1
290
     1
176
     1
290
     0
176
     1
290
     0
176
     1
290
     0
176
     1
290
     0
176
     1
290
     0
176
     1
290
     0
176
     1
 90
       50
176
     1
 40
0.0
176
     1
 40
1.0
176
     1
 90
        0
176
     1
 62
    18
420
        0
176
     1
 90
       50
176
     1
 90
        3
176
     1
 62
     5
420
      255
176
     1
290
     0
176
     1
 90
       50
176
     1
 90
       50
176
     1
 90
       50
176
     1
290
     0
176
     1
 90
       50
176
     1
 62
   256
176
     0
 40
1.0
176
     0
 90
        2
176
     1
  1
strokes_ogs.tif
176
     1
290
     0
176
     1
 40
1.0
176
     1
 40
1.0
176
     1
  0
VISUALSTYLE
  5
4CF
102
{ACAD_REACTORS
330
4BC
102
}
330
4BC
100
AcDbVisualStyle
  2
EdgeColorOff
 70
    22
177
     3
291
     1
 70
    58
 90
        2
176
     0
 90
        2
176
     0
 90
        0
176
     0
 90
        0
176
     0
 40
0.6
176
     0
 40
30.0
176
     0
 62
     7
420
 16777215
176
     0
 90
        1
176
     0
 90
        4
176
     0
 62
     7
176
     0
 62
   257
176
     0
 90
        1
176
     0
 90
        1
176
     0
 40
1.0
176
     0
 90
        8
176
     2
 62
     7
176
     0
 40
1.0
176
     0
 90
        1
176
     0
 90
        6
176
     0
 90
        2
176
     0
 62
     7
176
     0
 90
        5
176
     0
 90
        0
176
     0
 90
        0
176
     0
290
     0
176
     0
 90
        1
176
     0
 40
0.0
176
     0
 90
        0
176
     0
290
     0
176
     0
290
     1
176
     0
290
     1
176
     0
290
     0
176
     0
290
     0
176
     0
290
     0
176
     0
290
     0
176
     0
290
     0
176
     0
290
     0
176
     0
 90
       50
176
     0
 40
0.0
176
     0
 40
1.0
176
     0
 90
        0
176
     0
 62
    18
420
        0
176
     0
 90
       50
176
     0
 90
        3
176
     0
 62
     5
420
      255
176
     0
290
     0
176
     0
 90
       50
176
     0
 90
       50
176
     0
 90
       50
176
     0
290
     0
176
     0
 90
       50
176
     0
 62
   256
176
     0
 40
1.0
176
     0
 90
        2
176
     0
  1
strokes_ogs.tif
176
     0
290
     0
176
     0
 40
1.0
176
     0
 40
1.0
176
     0
  0
VISUALSTYLE
  5
4CB
102
{ACAD_REACTORS
330
4BC
102
}
330
4BC
100
AcDbVisualStyle
  2
Facepattern
 70
    15
177
     3
291
     1
 70
    58
 90
        2
176
     1
 90
        2
176
     1
 90
        0
176
     1
 90
        0
176
     1
 40
0.6
176
     1
 40
30.0
176
     1
 62
     7
420
 16777215
176
     1
 90
        1
176
     1
 90
        4
176
     1
 62
     7
176
     1
 62
   257
176
     1
 90
        1
176
     1
 90
        1
176
     1
 40
1.0
176
     1
 90
        8
176
     1
 62
     7
176
     1
 40
1.0
176
     1
 90
        1
176
     1
 90
        6
176
     1
 90
        2
176
     1
 62
     7
176
     1
 90
        5
176
     1
 90
        0
176
     1
 90
        0
176
     1
290
     0
176
     1
 90
        1
176
     1
 40
0.0
176
     1
 90
        0
176
     1
290
     0
176
     1
290
     1
176
     1
290
     1
176
     1
290
     0
176
     1
290
     0
176
     1
290
     0
176
     1
290
     0
176
     1
290
     0
176
     1
290
     0
176
     1
 90
       50
176
     1
 40
0.0
176
     1
 40
1.0
176
     1
 90
        0
176
     1
 62
    18
420
        0
176
     1
 90
       50
176
     1
 90
        3
176
     1
 62
     5
420
      255
176
     1
290
     0
176
     1
 90
       50
176
     1
 90
       50
176
     1
 90
       50
176
     1
290
     0
176
     1
 90
       50
176
     1
 62
   256
176
     0
 40
1.0
176
     0
 90
        2
176
     1
  1
strokes_ogs.tif
176
     1
290
     0
176
     1
 40
1.0
176
     1
 40
1.0
176
     1
  0
VISUALSTYLE
  5
4BD
102
{ACAD_REACTORS
330
4BC
102
}
330
4BC
100
AcDbVisualStyle
  2
Flat
 70
     0
177
     3
291
     1
 70
    58
 90
        2
176
     1
 90
        1
176
     1
 90
        1
176
     1
 90
        2
176
     1
 40
0.6
176
     1
 40
30.0
176
     1
 62
     7
420
 16777215
176
     1
 90
        0
176
     1
 90
        0
176
     1
 62
     7
176
     1
 62
   257
176
     1
 90
        1
176
     1
 90
        1
176
     1
 40
1.0
176
     1
 90
        8
176
     1
 62
     7
176
     1
 40
1.0
176
     1
 90
        1
176
     1
 90
        6
176
     1
 90
        2
176
     1
 62
     7
176
     1
 90
        5
176
     1
 90
        0
176
     1
 90
        0
176
     1
290
     0
176
     1
 90
       13
176
     1
 40
0.0
176
     1
 90
        0
176
     1
290
     0
176
     1
290
     1
176
     1
290
     1
176
     1
290
     0
176
     1
290
     0
176
     1
290
     0
176
     1
290
     0
176
     1
290
     0
176
     1
290
     0
176
     1
 90
       50
176
     1
 40
0.0
176
     1
 40
1.0
176
     1
 90
        0
176
     1
 62
    18
420
        0
176
     1
 90
       50
176
     1
 90
        3
176
     1
 62
     5
420
      255
176
     1
290
     0
176
     1
 90
       50
176
     1
 90
       50
176
     1
 90
       50
176
     1
290
     0
176
     1
 90
       50
176
     1
 62
   256
176
     0
 40
1.0
176
     0
 90
        2
176
     1
  1
strokes_ogs.tif
176
     1
290
     0
176
     1
 40
1.0
176
     1
 40
1.0
176
     1
  0
VISUALSTYLE
  5
4BE
102
{ACAD_REACTORS
330
4BC
102
}
330
4BC
100
AcDbVisualStyle
  2
FlatWithEdges
 70
     1
177
     3
291
     1
 70
    58
 90
        2
176
     1
 90
        1
176
     1
 90
        1
176
     1
 90
        2
176
     1
 40
0.6
176
     1
 40
30.0
176
     1
 62
     7
420
 16777215
176
     1
 90
        1
176
     1
 90
        0
176
     1
 62
     7
176
     1
 62
   257
176
     1
 90
        1
176
     1
 90
        1
176
     1
 40
1.0
176
     1
 90
        0
176
     1
 62
   257
176
     1
 40
1.0
176
     1
 90
        1
176
     1
 90
        6
176
     1
 90
        2
176
     1
 62
     7
176
     1
 90
        5
176
     1
 90
        0
176
     1
 90
        0
176
     1
290
     0
176
     1
 90
       13
176
     1
 40
0.0
176
     1
 90
        0
176
     1
290
     0
176
     1
290
     1
176
     1
290
     1
176
     1
290
     0
176
     1
290
     0
176
     1
290
     0
176
     1
290
     0
176
     1
290
     0
176
     1
290
     0
176
     1
 90
       50
176
     1
 40
0.0
176
     1
 40
1.0
176
     1
 90
        0
176
     1
 62
    18
420
        0
176
     1
 90
       50
176
     1
 90
        3
176
     1
 62
     5
420
      255
176
     1
290
     0
176
     1
 90
       50
176
     1
 90
       50
176
     1
 90
       50
176
     1
290
     0
176
     1
 90
       50
176
     1
 62
   256
176
     0
 40
1.0
176
     0
 90
        2
176
     1
  1
strokes_ogs.tif
176
     1
290
     0
176
     1
 40
1.0
176
     1
 40
1.0
176
     1
  0
VISUALSTYLE
  5
4BF
102
{ACAD_REACTORS
330
4BC
102
}
330
4BC
100
AcDbVisualStyle
  2
Gouraud
 70
     2
177
     3
291
     1
 70
    58
 90
        2
176
     1
 90
        2
176
     1
 90
        1
176
     1
 90
        2
176
     1
 40
0.6
176
     1
 40
30.0
176
     1
 62
     7
420
 16777215
176
     1
 90
        0
176
     1
 90
        0
176
     1
 62
     7
176
     1
 62
   257
176
     1
 90
        1
176
     1
 90
        1
176
     1
 40
1.0
176
     1
 90
        0
176
     1
 62
     7
176
     1
 40
1.0
176
     1
 90
        1
176
     1
 90
        6
176
     1
 90
        2
176
     1
 62
     7
176
     1
 90
        5
176
     1
 90
        0
176
     1
 90
        0
176
     1
290
     0
176
     1
 90
       13
176
     1
 40
0.0
176
     1
 90
        0
176
     1
290
     0
176
     1
290
     1
176
     1
290
     1
176
     1
290
     0
176
     1
290
     0
176
     1
290
     0
176
     1
290
     0
176
     1
290
     0
176
     1
290
     0
176
     1
 90
       50
176
     1
 40
0.0
176
     1
 40
1.0
176
     1
 90
        0
176
     1
 62
    18
420
        0
176
     1
 90
       50
176
     1
 90
        3
176
     1
 62
     5
420
      255
176
     1
290
     0
176
     1
 90
       50
176
     1
 90
       50
176
     1
 90
       50
176
     1
290
     0
176
     1
 90
       50
176
     1
 62
   256
176
     0
 40
1.0
176
     0
 90
        2
176
     1
  1
strokes_ogs.tif
176
     1
290
     0
176
     1
 40
1.0
176
     1
 40
1.0
176
     1
  0
VISUALSTYLE
  5
4C0
102
{ACAD_REACTORS
330
4BC
102
}
330
4BC
100
AcDbVisualStyle
  2
GouraudWithEdges
 70
     3
177
     3
291
     1
 70
    58
 90
        2
176
     1
 90
        2
176
     1
 90
        1
176
     1
 90
        2
176
     1
 40
0.6
176
     1
 40
30.0
176
     1
 62
     7
420
 16777215
176
     1
 90
        1
176
     1
 90
        0
176
     1
 62
     7
176
     1
 62
   257
176
     1
 90
        1
176
     1
 90
        1
176
     1
 40
1.0
176
     1
 90
        0
176
     1
 62
   257
176
     1
 40
1.0
176
     1
 90
        1
176
     1
 90
        6
176
     1
 90
        2
176
     1
 62
     7
176
     1
 90
        5
176
     1
 90
        0
176
     1
 90
        0
176
     1
290
     0
176
     1
 90
       13
176
     1
 40
0.0
176
     1
 90
        0
176
     1
290
     0
176
     1
290
     1
176
     1
290
     1
176
     1
290
     0
176
     1
290
     0
176
     1
290
     0
176
     1
290
     0
176
     1
290
     0
176
     1
290
     0
176
     1
 90
       50
176
     1
 40
0.0
176
     1
 40
1.0
176
     1
 90
        0
176
     1
 62
    18
420
        0
176
     1
 90
       50
176
     1
 90
        3
176
     1
 62
     5
420
      255
176
     1
290
     0
176
     1
 90
       50
176
     1
 90
       50
176
     1
 90
       50
176
     1
290
     0
176
     1
 90
       50
176
     1
 62
   256
176
     0
 40
1.0
176
     0
 90
        2
176
     1
  1
strokes_ogs.tif
176
     1
290
     0
176
     1
 40
1.0
176
     1
 40
1.0
176
     1
  0
VISUALSTYLE
  5
4C3
102
{ACAD_REACTORS
330
4BC
102
}
330
4BC
100
AcDbVisualStyle
  2
Hidden
 70
     6
177
     3
291
     0
 70
    58
 90
        1
176
     1
 90
        2
176
     1
 90
        2
176
     1
 90
        0
176
     1
 40
0.6
176
     1
 40
30.0
176
     1
 62
     7
420
 16777215
176
     1
 90
        2
176
     1
 90
        2
176
     1
 62
     7
176
     1
 62
   257
176
     1
 90
        2
176
     1
 90
        1
176
     1
 40
40.0
176
     1
 90
        0
176
     1
 62
   257
176
     1
 40
1.0
176
     1
 90
        1
176
     1
 90
        6
176
     1
 90
        2
176
     1
 62
     7
176
     1
 90
        3
176
     1
 90
        0
176
     1
 90
        0
176
     1
290
     0
176
     1
 90
        1
176
     1
 40
0.0
176
     1
 90
        0
176
     1
290
     0
176
     1
290
     1
176
     1
290
     1
176
     1
290
     0
176
     1
290
     0
176
     1
290
     0
176
     1
290
     0
176
     1
290
     0
176
     1
290
     0
176
     1
 90
       50
176
     1
 40
0.0
176
     1
 40
1.0
176
     1
 90
        0
176
     1
 62
    18
420
        0
176
     1
 90
       50
176
     1
 90
        3
176
     1
 62
     5
420
      255
176
     1
290
     0
176
     1
 90
       50
176
     1
 90
       50
176
     1
 90
       50
176
     1
290
     0
176
     1
 90
       50
176
     1
 62
   256
176
     0
 40
1.0
176
     0
 90
        2
176
     1
  1
strokes_ogs.tif
176
     1
290
     0
176
     1
 40
1.0
176
     1
 40
1.0
176
     1
  0
VISUALSTYLE
  5
4CD
102
{ACAD_REACTORS
330
4BC
102
}
330
4BC
100
AcDbVisualStyle
  2
JitterOff
 70
    20
177
     3
291
     1
 70
    58
 90
        2
176
     0
 90
        2
176
     0
 90
        0
176
     0
 90
        0
176
     0
 40
0.6
176
     0
 40
30.0
176
     0
 62
     7
420
 16777215
176
     0
 90
        1
176
     0
 90
        4
176
     0
 62
     7
176
     0
 62
   257
176
     0
 90
        1
176
     0
 90
        1
176
     0
 40
1.0
176
     0
 90
       10
176
     2
 62
     7
176
     0
 40
1.0
176
     0
 90
        1
176
     0
 90
        6
176
     0
 90
        2
176
     0
 62
     7
176
     0
 90
        5
176
     0
 90
        0
176
     0
 90
        0
176
     0
290
     0
176
     0
 90
        1
176
     0
 40
0.0
176
     0
 90
        0
176
     0
290
     0
176
     0
290
     1
176
     0
290
     1
176
     0
290
     0
176
     0
290
     0
176
     0
290
     0
176
     0
290
     0
176
     0
290
     0
176
     0
290
     0
176
     0
 90
       50
176
     0
 40
0.0
176
     0
 40
1.0
176
     0
 90
        0
176
     0
 62
    18
420
        0
176
     0
 90
       50
176
     0
 90
        3
176
     0
 62
     5
420
      255
176
     0
290
     0
176
     0
 90
       50
176
     0
 90
       50
176
     0
 90
       50
176
     0
290
     0
176
     0
 90
       50
176
     0
 62
   256
176
     0
 40
1.0
176
     0
 90
        2
176
     0
  1
strokes_ogs.tif
176
     0
290
     0
176
     0
 40
1.0
176
     0
 40
1.0
176
     0
  0
VISUALSTYLE
  5
4CA
102
{ACAD_REACTORS
330
4BC
102
}
330
4BC
100
AcDbVisualStyle
  2
Linepattern
 70
    14
177
     3
291
     1
 70
    58
 90
        2
176
     1
 90
        2
176
     1
 90
        0
176
     1
 90
        0
176
     1
 40
0.6
176
     1
 40
30.0
176
     1
 62
     7
420
 16777215
176
     1
 90
        1
176
     1
 90
        4
176
     1
 62
     7
176
     1
 62
   257
176
     1
 90
        7
176
     1
 90
        7
176
     1
 40
1.0
176
     1
 90
        8
176
     1
 62
     7
176
     1
 40
1.0
176
     1
 90
        1
176
     1
 90
        6
176
     1
 90
        2
176
     1
 62
     7
176
     1
 90
        5
176
     1
 90
        0
176
     1
 90
        0
176
     1
290
     0
176
     1
 90
        1
176
     1
 40
0.0
176
     1
 90
        0
176
     1
290
     0
176
     1
290
     1
176
     1
290
     1
176
     1
290
     0
176
     1
290
     0
176
     1
290
     0
176
     1
290
     0
176
     1
290
     0
176
     1
290
     0
176
     1
 90
       50
176
     1
 40
0.0
176
     1
 40
1.0
176
     1
 90
        0
176
     1
 62
    18
420
        0
176
     1
 90
       50
176
     1
 90
        3
176
     1
 62
     5
420
      255
176
     1
290
     0
176
     1
 90
       50
176
     1
 90
       50
176
     1
 90
       50
176
     1
290
     0
176
     1
 90
       50
176
     1
 62
   256
176
     0
 40
1.0
176
     0
 90
        2
176
     1
  1
strokes_ogs.tif
176
     1
290
     0
176
     1
 40
1.0
176
     1
 40
1.0
176
     1
  0
VISUALSTYLE
  5
4CE
102
{ACAD_REACTORS
330
4BC
102
}
330
4BC
100
AcDbVisualStyle
  2
OverhangOff
 70
    21
177
     3
291
     1
 70
    58
 90
        2
176
     0
 90
        2
176
     0
 90
        0
176
     0
 90
        0
176
     0
 40
0.6
176
     0
 40
30.0
176
     0
 62
     7
420
 16777215
176
     0
 90
        1
176
     0
 90
        4
176
     0
 62
     7
176
     0
 62
   257
176
     0
 90
        1
176
     0
 90
        1
176
     0
 40
1.0
176
     0
 90
        9
176
     2
 62
     7
176
     0
 40
1.0
176
     0
 90
        1
176
     0
 90
        6
176
     0
 90
        2
176
     0
 62
     7
176
     0
 90
        5
176
     0
 90
        0
176
     0
 90
        0
176
     0
290
     0
176
     0
 90
        1
176
     0
 40
0.0
176
     0
 90
        0
176
     0
290
     0
176
     0
290
     1
176
     0
290
     1
176
     0
290
     0
176
     0
290
     0
176
     0
290
     0
176
     0
290
     0
176
     0
290
     0
176
     0
290
     0
176
     0
 90
       50
176
     0
 40
0.0
176
     0
 40
1.0
176
     0
 90
        0
176
     0
 62
    18
420
        0
176
     0
 90
       50
176
     0
 90
        3
176
     0
 62
     5
420
      255
176
     0
290
     0
176
     0
 90
       50
176
     0
 90
       50
176
     0
 90
       50
176
     0
290
     0
176
     0
 90
       50
176
     0
 62
   256
176
     0
 40
1.0
176
     0
 90
        2
176
     0
  1
strokes_ogs.tif
176
     0
290
     0
176
     0
 40
1.0
176
     0
 40
1.0
176
     0
  0
VISUALSTYLE
  5
4C5
102
{ACAD_REACTORS
330
4BC
102
}
330
4BC
100
AcDbVisualStyle
  2
Realistic
 70
     8
177
     3
291
     0
 70
    58
 90
        2
176
     1
 90
        3
176
     1
 90
        0
176
     1
 90
        2
176
     1
 40
0.6
176
     1
 40
30.0
176
     1
 62
     7
420
 16777215
176
     1
 90
        0
176
     1
 90
        0
176
     1
 62
     7
176
     1
 62
   257
176
     1
 90
        1
176
     1
 90
        1
176
     1
 40
1.0
176
     1
 90
        8
176
     1
 62
   257
176
     1
 40
1.0
176
     1
 90
        1
176
     1
 90
        6
176
     1
 90
        2
176
     1
 62
     7
176
     1
 90
        3
176
     1
 90
        0
176
     1
 90
        0
176
     1
290
     0
176
     1
 90
       13
176
     1
 40
0.0
176
     1
 90
        0
176
     1
290
     0
176
     1
290
     1
176
     1
290
     1
176
     1
290
     0
176
     1
290
     0
176
     1
290
     0
176
     1
290
     0
176
     1
290
     0
176
     1
290
     0
176
     1
 90
       50
176
     1
 40
0.0
176
     1
 40
1.0
176
     1
 90
        0
176
     1
 62
    18
420
        0
176
     1
 90
       50
176
     1
 90
        3
176
     1
 62
     5
420
      255
176
     1
290
     0
176
     1
 90
       50
176
     1
 90
       50
176
     1
 90
       50
176
     1
290
     0
176
     1
 90
       50
176
     1
 62
   256
176
     0
 40
1.0
176
     0
 90
        2
176
     1
  1
strokes_ogs.tif
176
     1
290
     0
176
     1
 40
1.0
176
     1
 40
1.0
176
     1
  0
VISUALSTYLE
  5
4D4
102
{ACAD_REACTORS
330
4BC
102
}
330
4BC
100
AcDbVisualStyle
  2
Shaded
 70
    27
177
     3
291
     0
 70
    58
 90
        2
176
     1
 90
        2
176
     1
 90
        1
176
     1
 90
        2
176
     1
 40
0.6
176
     1
 40
30.0
176
     1
 62
     7
420
 16777215
176
     1
 90
        0
176
     1
 90
        4
176
     1
 62
     7
176
     1
 62
   257
176
     1
 90
        1
176
     1
 90
        1
176
     1
 40
1.0
176
     1
 90
        8
176
     1
 62
   257
176
     1
 40
1.0
176
     1
 90
        1
176
     1
 90
        6
176
     1
 90
        2
176
     1
 62
     8
420
  7895160
176
     1
 90
        3
176
     1
 90
        0
176
     1
 90
        0
176
     1
290
     0
176
     1
 90
        5
176
     1
 40
0.0
176
     1
 90
        0
176
     1
290
     0
176
     1
290
     1
176
     1
290
     1
176
     1
290
     0
176
     1
290
     0
176
     1
290
     0
176
     1
290
     0
176
     1
290
     0
176
     1
290
     0
176
     1
 90
       50
176
     1
 40
0.0
176
     1
 40
1.0
176
     1
 90
        0
176
     1
 62
    18
420
        0
176
     1
 90
       50
176
     1
 90
        3
176
     1
 62
     5
420
      255
176
     1
290
     0
176
     1
 90
       50
176
     1
 90
       50
176
     1
 90
       50
176
     1
290
     0
176
     1
 90
       50
176
     1
 62
   256
176
     0
 40
1.0
176
     0
 90
        2
176
     1
  1
strokes_ogs.tif
176
     1
290
     0
176
     1
 40
1.0
176
     1
 40
1.0
176
     1
  0
VISUALSTYLE
  5
4D3
102
{ACAD_REACTORS
330
4BC
102
}
330
4BC
100
AcDbVisualStyle
  2
Shaded with edges
 70
    26
177
     3
291
     0
 70
    58
 90
        2
176
     1
 90
        2
176
     1
 90
        1
176
     1
 90
        2
176
     1
 40
0.6
176
     1
 40
30.0
176
     1
 62
     7
420
 16777215
176
     1
 90
        1
176
     1
 90
       10
176
     1
 62
     7
176
     1
 62
   257
176
     1
 90
        2
176
     1
 90
        1
176
     1
 40
1.0
176
     1
 90
        8
176
     1
 62
   257
176
     1
 40
1.0
176
     1
 90
        1
176
     1
 90
        6
176
     1
 90
        2
176
     1
 62
     7
176
     1
 90
        3
176
     1
 90
        0
176
     1
 90
        0
176
     1
290
     0
176
     1
 90
        5
176
     1
 40
0.0
176
     1
 90
        0
176
     1
290
     0
176
     1
290
     1
176
     1
290
     1
176
     1
290
     0
176
     1
290
     0
176
     1
290
     0
176
     1
290
     0
176
     1
290
     0
176
     1
290
     0
176
     1
 90
       50
176
     1
 40
0.0
176
     1
 40
1.0
176
     1
 90
        0
176
     1
 62
    18
420
        0
176
     1
 90
       50
176
     1
 90
        3
176
     1
 62
     5
420
      255
176
     1
290
     0
176
     1
 90
       50
176
     1
 90
       50
176
     1
 90
       50
176
     1
290
     0
176
     1
 90
       50
176
     1
 62
   256
176
     0
 40
1.0
176
     0
 90
        2
176
     1
  1
strokes_ogs.tif
176
     1
290
     0
176
     1
 40
1.0
176
     1
 40
1.0
176
     1
  0
VISUALSTYLE
  5
4D0
102
{ACAD_REACTORS
330
4BC
102
}
330
4BC
100
AcDbVisualStyle
  2
Shades of Gray
 70
    23
177
     3
291
     0
 70
    58
 90
        2
176
     1
 90
        2
176
     1
 90
        3
176
     1
 90
        0
176
     1
 40
0.6
176
     1
 40
30.0
176
     1
 62
     7
420
 16777215
176
     1
 90
        2
176
     1
 90
        2
176
     1
 62
     7
176
     1
 62
     7
176
     1
 90
        1
176
     1
 90
        1
176
     1
 40
40.0
176
     1
 90
        8
176
     1
 62
     7
176
     1
 40
1.0
176
     1
 90
        1
176
     1
 90
        6
176
     1
 90
        2
176
     1
 62
     7
176
     1
 90
        3
176
     1
 90
        0
176
     1
 90
        0
176
     1
290
     0
176
     1
 90
        1
176
     1
 40
0.0
176
     1
 90
        0
176
     1
290
     0
176
     1
290
     1
176
     1
290
     1
176
     1
290
     0
176
     1
290
     0
176
     1
290
     0
176
     1
290
     0
176
     1
290
     0
176
     1
290
     0
176
     1
 90
       50
176
     1
 40
0.0
176
     1
 40
1.0
176
     1
 90
        0
176
     1
 62
    18
420
        0
176
     1
 90
       50
176
     1
 90
        3
176
     1
 62
     5
420
      255
176
     1
290
     0
176
     1
 90
       50
176
     1
 90
       50
176
     1
 90
       50
176
     1
290
     0
176
     1
 90
       50
176
     1
 62
   256
176
     0
 40
1.0
176
     0
 90
        2
176
     1
  1
strokes_ogs.tif
176
     1
290
     0
176
     1
 40
1.0
176
     1
 40
1.0
176
     1
  0
VISUALSTYLE
  5
4D1
102
{ACAD_REACTORS
330
4BC
102
}
330
4BC
100
AcDbVisualStyle
  2
Sketchy
 70
    24
177
     3
291
     0
 70
    58
 90
        1
176
     1
 90
        2
176
     1
 90
        2
176
     1
 90
        0
176
     1
 40
0.6
176
     1
 40
30.0
176
     1
 62
     7
420
 16777215
176
     1
 90
        2
176
     1
 90
        2
176
     1
 62
     7
176
     1
 62
     7
176
     1
 90
        1
176
     1
 90
        1
176
     1
 40
40.0
176
     1
 90
       11
176
     1
 62
     7
176
     1
 40
1.0
176
     1
 90
        1
176
     1
 90
        6
176
     1
 90
        2
176
     1
 62
     7
176
     1
 90
        6
176
     1
 90
        0
176
     1
 90
        0
176
     1
290
     0
176
     1
 90
        1
176
     1
 40
0.0
176
     1
 90
        0
176
     1
290
     0
176
     1
290
     1
176
     1
290
     1
176
     1
290
     0
176
     1
290
     0
176
     1
290
     0
176
     1
290
     0
176
     1
290
     0
176
     1
290
     0
176
     1
 90
       50
176
     1
 40
0.0
176
     1
 40
1.0
176
     1
 90
        0
176
     1
 62
    18
420
        0
176
     1
 90
       50
176
     1
 90
        3
176
     1
 62
     5
420
      255
176
     1
290
     0
176
     1
 90
       50
176
     1
 90
       50
176
     1
 90
       50
176
     1
290
     0
176
     1
 90
       50
176
     1
 62
   256
176
     0
 40
1.0
176
     0
 90
        2
176
     1
  1
strokes_ogs.tif
176
     1
290
     0
176
     1
 40
1.0
176
     1
 40
1.0
176
     1
  0
VISUALSTYLE
  5
4C9
102
{ACAD_REACTORS
330
4BC
102
}
330
4BC
100
AcDbVisualStyle
  2
Thicken
 70
    13
177
     3
291
     1
 70
    58
 90
        2
176
     1
 90
        2
176
     1
 90
        0
176
     1
 90
        0
176
     1
 40
0.6
176
     1
 40
30.0
176
     1
 62
     7
420
 16777215
176
     1
 90
        1
176
     1
 90
        4
176
     1
 62
     7
176
     1
 62
   257
176
     1
 90
        1
176
     1
 90
        1
176
     1
 40
1.0
176
     1
 90
       12
176
     1
 62
     7
176
     1
 40
1.0
176
     1
 90
        1
176
     1
 90
        6
176
     1
 90
        2
176
     1
 62
     7
176
     1
 90
        5
176
     1
 90
        0
176
     1
 90
        0
176
     1
290
     0
176
     1
 90
        1
176
     1
 40
0.0
176
     1
 90
        0
176
     1
290
     0
176
     1
290
     1
176
     1
290
     1
176
     1
290
     0
176
     1
290
     0
176
     1
290
     0
176
     1
290
     0
176
     1
290
     0
176
     1
290
     0
176
     1
 90
       50
176
     1
 40
0.0
176
     1
 40
1.0
176
     1
 90
        0
176
     1
 62
    18
420
        0
176
     1
 90
       50
176
     1
 90
        3
176
     1
 62
     5
420
      255
176
     1
290
     0
176
     1
 90
       50
176
     1
 90
       50
176
     1
 90
       50
176
     1
290
     0
176
     1
 90
       50
176
     1
 62
   256
176
     0
 40
1.0
176
     0
 90
        2
176
     1
  1
strokes_ogs.tif
176
     1
290
     0
176
     1
 40
1.0
176
     1
 40
1.0
176
     1
  0
VISUALSTYLE
  5
4C2
102
{ACAD_REACTORS
330
4BC
102
}
330
4BC
100
AcDbVisualStyle
  2
Wireframe
 70
     5
177
     3
291
     0
 70
    58
 90
        0
176
     1
 90
        2
176
     1
 90
        0
176
     1
 90
        0
176
     1
 40
0.6
176
     1
 40
30.0
176
     1
 62
     7
420
 16777215
176
     1
 90
        1
176
     1
 90
        4
176
     1
 62
     7
176
     1
 62
   257
176
     1
 90
        1
176
     1
 90
        1
176
     1
 40
1.0
176
     1
 90
        0
176
     1
 62
   257
176
     1
 40
1.0
176
     1
 90
        1
176
     1
 90
        6
176
     1
 90
        2
176
     1
 62
     7
176
     1
 90
        3
176
     1
 90
        0
176
     1
 90
        0
176
     1
290
     0
176
     1
 90
        1
176
     1
 40
0.0
176
     1
 90
        0
176
     1
290
     0
176
     1
290
     1
176
     1
290
     1
176
     1
290
     0
176
     1
290
     0
176
     1
290
     0
176
     1
290
     0
176
     1
290
     0
176
     1
290
     0
176
     1
 90
       50
176
     1
 40
0.0
176
     1
 40
1.0
176
     1
 90
        0
176
     1
 62
    18
420
        0
176
     1
 90
       50
176
     1
 90
        3
176
     1
 62
     5
420
      255
176
     1
290
     0
176
     1
 90
       50
176
     1
 90
       50
176
     1
 90
       50
176
     1
290
     0
176
     1
 90
       50
176
     1
 62
   256
176
     0
 40
1.0
176
     0
 90
        2
176
     1
  1
strokes_ogs.tif
176
     1
290
     0
176
     1
 40
1.0
176
     1
 40
1.0
176
     1
  0
VISUALSTYLE
  5
4D2
102
{ACAD_REACTORS
330
4BC
102
}
330
4BC
100
AcDbVisualStyle
  2
X-Ray
 70
    25
177
     3
291
     0
 70
    58
 90
        2
176
     1
 90
        2
176
     1
 90
        1
176
     1
 90
        1
176
     1
 40
0.5
176
     1
 40
30.0
176
     1
 62
     7
420
 16777215
176
     1
 90
        1
176
     1
 90
        0
176
     1
 62
     7
176
     1
 62
   257
176
     1
 90
        1
176
     1
 90
        1
176
     1
 40
1.0
176
     1
 90
        8
176
     1
 62
     7
176
     1
 40
1.0
176
     1
 90
        1
176
     1
 90
        6
176
     1
 90
        2
176
     1
 62
     7
176
     1
 90
        3
176
     1
 90
        0
176
     1
 90
        0
176
     1
290
     0
176
     1
 90
       13
176
     1
 40
0.0
176
     1
 90
        0
176
     1
290
     0
176
     1
290
     1
176
     1
290
     1
176
     1
290
     0
176
     1
290
     0
176
     1
290
     0
176
     1
290
     0
176
     1
290
     0
176
     1
290
     0
176
     1
 90
       50
176
     1
 40
0.0
176
     1
 40
1.0
176
     1
 90
        0
176
     1
 62
    18
420
        0
176
     1
 90
       50
176
     1
 90
        3
176
     1
 62
     5
420
      255
176
     1
290
     0
176
     1
 90
       50
176
     1
 90
       50
176
     1
 90
       50
176
     1
290
     0
176
     1
 90
       50
176
     1
 62
   256
176
     0
 40
1.0
176
     0
 90
        2
176
     1
  1
strokes_ogs.tif
176
     1
290
     0
176
     1
 40
1.0
176
     1
 40
1.0
176
     1
  0
DICTIONARYVAR
  5
57F
102
{ACAD_REACTORS
330
57E
102
}
330
57E
100
DictionaryVariables
280
     0
  1
1:1
  0
DICTIONARYVAR
  5
584
102
{ACAD_REACTORS
330
57E
102
}
330
57E
100
DictionaryVariables
280
     0
  1
Standard
  0
DICTIONARYVAR
  5
583
102
{ACAD_REACTORS
330
57E
102
}
330
57E
100
DictionaryVariables
280
     0
  1
Standard
  0
XRECORD
  5
503
102
{ACAD_REACTORS
330
501
102
}
330
501
100
AcDbXrecord
280
     1
1000
#ffffff
  0
XRECORD
  5
504
102
{ACAD_REACTORS
330
501
102
}
330
501
100
AcDbXrecord
280
     1
1000
FullColor
  0
XRECORD
  5
505
102
{ACAD_REACTORS
330
501
102
}
330
501
100
AcDbXrecord
280
     1
290
     1
  0
XRECORD
  5
506
102
{ACAD_REACTORS
330
501
102
}
330
501
100
AcDbXrecord
280
     1
290
     1
  0
XRECORD
  5
507
102
{ACAD_REACTORS
330
501
102
}
330
501
100
AcDbXrecord
280
     1
290
     1
  0
XRECORD
  5
508
102
{ACAD_REACTORS
330
501
102
}
330
501
100
AcDbXrecord
280
     1
290
     1
  0
XRECORD
  5
509
102
{ACAD_REACTORS
330
501
102
}
330
501
100
AcDbXrecord
280
     1
1000
auto
  0
XRECORD
  5
50A
102
{ACAD_REACTORS
330
501
102
}
330
501
100
AcDbXrecord
280
     1
1000
auto
  0
XRECORD
  5
50B
102
{ACAD_REACTORS
330
501
102
}
330
501
100
AcDbXrecord
280
     1
1000
auto
  0
XRECORD
  5
50C
102
{ACAD_REACTORS
330
501
102
}
330
501
100
AcDbXrecord
280
     1
1000
auto
  0
XRECORD
  5
50D
102
{ACAD_REACTORS
330
501
102
}
330
501
100
AcDbXrecord
280
     1
1000
auto
  0
XRECORD
  5
50E
102
{ACAD_REACTORS
330
501
102
}
330
501
100
AcDbXrecord
280
     1
1000
auto
  0
XRECORD
  5
50F
102
{ACAD_REACTORS
330
501
102
}
330
501
100
AcDbXrecord
280
     1
1000
auto
  0
XRECORD
  5
510
102
{ACAD_REACTORS
330
501
102
}
330
501
100
AcDbXrecord
280
     1
1000
auto
  0
XRECORD
  5
511
102
{ACAD_REACTORS
330
501
102
}
330
501
100
AcDbXrecord
280
     1
290
     0
  0
XRECORD
  5
512
102
{ACAD_REACTORS
330
501
102
}
330
501
100
AcDbXrecord
280
     1
290
     0
  0
XRECORD
  5
513
102
{ACAD_REACTORS
330
501
102
}
330
501
100
AcDbXrecord
280
     1
290
     0
  0
XRECORD
  5
514
102
{ACAD_REACTORS
330
501
102
}
330
501
100
AcDbXrecord
280
     1
290
     0
  0
XRECORD
  5
515
102
{ACAD_REACTORS
330
501
102
}
330
501
100
AcDbXrecord
280
     1
 90
        0
  0
XRECORD
  5
516
102
{ACAD_REACTORS
330
501
102
}
330
501
100
AcDbXrecord
280
     1
 90
        0
  0
XRECORD
  5
517
102
{ACAD_REACTORS
330
501
102
}
330
501
100
AcDbXrecord
280
     1
 90
        0
  0
XRECORD
  5
518
102
{ACAD_REACTORS
330
501
102
}
330
501
100
AcDbXrecord
280
     1
 90
        0
  0
XRECORD
  5
519
102
{ACAD_REACTORS
330
501
102
}
330
501
100
AcDbXrecord
280
     1
1000
auto
  0
XRECORD
  5
51A
102
{ACAD_REACTORS
330
501
102
}
330
501
100
AcDbXrecord
280
     1
1000
auto
  0
XRECORD
  5
51B
102
{ACAD_REACTORS
330
501
102
}
330
501
100
AcDbXrecord
280
     1
1000
auto
  0
XRECORD
  5
51C
102
{ACAD_REACTORS
330
501
102
}
330
501
100
AcDbXrecord
280
     1
1000
auto
  0
XRECORD
  5
51D
102
{ACAD_REACTORS
330
501
102
}
330
501
100
AcDbXrecord
280
     1
1000
auto
  0
XRECORD
  5
51E
102
{ACAD_REACTORS
330
501
102
}
330
501
100
AcDbXrecord
280
     1
1000
auto
  0
XRECORD
  5
51F
102
{ACAD_REACTORS
330
501
102
}
330
501
100
AcDbXrecord
280
     1
1000
auto
  0
XRECORD
  5
520
102
{ACAD_REACTORS
330
501
102
}
330
501
100
AcDbXrecord
280
     1
1000
auto
  0
XRECORD
  5
521
102
{ACAD_REACTORS
330
501
102
}
330
501
100
AcDbXrecord
280
     1
 90
        1
  0
XRECORD
  5
522
102
{ACAD_REACTORS
330
501
102
}
330
501
100
AcDbXrecord
280
     1
 40
10.0
  0
XRECORD
  5
523
102
{ACAD_REACTORS
330
501
102
}
330
501
100
AcDbXrecord
280
     1
 40
10.0
  0
XRECORD
  5
524
102
{ACAD_REACTORS
330
501
102
}
330
501
100
AcDbXrecord
280
     1
 40
10.0
  0
XRECORD
  5
525
102
{ACAD_REACTORS
330
501
102
}
330
501
100
AcDbXrecord
280
     1
 40
10.0
  0
XRECORD
  5
526
102
{ACAD_REACTORS
330
501
102
}
330
501
100
AcDbXrecord
280
     1
290
     0
  0
XRECORD
  5
527
102
{ACAD_REACTORS
330
501
102
}
330
501
100
AcDbXrecord
280
     1
 90
        1
  0
XRECORD
  5
528
102
{ACAD_REACTORS
330
501
102
}
330
501
100
AcDbXrecord
280
     1
 40
0.0
  0
XRECORD
  5
529
102
{ACAD_REACTORS
330
501
102
}
330
501
100
AcDbXrecord
280
     1
 40
0.0
  0
XRECORD
  5
52A
102
{ACAD_REACTORS
330
501
102
}
330
501
100
AcDbXrecord
280
     1
1000
Portrait
  0
XRECORD
  5
52B
102
{ACAD_REACTORS
330
501
102
}
330
501
100
AcDbXrecord
280
     1
 40
297.0
  0
XRECORD
  5
52C
102
{ACAD_REACTORS
330
501
102
}
330
501
100
AcDbXrecord
280
     1
 40
210.0
  0
XRECORD
  5
52D
102
{ACAD_REACTORS
330
501
102
}
330
501
100
AcDbXrecord
280
     1
1000
1:1
  0
XRECORD
  5
52E
102
{ACAD_REACTORS
330
501
102
}
330
501
100
AcDbXrecord
280
     1
290
     1
  0
XRECORD
  5
52F
102
{ACAD_REACTORS
330
501
102
}
330
501
100
AcDbXrecord
280
     1
1000
3.15.2
  0
XRECORD
  5
530
102
{ACAD_REACTORS
330
501
102
}
330
501
100
AcDbXrecord
280
     1
 90
        4
  0
XRECORD
  5
531
102
{ACAD_REACTORS
330
501
102
}
330
501
100
AcDbXrecord
280
     1
  0
XRECORD
  5
532
102
{ACAD_REACTORS
330
501
102
}
330
501
100
AcDbXrecord
280
     1
 40
110.1054740625966
  0
XRECORD
  5
533
102
{ACAD_REACTORS
330
501
102
}
330
501
100
AcDbXrecord
280
     1
 40
213.8257650465984
  0
DICTIONARY
  5
580
330
4FC
100
AcDbDictionary
280
     1
281
     1
  3
ACAD_ROUNDTRIP_2008_TABLESTYLE_CELLSTYLEMAP
360
581
  0
CELLSTYLEMAP
  5
581
102
{ACAD_REACTORS
330
580
102
}
330
580
100
AcDbCellStyleMap
 90
        3
300
CELLSTYLE
  1
TABLEFORMAT_BEGIN
 90
        5
170
     1
 91
        0
 92
    32768
 62
   257
 93
        1
300
CONTENTFORMAT
  1
CONTENTFORMAT_BEGIN
 90
        0
 91
        0
 92
        4
 93
        0
300

 40
0.0
140
1.0
 94
        5
 62
     0
340
4A4
144
0.25
309
CONTENTFORMAT_END
171
     1
301
MARGIN
  1
CELLMARGIN_BEGIN
 40
0.06
 40
0.06
 40
0.06
 40
0.06
 40
0.06
 40
0.06
309
CELLMARGIN_END
 94
        6
 95
        1
302
GRIDFORMAT
  1
GRIDFORMAT_BEGIN
 90
        0
 91
        1
 62
     0
 92
       -2
340
4A6
 93
        0
 40
0.045
309
GRIDFORMAT_END
 95
        2
302
GRIDFORMAT
  1
GRIDFORMAT_BEGIN
 90
        0
 91
        1
 62
     0
 92
       -2
340
4A6
 93
        0
 40
0.045
309
GRIDFORMAT_END
 95
        4
302
GRIDFORMAT
  1
GRIDFORMAT_BEGIN
 90
        0
 91
        1
 62
     0
 92
       -2
340
4A6
 93
        0
 40
0.045
309
GRIDFORMAT_END
 95
        8
302
GRIDFORMAT
  1
GRIDFORMAT_BEGIN
 90
        0
 91
        1
 62
     0
 92
       -2
340
4A6
 93
        0
 40
0.045
309
GRIDFORMAT_END
 95
       16
302
GRIDFORMAT
  1
GRIDFORMAT_BEGIN
 90
        0
 91
        1
 62
     0
 92
       -2
340
4A6
 93
        0
 40
0.045
309
GRIDFORMAT_END
 95
       32
302
GRIDFORMAT
  1
GRIDFORMAT_BEGIN
 90
        0
 91
        1
 62
     0
 92
       -2
340
4A6
 93
        0
 40
0.045
309
GRIDFORMAT_END
309
TABLEFORMAT_END
  1
CELLSTYLE_BEGIN
 90
        1
 91
        1
300
_TITLE
309
CELLSTYLE_END
300
CELLSTYLE
  1
TABLEFORMAT_BEGIN
 90
        5
170
     1
 91
        0
 92
        0
 62
   257
 93
        1
300
CONTENTFORMAT
  1
CONTENTFORMAT_BEGIN
 90
        0
 91
        0
 92
        4
 93
        0
300

 40
0.0
140
1.0
 94
        5
 62
     0
340
4A4
144
0.18
309
CONTENTFORMAT_END
171
     1
301
MARGIN
  1
CELLMARGIN_BEGIN
 40
0.06
 40
0.06
 40
0.06
 40
0.06
 40
0.06
 40
0.06
309
CELLMARGIN_END
 94
        6
 95
        1
302
GRIDFORMAT
  1
GRIDFORMAT_BEGIN
 90
        0
 91
        1
 62
     0
 92
       -2
340
4A6
 93
        0
 40
0.045
309
GRIDFORMAT_END
 95
        2
302
GRIDFORMAT
  1
GRIDFORMAT_BEGIN
 90
        0
 91
        1
 62
     0
 92
       -2
340
4A6
 93
        0
 40
0.045
309
GRIDFORMAT_END
 95
        4
302
GRIDFORMAT
  1
GRIDFORMAT_BEGIN
 90
        0
 91
        1
 62
     0
 92
       -2
340
4A6
 93
        0
 40
0.045
309
GRIDFORMAT_END
 95
        8
302
GRIDFORMAT
  1
GRIDFORMAT_BEGIN
 90
        0
 91
        1
 62
     0
 92
       -2
340
4A6
 93
        0
 40
0.045
309
GRIDFORMAT_END
 95
       16
302
GRIDFORMAT
  1
GRIDFORMAT_BEGIN
 90
        0
 91
        1
 62
     0
 92
       -2
340
4A6
 93
        0
 40
0.045
309
GRIDFORMAT_END
 95
       32
302
GRIDFORMAT
  1
GRIDFORMAT_BEGIN
 90
        0
 91
        1
 62
     0
 92
       -2
340
4A6
 93
        0
 40
0.045
309
GRIDFORMAT_END
309
TABLEFORMAT_END
  1
CELLSTYLE_BEGIN
 90
        2
 91
        1
300
_HEADER
309
CELLSTYLE_END
300
CELLSTYLE
  1
TABLEFORMAT_BEGIN
 90
        5
170
     1
 91
        0
 92
        0
 62
   257
 93
        1
300
CONTENTFORMAT
  1
CONTENTFORMAT_BEGIN
 90
        0
 91
        0
 92
        4
 93
        0
300

 40
0.0
140
1.0
 94
        2
 62
     0
340
4A4
144
0.18
309
CONTENTFORMAT_END
171
     1
301
MARGIN
  1
CELLMARGIN_BEGIN
 40
0.06
 40
0.06
 40
0.06
 40
0.06
 40
0.06
 40
0.06
309
CELLMARGIN_END
 94
        6
 95
        1
302
GRIDFORMAT
  1
GRIDFORMAT_BEGIN
 90
        0
 91
        1
 62
     0
 92
       -2
340
4A6
 93
        0
 40
0.045
309
GRIDFORMAT_END
 95
        2
302
GRIDFORMAT
  1
GRIDFORMAT_BEGIN
 90
        0
 91
        1
 62
     0
 92
       -2
340
4A6
 93
        0
 40
0.045
309
GRIDFORMAT_END
 95
        4
302
GRIDFORMAT
  1
GRIDFORMAT_BEGIN
 90
        0
 91
        1
 62
     0
 92
       -2
340
4A6
 93
        0
 40
0.045
309
GRIDFORMAT_END
 95
        8
302
GRIDFORMAT
  1
GRIDFORMAT_BEGIN
 90
        0
 91
        1
 62
     0
 92
       -2
340
4A6
 93
        0
 40
0.045
309
GRIDFORMAT_END
 95
       16
302
GRIDFORMAT
  1
GRIDFORMAT_BEGIN
 90
        0
 91
        1
 62
     0
 92
       -2
340
4A6
 93
        0
 40
0.045
309
GRIDFORMAT_END
 95
       32
302
GRIDFORMAT
  1
GRIDFORMAT_BEGIN
 90
        0
 91
        1
 62
     0
 92
       -2
340
4A6
 93
        0
 40
0.045
309
GRIDFORMAT_END
309
TABLEFORMAT_END
  1
CELLSTYLE_BEGIN
 90
        3
 91
        2
300
_DATA
309
CELLSTYLE_END
  0
ENDSEC
  0
EOF
